<svg xmlns="http://www.w3.org/2000/svg" xmlns:xlink="http://www.w3.org/1999/xlink" viewBox="0 0 15.12 15.18"><defs><style>.cls-1{fill:url(#linear-gradient);}</style><linearGradient id="linear-gradient" x1="14.41" y1="0.17" x2="0.47" y2="15.31" gradientUnits="userSpaceOnUse"><stop offset="0.01" stop-color="#01d4f5"/><stop offset="0.18" stop-color="#31b2f7"/><stop offset="0.48" stop-color="#807bfa"/><stop offset="0.72" stop-color="#ba53fc"/><stop offset="0.9" stop-color="#dd39fd"/><stop offset="1" stop-color="#eb30fe"/></linearGradient></defs><g id="Layer_2" data-name="Layer 2"><g id="Layer_1-2" data-name="Layer 1"><path class="cls-1" d="M.26,15.18C0,15.18-.06,15,0,14.83L3,9.21c.11-.2.28-.2.39,0l3.25,5.64c.11.19,0,.34-.2.34ZM7.36,13a.21.21,0,0,0,.4,0L15,.35c.11-.19,0-.35-.2-.35H8.2a.72.72,0,0,0-.58.35L4.22,6.84a.82.82,0,0,0,0,.7Zm7.51,2.23a.22.22,0,0,0,.21-.35L12.14,9.21c-.1-.2-.28-.2-.39,0L8.5,14.84c-.11.19,0,.34.2.34Zm-12-10c.11.19.29.19.39,0L5.83.35A.22.22,0,0,0,5.62,0H.29C.07,0,0,.16.09.35Z"/></g></g></svg>