<svg xmlns="http://www.w3.org/2000/svg" width="24" height="24" viewBox="0 0 24 24">
  <g  transform="translate(-405 -243)">
 
    <path  d="M10.458,11.416h6.295l.083-.012.082-.023.05-.021a.6.6,0,0,0,.182-.126l.034-.037.036-.047.045-.075L17.3,11l.016-.053.011-.053.008-.078V4.538a.625.625,0,0,0-1.244-.085l-.006.085V9.284L9.651,2.85a.625.625,0,0,0-.814-.061l-.07.061L6.292,5.325,1.734.767a.625.625,0,0,0-.944.814l.061.07,5,5a.625.625,0,0,0,.814.061l.07-.061L9.209,4.176l5.989,5.99H10.458a.625.625,0,0,0-.619.54l-.006.085a.625.625,0,0,0,.54.619Z" transform="translate(408.333 249.416)" fill="currentColor"/>
  </g>
</svg>
