<svg width="16" height="16" viewBox="0 0 16 16" fill="none" xmlns="http://www.w3.org/2000/svg">
<path fill-rule="evenodd" clip-rule="evenodd" d="M1.46967 3.21967C1.76256 2.92678 2.23744 2.92678 2.53033 3.21967L6 6.68934L7.46967 5.21967C7.76256 4.92678 8.23744 4.92678 8.53033 5.21967L13.25 9.93934V6.75C13.25 6.33579 13.5858 6 14 6C14.4142 6 14.75 6.33579 14.75 6.75V11.75C14.75 12.1642 14.4142 12.5 14 12.5H9C8.58579 12.5 8.25 12.1642 8.25 11.75C8.25 11.3358 8.58579 11 9 11H12.1893L8 6.81066L6.53033 8.28033C6.23744 8.57322 5.76256 8.57322 5.46967 8.28033L1.46967 4.28033C1.17678 3.98744 1.17678 3.51256 1.46967 3.21967Z" fill="#424242"/>
</svg>
