<svg width="15" height="14" viewBox="0 0 15 14" fill="none" xmlns="http://www.w3.org/2000/svg">
<path fill-rule="evenodd" clip-rule="evenodd" d="M9.9033 2.62437C7.86439 1.26793 5.0855 1.48981 3.28769 3.28762C1.23744 5.33786 1.23744 8.66198 3.28769 10.7122C5.33793 12.7625 8.66204 12.7625 10.7123 10.7122C11.8167 9.60781 12.3264 8.13494 12.2408 6.68776C12.2163 6.27427 12.5317 5.91924 12.9452 5.89478C13.3587 5.87032 13.7137 6.18569 13.7381 6.59918C13.848 8.45612 13.1931 10.3528 11.773 11.7729C9.13692 14.4089 4.86306 14.4089 2.22703 11.7729C-0.409009 9.13685 -0.409011 4.86299 2.22703 2.22696C4.5399 -0.0859096 8.11204 -0.368935 10.7341 1.3755C11.079 1.60493 11.1726 2.07049 10.9432 2.41536C10.7137 2.76022 10.2482 2.8538 9.9033 2.62437Z" fill="currentColor"/>
<path fill-rule="evenodd" clip-rule="evenodd" d="M13.9419 2.05799C14.186 2.30207 14.186 2.6978 13.9419 2.94187L7.44194 9.44187C7.19786 9.68595 6.80214 9.68595 6.55806 9.44187L3.55806 6.44187C3.31398 6.1978 3.31398 5.80207 3.55806 5.55799C3.80214 5.31391 4.19786 5.31391 4.44194 5.55799L7 8.11605L13.0581 2.05799C13.3021 1.81391 13.6979 1.81391 13.9419 2.05799Z" fill="currentColor"/>
</svg>
