<svg xmlns="http://www.w3.org/2000/svg" width="24" height="24" viewBox="0 0 24 24">
  <g transform="translate(-405 -243)"> 
    <path d="M0,.75a.75.75,0,0,1,1.5,0V16.5H17.25a.75.75,0,0,1,0,1.5H.75A.75.75,0,0,1,0,17.25ZM14,1a3,3,0,1,0,3,3A3,3,0,0,0,14,1ZM12.5,4A1.5,1.5,0,1,1,14,5.5,1.5,1.5,0,0,1,12.5,4ZM3,6A3,3,0,1,1,6,9,3,3,0,0,1,3,6ZM6,4.5A1.5,1.5,0,1,0,7.5,6,1.5,1.5,0,0,0,6,4.5ZM12,9a3,3,0,1,0,3,3A3,3,0,0,0,12,9Zm-1.5,3A1.5,1.5,0,1,1,12,13.5,1.5,1.5,0,0,1,10.5,12Z" transform="translate(408 246)" fill="currentColor"/>
  </g>
</svg>
