<svg width="24" height="24" viewBox="0 0 24 24" fill="none" xmlns="http://www.w3.org/2000/svg">
<path fill-rule="evenodd" clip-rule="evenodd" d="M6.44194 5.55806C6.19786 5.31398 5.80214 5.31398 5.55806 5.55806C5.31398 5.80214 5.31398 6.19786 5.55806 6.44194L7.16066 8.04454C6.27898 9.12196 5.75 10.4992 5.75 12C5.75 15.4518 8.54822 18.25 12 18.25C13.5008 18.25 14.878 17.721 15.9555 16.8393L17.5581 18.4419C17.8021 18.686 18.1979 18.686 18.4419 18.4419C18.686 18.1979 18.686 17.8021 18.4419 17.5581L6.44194 5.55806ZM14.8878 15.7717L8.22833 9.11221C7.61469 9.91246 7.25 10.9136 7.25 12C7.25 14.6234 9.37665 16.75 12 16.75C13.0864 16.75 14.0875 16.3853 14.8878 15.7717Z" fill="currentColor"/>
<path d="M12 7.25C11.2662 7.25 10.5713 7.41638 9.95092 7.71348L8.8425 6.60507C9.7691 6.06159 10.8482 5.75 12 5.75C15.4518 5.75 18.25 8.54822 18.25 12C18.25 13.1518 17.9384 14.2309 17.3949 15.1575L16.2865 14.0491C16.5836 13.4287 16.75 12.7338 16.75 12C16.75 9.37665 14.6234 7.25 12 7.25Z" fill="currentColor"/>
</svg>
