<svg width="24" height="24" viewBox="0 0 24 24" fill="none" xmlns="http://www.w3.org/2000/svg">
<g clip-path="url(#clip0_323:123042)">
<path d="M21.7 10.4801C21.419 10.1427 21.0674 9.87115 20.67 9.68454C20.2725 9.49793 19.839 9.40082 19.4 9.40007H14.84L15.4 7.97007C15.6329 7.34395 15.7105 6.67067 15.626 6.00799C15.5416 5.34531 15.2977 4.713 14.9151 4.1653C14.5326 3.6176 14.023 3.17087 13.4299 2.86341C12.8368 2.55596 12.178 2.39696 11.51 2.40007C11.3176 2.40047 11.1294 2.45634 10.968 2.56099C10.8066 2.66564 10.6788 2.81462 10.6 2.99007L7.74996 9.40007H5.39996C4.60431 9.40007 3.84125 9.71614 3.27864 10.2787C2.71603 10.8414 2.39996 11.6044 2.39996 12.4001V19.4001C2.39996 20.1957 2.71603 20.9588 3.27864 21.5214C3.84125 22.084 4.60431 22.4001 5.39996 22.4001H18.13C18.8318 22.3998 19.5113 22.1536 20.0503 21.7041C20.5893 21.2546 20.9536 20.6304 21.08 19.9401L22.35 12.9401C22.4285 12.5074 22.411 12.0628 22.2987 11.6377C22.1864 11.2126 21.982 10.8174 21.7 10.4801ZM7.39996 20.4001H5.39996C5.13475 20.4001 4.88039 20.2947 4.69286 20.1072C4.50532 19.9196 4.39996 19.6653 4.39996 19.4001V12.4001C4.39996 12.1349 4.50532 11.8805 4.69286 11.693C4.88039 11.5054 5.13475 11.4001 5.39996 11.4001H7.39996V20.4001ZM20.4 12.5801L19.13 19.5801C19.0874 19.813 18.9635 20.0233 18.7804 20.1735C18.5972 20.3236 18.3668 20.4039 18.13 20.4001H9.39996V10.6101L12.12 4.49007C12.3999 4.57169 12.66 4.71048 12.8836 4.89765C13.1073 5.08483 13.2897 5.31634 13.4194 5.57756C13.549 5.83879 13.6231 6.12406 13.637 6.41537C13.6509 6.70668 13.6042 6.9977 13.5 7.27007L12.97 8.70007C12.857 9.00232 12.8189 9.32742 12.8588 9.6476C12.8988 9.96778 13.0156 10.2736 13.1993 10.5388C13.383 10.8041 13.6282 11.0209 13.9139 11.1709C14.1996 11.3209 14.5173 11.3995 14.84 11.4001H19.4C19.5469 11.3998 19.692 11.432 19.8251 11.4942C19.9582 11.5564 20.0759 11.6472 20.17 11.7601C20.2663 11.8714 20.3369 12.0026 20.3766 12.1444C20.4164 12.2861 20.4243 12.4349 20.4 12.5801Z" fill="currentColor"/>
</g>
<defs>
<clipPath id="clip0_323:123042">
<rect width="24" height="24" fill="white"/>
</clipPath>
</defs>
</svg>
