<svg width="11" height="12" viewBox="0 0 11 12" fill="none" xmlns="http://www.w3.org/2000/svg">
<path d="M3.74794 0.00146484L10.3017 0.00197792L10.4019 0.0158958L10.5008 0.0434928L10.5611 0.0690627C10.6403 0.103894 10.7145 0.154576 10.7797 0.219776L10.8205 0.263817L10.881 0.345296L10.9182 0.41032L10.9569 0.500635L10.976 0.564762L10.9896 0.628703L10.9989 0.721899L10.9995 7.25536C10.9995 7.66957 10.6637 8.00536 10.2495 8.00536C9.86978 8.00536 9.55598 7.7232 9.50632 7.35713L9.49947 7.25536L9.49902 2.55946L1.27942 10.7847C1.01318 11.051 0.596519 11.0753 0.302882 10.8575L0.218755 10.7849C-0.0475423 10.5186 -0.0717971 10.102 0.146023 9.80833L0.218631 9.72421L8.43802 1.50046L3.74794 1.50146C3.36825 1.50146 3.05445 1.21931 3.00479 0.853235L2.99794 0.751465C2.99794 0.371769 3.2801 0.0579739 3.64617 0.00831151L3.74794 0.00146484Z" fill="currentColor"/>
</svg>
