<svg width="20" height="20" viewBox="0 0 20 20" fill="none" xmlns="http://www.w3.org/2000/svg">
<path d="M8.12312 5.83594L13.5846 5.83637L13.6681 5.84796L13.7505 5.87096L13.8007 5.89227C13.8667 5.9213 13.9286 5.96353 13.983 6.01786L14.0169 6.05456L14.0673 6.12246L14.0983 6.17665L14.1306 6.25191L14.1465 6.30535L14.1579 6.35864L14.1656 6.4363L14.1661 11.8808C14.1661 12.226 13.8862 12.5058 13.5411 12.5058C13.2247 12.5058 12.9632 12.2707 12.9218 11.9657L12.9161 11.8808L12.9157 7.9676L6.06602 14.822C5.84415 15.0439 5.49694 15.0641 5.25224 14.8826L5.18213 14.8221C4.96022 14.6002 4.94001 14.253 5.12152 14.0083L5.18203 13.9382L12.0315 7.0851L8.12312 7.08594C7.80671 7.08594 7.54521 6.85081 7.50383 6.54575L7.49812 6.46094C7.49812 6.14452 7.73325 5.88303 8.03832 5.84164L8.12312 5.83594Z" fill="currentColor"/>
</svg>
