<svg width="24" height="24" viewBox="0 0 24 24" fill="none" xmlns="http://www.w3.org/2000/svg">
<path d="M14.4229 6.9394L18.9918 11.5092L19.0529 11.5899L19.1032 11.6793L19.1278 11.74C19.1592 11.8206 19.1758 11.909 19.1758 12.0012L19.1735 12.0611L19.1587 12.1615L19.139 12.2338L19.1025 12.325L19.0707 12.3839L19.0351 12.4388L18.9758 12.5112L14.4271 17.0607C14.1342 17.3536 13.6593 17.3536 13.3664 17.0607C13.0979 16.7922 13.0755 16.3708 13.2993 16.0768L13.3664 16L16.6158 12.75L4.57333 12.754C4.19677 12.754 3.885 12.4766 3.83139 12.1149L3.82324 12.0041C3.8232 11.6275 4.10067 11.3158 4.46233 11.2621L4.57315 11.254L16.6144 11.2509L13.3623 8.00006C13.0938 7.73157 13.0714 7.31017 13.2952 7.0162L13.3623 6.9394C13.6308 6.67091 14.0522 6.64854 14.3461 6.87228L14.4229 6.9394Z" fill="currentColor"/>
</svg>
