<svg xmlns="http://www.w3.org/2000/svg" width="24" height="24" viewBox="0 0 24 24">
  <g transform="translate(-493 -314)"> 
    <path d="M8.624.5h6.295L15,.514l.082.023.05.021a.6.6,0,0,1,.182.126l.034.037.05.068.031.054.032.075.016.053.011.053L15.5,1.1V7.38a.625.625,0,0,1-1.244.085L14.25,7.38V2.634L1.567,15.321a.625.625,0,0,1-.814.061l-.07-.061a.625.625,0,0,1-.061-.814l.061-.07L13.366,1.751H8.624A.625.625,0,0,1,8,1.212L8,1.127a.625.625,0,0,1,.54-.619Z" transform="translate(496.5 318.498)" fill="currentColor"/>
  </g>
</svg>
