<svg width="10" height="11" viewBox="0 0 10 11" fill="none" xmlns="http://www.w3.org/2000/svg">
<path d="M3.1241 10.1665L8.58556 10.1661L8.66909 10.1545L8.75146 10.1315L8.80172 10.1102C8.86772 10.0811 8.92958 10.0389 8.98393 9.98458L9.01786 9.94788L9.06831 9.87998L9.0993 9.82579L9.13153 9.75053L9.14752 9.69709L9.15884 9.64381L9.1666 9.56614L9.16704 4.12159C9.16704 3.77642 8.88722 3.49659 8.54204 3.49659C8.22563 3.49659 7.96413 3.73172 7.92275 4.03679L7.91704 4.12159L7.91667 8.03484L1.06699 1.18044C0.845131 0.958523 0.497913 0.938311 0.253216 1.11983L0.18311 1.18034C-0.0388048 1.4022 -0.0590172 1.74942 0.1225 1.99411L0.183007 2.06422L7.0325 8.91734L3.1241 8.9165C2.80769 8.9165 2.54619 9.15163 2.50481 9.4567L2.4991 9.5415C2.4991 9.85792 2.73423 10.1194 3.03929 10.1608L3.1241 10.1665Z" fill="currentColor"/>
</svg>
