<svg width="20" height="20" viewBox="0 0 20 20" fill="none" xmlns="http://www.w3.org/2000/svg">
<path d="M8.1241 14.168L13.5856 14.1675L13.6691 14.1559L13.7515 14.1329L13.8017 14.1116C13.8677 14.0826 13.9296 14.0404 13.9839 13.986L14.0179 13.9493L14.0683 13.8814L14.0993 13.8273L14.1315 13.752L14.1475 13.6986L14.1588 13.6453L14.1666 13.5676L14.167 8.12306C14.167 7.77788 13.8872 7.49806 13.542 7.49806C13.2256 7.49806 12.9641 7.73319 12.9227 8.03825L12.917 8.12306L12.9167 12.0363L6.06699 5.1819C5.84513 4.95999 5.49791 4.93978 5.25322 5.12129L5.18311 5.1818C4.9612 5.40366 4.94098 5.75088 5.1225 5.99558L5.18301 6.06568L12.0325 12.9188L8.1241 12.918C7.80769 12.918 7.54619 13.1531 7.50481 13.4582L7.4991 13.543C7.4991 13.8594 7.73423 14.1209 8.03929 14.1623L8.1241 14.168Z" fill="currentColor"/>
</svg>
