<svg width="11" height="12" viewBox="0 0 11 12" fill="none" xmlns="http://www.w3.org/2000/svg">
<path d="M3.74892 12L10.3027 11.9995L10.4029 11.9856L10.5018 11.958L10.5621 11.9324C10.6413 11.8976 10.7155 11.8469 10.7807 11.7817L10.8214 11.7376L10.882 11.6562L10.9192 11.5911L10.9578 11.5008L10.977 11.4367L10.9906 11.3728L10.9999 11.2796L11.0004 4.74611C11.0004 4.3319 10.6647 3.99611 10.2504 3.99611C9.87075 3.99611 9.55696 4.27826 9.5073 4.64434L9.50045 4.74611L9.5 9.442L1.28039 1.21672C1.01416 0.950423 0.597496 0.926167 0.303859 1.14399L0.219732 1.2166C-0.0465657 1.48283 -0.0708206 1.89949 0.147 2.19313L0.219608 2.27726L8.439 10.501L3.74892 10.5C3.36922 10.5 3.05543 10.7822 3.00577 11.1482L2.99892 11.25C2.99892 11.6297 3.28107 11.9435 3.64715 11.9932L3.74892 12Z" fill="currentColor"/>
</svg>
