<svg xmlns="http://www.w3.org/2000/svg" width="24" height="24" viewBox="0 0 24 24">
  <g  transform="translate(-478 -363)"> 
    <path   d="M8.624,15.5h6.295L15,15.488l.082-.023.05-.021a.6.6,0,0,0,.182-.126l.034-.037.05-.068.031-.054.032-.075.016-.053.011-.053L15.5,14.9V8.622a.625.625,0,0,0-1.244-.085l-.006.085v4.747L1.567.681A.625.625,0,0,0,.753.62L.683.68a.625.625,0,0,0-.061.814l.061.07L13.366,14.251H8.624A.625.625,0,0,0,8,14.79L8,14.875a.625.625,0,0,0,.54.619Z" transform="translate(482.5 366.503)" fill="currentColor"/>
  </g>
</svg>
