<svg width="24" height="24" viewBox="0 0 24 24" fill="none" xmlns="http://www.w3.org/2000/svg">
<path d="M12.4 9.40002C11.8067 9.40002 11.2267 9.57597 10.7333 9.90562C10.24 10.2353 9.85545 10.7038 9.62839 11.252C9.40132 11.8002 9.34191 12.4034 9.45767 12.9853C9.57342 13.5672 9.85915 14.1018 10.2787 14.5213C10.6983 14.9409 11.2328 15.2266 11.8148 15.3424C12.3967 15.4581 12.9999 15.3987 13.5481 15.1717C14.0963 14.9446 14.5648 14.5601 14.8944 14.0667C15.2241 13.5734 15.4 12.9934 15.4 12.4C15.4 11.6044 15.084 10.8413 14.5213 10.2787C13.9587 9.71609 13.1957 9.40002 12.4 9.40002ZM12.4 13.4C12.2022 13.4 12.0089 13.3414 11.8445 13.2315C11.68 13.1216 11.5518 12.9654 11.4761 12.7827C11.4005 12.6 11.3807 12.3989 11.4192 12.2049C11.4578 12.011 11.5531 11.8328 11.6929 11.6929C11.8328 11.5531 12.011 11.4578 12.2049 11.4192C12.3989 11.3807 12.6 11.4005 12.7827 11.4761C12.9654 11.5518 13.1216 11.68 13.2315 11.8445C13.3414 12.0089 13.4 12.2022 13.4 12.4C13.4 12.6652 13.2947 12.9196 13.1071 13.1071C12.9196 13.2947 12.6652 13.4 12.4 13.4ZM21.4 11.4H20.33C20.1068 9.64 19.3049 8.0041 18.0504 6.74961C16.7959 5.49512 15.16 4.69322 13.4 4.47002V3.40002C13.4 3.13481 13.2947 2.88045 13.1071 2.69292C12.9196 2.50538 12.6652 2.40002 12.4 2.40002C12.1348 2.40002 11.8805 2.50538 11.6929 2.69292C11.5054 2.88045 11.4 3.13481 11.4 3.40002V4.47002C9.64 4.69322 8.0041 5.49512 6.74961 6.74961C5.49512 8.0041 4.69322 9.64 4.47002 11.4H3.40002C3.13481 11.4 2.88045 11.5054 2.69292 11.6929C2.50538 11.8805 2.40002 12.1348 2.40002 12.4C2.40002 12.6652 2.50538 12.9196 2.69292 13.1071C2.88045 13.2947 3.13481 13.4 3.40002 13.4H4.47002C4.69322 15.16 5.49512 16.7959 6.74961 18.0504C8.0041 19.3049 9.64 20.1068 11.4 20.33V21.4C11.4 21.6652 11.5054 21.9196 11.6929 22.1071C11.8805 22.2947 12.1348 22.4 12.4 22.4C12.6652 22.4 12.9196 22.2947 13.1071 22.1071C13.2947 21.9196 13.4 21.6652 13.4 21.4V20.33C15.16 20.1068 16.7959 19.3049 18.0504 18.0504C19.3049 16.7959 20.1068 15.16 20.33 13.4H21.4C21.6652 13.4 21.9196 13.2947 22.1071 13.1071C22.2947 12.9196 22.4 12.6652 22.4 12.4C22.4 12.1348 22.2947 11.8805 22.1071 11.6929C21.9196 11.5054 21.6652 11.4 21.4 11.4ZM12.4 18.4C11.2133 18.4 10.0533 18.0481 9.0666 17.3888C8.07991 16.7296 7.31087 15.7925 6.85675 14.6961C6.40262 13.5998 6.2838 12.3934 6.51531 11.2295C6.74682 10.0656 7.31827 8.9965 8.15738 8.15738C8.9965 7.31827 10.0656 6.74682 11.2295 6.51531C12.3934 6.2838 13.5998 6.40262 14.6961 6.85675C15.7925 7.31087 16.7296 8.07991 17.3888 9.0666C18.0481 10.0533 18.4 11.2133 18.4 12.4C18.4 13.9913 17.7679 15.5174 16.6427 16.6427C15.5174 17.7679 13.9913 18.4 12.4 18.4Z" fill="currentColor"/>
</svg>
