<svg width="24" height="24" viewBox="0 0 24 24" fill="none" xmlns="http://www.w3.org/2000/svg">
<path d="M19.87 8.6001C19.7955 8.42882 19.6745 8.28182 19.5207 8.17578C19.367 8.06973 19.1866 8.00888 19 8.0001H14.42L15.69 3.2601C15.7304 3.11177 15.7361 2.95612 15.7067 2.80523C15.6772 2.65434 15.6133 2.51229 15.52 2.3901C15.4268 2.26908 15.3072 2.17101 15.1703 2.10341C15.0333 2.03581 14.8827 2.00047 14.73 2.0001H7.73C7.50424 1.99236 7.28251 2.0613 7.10092 2.19567C6.91934 2.33004 6.7886 2.52194 6.73 2.7401L4.05 12.7401C4.00955 12.8884 4.00385 13.0441 4.03333 13.195C4.06282 13.3459 4.12669 13.4879 4.22 13.6101C4.31418 13.7325 4.43543 13.8313 4.57422 13.899C4.71302 13.9667 4.86559 14.0013 5.02 14.0001H8.89L7.08 20.7401C7.0207 20.9574 7.03652 21.1884 7.1249 21.3957C7.21329 21.6029 7.36905 21.7742 7.56696 21.8818C7.76487 21.9894 7.99332 22.0271 8.2153 21.9887C8.43728 21.9502 8.63979 21.838 8.79 21.6701L19.69 9.6701C19.8198 9.52798 19.9058 9.35143 19.9377 9.16163C19.9697 8.97184 19.9461 8.77686 19.87 8.6001V8.6001ZM10.08 17.2801L11.15 13.2801C11.1904 13.1318 11.1962 12.9761 11.1667 12.8252C11.1372 12.6743 11.0733 12.5323 10.98 12.4101C10.8868 12.2891 10.7672 12.191 10.6303 12.1234C10.4933 12.0558 10.3427 12.0205 10.19 12.0201H6.35L8.49 4.0001H13.42L12.15 8.7401C12.1092 8.89115 12.1045 9.04967 12.1361 9.2029C12.1677 9.35613 12.2349 9.4998 12.3322 9.62235C12.4294 9.74491 12.5541 9.84293 12.6961 9.90854C12.8382 9.97414 12.9936 10.0055 13.15 10.0001H16.72L10.08 17.2801Z" fill="currentColor"/>
</svg>
