<svg width="24" height="24" viewBox="0 0 24 24" fill="none" xmlns="http://www.w3.org/2000/svg">
<path fill-rule="evenodd" clip-rule="evenodd" d="M11.6707 5.33541L6.6707 15.3354L5.32906 14.6646L10.3291 4.66459L11.6707 5.33541Z" fill="currentColor"/>
<path fill-rule="evenodd" clip-rule="evenodd" d="M19.3353 13.6708L9.33529 18.6708L8.66447 17.3292L18.6645 12.3292L19.3353 13.6708Z" fill="currentColor"/>
<path fill-rule="evenodd" clip-rule="evenodd" d="M15.5302 9.53033L8.53021 16.5303L7.46955 15.4697L14.4695 8.46967L15.5302 9.53033Z" fill="currentColor"/>
<path fill-rule="evenodd" clip-rule="evenodd" d="M5.79547 7.75H1.97021V6.25H5.79547C6.73386 6.25 7.65123 6.52795 8.43182 7.04877L12.7529 9.93188C13.2748 10.2801 13.7226 10.7283 14.0703 11.2506L16.9512 15.5773C17.4704 16.3571 17.7474 17.273 17.7474 18.2098V22H16.2474V18.2098C16.2474 17.5689 16.0579 16.9422 15.7026 16.4086L12.8217 12.0819C12.5838 11.7246 12.2775 11.4179 11.9204 11.1796L7.59929 8.29653C7.0652 7.94018 6.43753 7.75 5.79547 7.75Z" fill="currentColor"/>
<path fill-rule="evenodd" clip-rule="evenodd" d="M4.13314 10.75H1.97021V9.25H4.13314C4.84686 9.25 5.54575 9.45367 6.14773 9.8371L10.3427 12.5091C10.8059 12.8041 11.1986 13.1972 11.4932 13.6607L14.1625 17.8613C14.5445 18.4626 14.7474 19.1602 14.7474 19.8726V22H13.2474V19.8726C13.2474 19.4451 13.1257 19.0266 12.8964 18.6658L10.2272 14.4652C10.0504 14.1871 9.81481 13.9512 9.5369 13.7742L5.34189 11.1023C4.98071 10.8722 4.56137 10.75 4.13314 10.75Z" fill="currentColor"/>
<path fill-rule="evenodd" clip-rule="evenodd" d="M2.17575 13.75H1.97021V12.25H2.17575C2.85598 12.25 3.52339 12.435 4.10653 12.7853L7.74523 14.9707C8.27322 15.2878 8.71497 15.73 9.03146 16.2584L11.2144 19.9028C11.5632 20.485 11.7474 21.151 11.7474 21.8298V22H10.2474V21.8298C10.2474 21.4225 10.1369 21.0229 9.92764 20.6736L7.74466 17.0292C7.55476 16.7122 7.28971 16.4468 6.97291 16.2566L3.33422 14.0712C2.98434 13.861 2.58389 13.75 2.17575 13.75Z" fill="currentColor"/>
<path fill-rule="evenodd" clip-rule="evenodd" d="M7.42695 4.75H1.97021V3.25H7.42695C8.59465 3.25 9.73467 3.60552 10.6954 4.26927L15.1788 7.36682C15.7469 7.75931 16.2396 8.25091 16.6334 8.81807L19.7359 13.2862C20.4045 14.2491 20.7628 15.3934 20.7628 16.5657V22H19.2628V16.5657C19.2628 15.6992 18.9979 14.8534 18.5038 14.1417L15.4013 9.67359C15.1102 9.25438 14.746 8.89103 14.3261 8.60093L9.84275 5.50337C9.13266 5.01278 8.29003 4.75 7.42695 4.75Z" fill="currentColor"/>
</svg>
