<svg width="24" height="24" viewBox="0 0 24 24" fill="none" xmlns="http://www.w3.org/2000/svg">
<path fill-rule="evenodd" clip-rule="evenodd" d="M12 10.5001C12.8284 10.5001 13.5 9.82852 13.5 9.00009C13.5 8.17166 12.8284 7.50009 12 7.50009C11.1716 7.50009 10.5 8.17166 10.5 9.00009C10.5 9.82852 11.1716 10.5001 12 10.5001ZM12 12.0001C13.6569 12.0001 15 10.6569 15 9.00009C15 7.34323 13.6569 6.00009 12 6.00009C10.3432 6.00009 9.00001 7.34323 9.00001 9.00009C9.00001 10.6569 10.3432 12.0001 12 12.0001Z" fill="currentColor"/>
<path d="M13.4493 9.38815L20.8874 7.39514L20.4991 5.94625L13.0606 7.93939C13.3321 8.21084 13.5 8.58585 13.5 9.00009C13.5 9.13429 13.4824 9.26437 13.4493 9.38815Z" fill="currentColor"/>
<path d="M10.9393 10.0607C10.6679 9.78927 10.5 9.41428 10.5 9.00009C10.5 8.86585 10.5176 8.73573 10.5507 8.61192L2.6295 10.7344C2.36277 10.8059 2.20448 11.08 2.27595 11.3468L2.40536 11.8297C2.47683 12.0965 2.751 12.2548 3.01773 12.1833L10.9393 10.0607Z" fill="currentColor"/>
<path d="M19.0413 11.8945L17 4.27657C16.9286 4.00983 17.0869 3.73566 17.3536 3.66419L19.2854 3.14656C19.5522 3.07508 19.8263 3.23338 19.8978 3.50011L21.1792 8.28245C21.5732 9.7528 20.9821 11.3103 19.7118 12.149C19.46 12.3153 19.1194 12.186 19.0413 11.8945Z" fill="currentColor"/>
<path fill-rule="evenodd" clip-rule="evenodd" d="M11.7201 11.2101L10.8219 14.2895L12.815 13.0438L12.2801 11.2101L13.7201 10.7901L16.9897 22.0001H15.4272L14.6839 19.4516L8.7373 22.0001H7.01051L10.2801 10.7901L11.7201 11.2101ZM13.1432 18.4799L9.09353 20.2155L10.0145 17.0578L13.1432 18.4799ZM14.0386 17.2392L11.0825 15.8955L13.2513 14.54L14.0386 17.2392Z" fill="currentColor"/>
</svg>
