<svg width="24" height="24" viewBox="0 0 24 24" fill="none" xmlns="http://www.w3.org/2000/svg">
<path d="M10.75 14.75C11.1642 14.75 11.5 15.0858 11.5 15.5C11.5 15.9142 11.1642 16.25 10.75 16.25H9.25C8.83579 16.25 8.5 15.9142 8.5 15.5C8.5 15.0858 8.83579 14.75 9.25 14.75H10.75Z" fill="currentColor"/>
<path d="M14.75 4.5C14.75 4.08579 15.0858 3.75 15.5 3.75C15.9142 3.75 16.25 4.08579 16.25 4.5V6C16.25 6.41421 15.9142 6.75 15.5 6.75C15.0858 6.75 14.75 6.41421 14.75 6V4.5Z" fill="currentColor"/>
<path d="M5.25 6C5.25 6.41421 4.91421 6.75 4.5 6.75C4.08579 6.75 3.75 6.41421 3.75 6L3.75 4.5C3.75 4.08579 4.08579 3.75 4.5 3.75C4.91421 3.75 5.25 4.08579 5.25 4.5L5.25 6Z" fill="currentColor"/>
<path d="M5.25 10.5C5.25 10.9142 4.91421 11.25 4.5 11.25C4.08579 11.25 3.75 10.9142 3.75 10.5L3.75 9C3.75 8.58579 4.08579 8.25 4.5 8.25C4.91421 8.25 5.25 8.58579 5.25 9L5.25 10.5Z" fill="currentColor"/>
<path d="M16.25 10.5C16.25 10.9142 15.9142 11.25 15.5 11.25C15.0858 11.25 14.75 10.9142 14.75 10.5V9C14.75 8.58579 15.0858 8.25 15.5 8.25C15.9142 8.25 16.25 8.58579 16.25 9V10.5Z" fill="currentColor"/>
<path fill-rule="evenodd" clip-rule="evenodd" d="M15.5 12.75C15.9142 12.75 16.25 13.0858 16.25 13.5V13.75C16.25 15.1307 15.1307 16.25 13.75 16.25C13.3358 16.25 13 15.9142 13 15.5C13 15.0858 13.3358 14.75 13.75 14.75C14.3023 14.75 14.75 14.3023 14.75 13.75V13.5C14.75 13.0858 15.0858 12.75 15.5 12.75Z" fill="currentColor"/>
<path fill-rule="evenodd" clip-rule="evenodd" d="M4.5 12.75C4.08579 12.75 3.75 13.0858 3.75 13.5V13.75C3.75 15.1307 4.86929 16.25 6.25 16.25C6.66421 16.25 7 15.9142 7 15.5C7 15.0858 6.66421 14.75 6.25 14.75C5.69772 14.75 5.25 14.3023 5.25 13.75V13.5C5.25 13.0858 4.91421 12.75 4.5 12.75Z" fill="currentColor"/>
<path fill-rule="evenodd" clip-rule="evenodd" d="M19.25 6C19.6642 6 20 6.33579 20 6.75V14.25C20 17.4256 17.4256 20 14.25 20H9.25C9.11193 20 9 20.1119 9 20.25V21.25C9 21.6642 8.66421 22 8.25 22C7.83579 22 7.5 21.6642 7.5 21.25V20.25C7.5 19.2835 8.2835 18.5 9.25 18.5H14.25C16.5972 18.5 18.5 16.5972 18.5 14.25V6.75C18.5 6.33579 18.8358 6 19.25 6Z" fill="currentColor"/>
<path fill-rule="evenodd" clip-rule="evenodd" d="M8.25 1.5C8.66421 1.5 9 1.83579 9 2.25V10C9 10.5523 9.44772 11 10 11C10.5523 11 11 10.5523 11 10V6.75C11 6.33579 11.3358 6 11.75 6C12.1642 6 12.5 6.33579 12.5 6.75V10C12.5 11.3807 11.3807 12.5 10 12.5C8.61929 12.5 7.5 11.3807 7.5 10V2.25C7.5 1.83579 7.83579 1.5 8.25 1.5Z" fill="currentColor"/>
</svg>
