<svg width="24" height="24" viewBox="0 0 24 24" fill="none" xmlns="http://www.w3.org/2000/svg">
<path d="M21.71 15.5801L17.19 11.0701C17.2846 10.6095 17.3315 10.1404 17.33 9.67013C17.3296 8.38078 17.0042 7.11232 16.3839 5.98201C15.7636 4.8517 14.8683 3.896 13.7809 3.20327C12.6934 2.51053 11.4489 2.10311 10.1623 2.01867C8.87572 1.93422 7.58862 2.17547 6.41995 2.72013C6.27189 2.78777 6.14258 2.89053 6.04324 3.01949C5.94391 3.14844 5.87756 3.2997 5.84995 3.46013C5.82246 3.61851 5.83355 3.7812 5.88229 3.93438C5.93103 4.08757 6.01599 4.22675 6.12995 4.34013L10.48 8.68013L8.67995 10.4801L4.33995 6.13013C4.22562 6.01793 4.08601 5.93484 3.93287 5.88785C3.77972 5.84087 3.61754 5.83136 3.45995 5.86013C3.30053 5.88672 3.14994 5.95156 3.02106 6.04909C2.89218 6.14662 2.78886 6.27393 2.71995 6.42013C2.17348 7.59263 1.93243 8.88431 2.01924 10.175C2.10606 11.4657 2.5179 12.7134 3.21647 13.8022C3.91503 14.891 4.87762 15.7854 6.0147 16.4022C7.15177 17.019 8.42638 17.3382 9.71995 17.3301C10.1902 17.3316 10.6593 17.2847 11.12 17.1901L15.63 21.7101C15.7229 21.8039 15.8335 21.8782 15.9554 21.929C16.0772 21.9798 16.2079 22.0059 16.34 22.0059C16.472 22.0059 16.6027 21.9798 16.7245 21.929C16.8464 21.8782 16.957 21.8039 17.05 21.7101C17.1437 21.6172 17.2181 21.5066 17.2688 21.3847C17.3196 21.2628 17.3458 21.1321 17.3458 21.0001C17.3458 20.8681 17.3196 20.7374 17.2688 20.6155C17.2181 20.4937 17.1437 20.3831 17.05 20.2901L12.15 15.3901C12.0275 15.2685 11.8757 15.1806 11.7092 15.1351C11.5427 15.0895 11.3673 15.0878 11.2 15.1301C10.7171 15.2594 10.2198 15.3266 9.71995 15.3301C8.972 15.3367 8.23014 15.1953 7.53709 14.9139C6.84405 14.6325 6.21353 14.2168 5.68184 13.6907C5.15016 13.1646 4.72783 12.5385 4.43917 11.8485C4.15052 11.1584 4.00124 10.4181 3.99995 9.67013C3.99866 9.33514 4.02542 9.00064 4.07995 8.67013L7.99995 12.6001C8.09292 12.6939 8.20352 12.7682 8.32538 12.819C8.44724 12.8698 8.57794 12.8959 8.70995 12.8959C8.84197 12.8959 8.97267 12.8698 9.09453 12.819C9.21639 12.7682 9.32699 12.6939 9.41995 12.6001L12.6 9.39013C12.7802 9.20366 12.8809 8.95446 12.8809 8.69513C12.8809 8.43579 12.7802 8.18659 12.6 8.00013L8.70995 4.08013C9.04054 4.02614 9.37499 3.99938 9.70995 4.00013C11.212 4.00278 12.6516 4.60132 13.7128 5.66436C14.774 6.72741 15.37 8.16808 15.37 9.67013C15.3665 10.17 15.2993 10.6673 15.17 11.1501C15.1276 11.3175 15.1293 11.4929 15.1749 11.6594C15.2204 11.8258 15.3083 11.9777 15.43 12.1001L20.33 17.0001C20.5183 17.1884 20.7737 17.2942 21.04 17.2942C21.3063 17.2942 21.5616 17.1884 21.75 17.0001C21.9383 16.8118 22.044 16.5564 22.044 16.2901C22.044 16.0238 21.9383 15.7684 21.75 15.5801H21.71Z" fill="currentColor"/>
</svg>
