<svg fill="none" height="24" viewBox="0 0 24 24" width="24" xmlns="http://www.w3.org/2000/svg"><g fill="currentColor"><path d="m12 9s-1.5-4.67157-1.5-5.5.6716-1.5 1.5-1.5 1.5.67157 1.5 1.5-1.5 5.5-1.5 5.5z"/><path d="m10 10c-1-1-2.67157-1-3.5-1s-1.5-.67157-1.5-1.5.67157-1.5 1.5-1.5 2.5 0 3.5 4z"/><path d="m14 10c1-1 2.6716-1 3.5-1s1.5-.67157 1.5-1.5-.6716-1.5-1.5-1.5-2.5 0-3.5 4z"/><path d="m9.61487 12.25c-.71502 0-1.33065.5047-1.47087 1.2058l-1.70884 8.5442h1.52971l1.56961-7.8481c.04674-.2337.25195-.4019.49032-.4019h3.9505c.2383 0 .4435.1682.4903.4019l1.5696 7.8481h1.5297l-1.7089-8.5442c-.1402-.7011-.7558-1.2058-1.4708-1.2058z"/><path d="m15.7803 15.2803c.2929-.2929.2929-.7677 0-1.0606s-.7677-.2929-1.0606 0l-2.7197 2.7196-2.71967-2.7196c-.29289-.2929-.76777-.2929-1.06066 0s-.29289.7677 0 1.0606l2.71963 2.7197-3.99996 4h2.12132l2.93934-2.9393 2.9393 2.9393h2.1214l-4-4z"/></g></svg>