<svg width="24" height="24" viewBox="0 0 24 24" fill="none" xmlns="http://www.w3.org/2000/svg">
<path fill-rule="evenodd" clip-rule="evenodd" d="M14.9963 3.0747C15.0308 2.72971 14.8243 2.40604 14.4969 2.29189C14.1696 2.17774 13.8066 2.30286 13.6191 2.59451L6.86912 13.0945C6.72076 13.3253 6.71025 13.6187 6.84172 13.8595C6.97318 14.1003 7.22564 14.2501 7.5 14.2501H9.67126L9.00372 20.9254C8.96922 21.2704 9.17569 21.5941 9.50307 21.7083C9.83045 21.8224 10.1934 21.6973 10.3809 21.4056L17.1309 10.9056C17.2792 10.6749 17.2898 10.3815 17.1583 10.1407C17.0268 9.89988 16.7744 9.75007 16.5 9.75007H14.3287L14.9963 3.0747ZM10.5 12.7501H8.87375L13.1932 6.03098L12.7537 10.4254C12.7326 10.6363 12.8017 10.8462 12.9439 11.0033C13.0861 11.1604 13.2881 11.2501 13.5 11.2501H15.1263L10.8068 17.9692L11.2463 13.5747C11.2674 13.3639 11.1983 13.1539 11.0561 12.9968C10.9139 12.8397 10.7119 12.7501 10.5 12.7501Z" fill="currentColor"/>
<path d="M9.39331 4.17015C9.78634 4.03937 9.99894 3.61475 9.86817 3.22172C9.73739 2.82869 9.31276 2.61609 8.91974 2.74687C5.04539 4.03601 2.25 7.69062 2.25 12.0001C2.25 14.9317 3.54481 17.5618 5.59121 19.348C5.90327 19.6204 6.37705 19.5883 6.64943 19.2762C6.92182 18.9641 6.88965 18.4904 6.57759 18.218C4.84366 16.7045 3.75 14.4805 3.75 12.0001C3.75 8.35575 6.11347 5.26147 9.39331 4.17015Z" fill="currentColor"/>
<path d="M18.4088 4.65218C18.0968 4.3798 17.623 4.41196 17.3506 4.72401C17.0782 5.03607 17.1104 5.50985 17.4224 5.78224C19.1564 7.29571 20.25 9.51974 20.25 12.0001C20.25 15.6444 17.8866 18.7387 14.6067 19.83C14.2137 19.9608 14.0011 20.3854 14.1319 20.7784C14.2627 21.1715 14.6873 21.3841 15.0803 21.2533C18.9546 19.9641 21.75 16.3095 21.75 12.0001C21.75 9.06848 20.4552 6.4384 18.4088 4.65218Z" fill="currentColor"/>
</svg>
