<svg xmlns="http://www.w3.org/2000/svg" width="24" height="24" viewBox="0 0 24 24">
  <g transform="translate(-344 -283)"> 
    <path d="M8,3V1.21A.5.5,0,0,0,7.15.86L4.35,3.65a.5.5,0,0,0,0,.71L7.14,7.15A.506.506,0,0,0,8,6.79V5A6,6,0,0,1,9.69,16.75.978.978,0,0,0,9,17.7a.992.992,0,0,0,1.25.97A8,8,0,0,0,8,3Z" transform="translate(348 285.292)" fill="currentColor"/>
    <path d="M2,11A6,6,0,0,1,3.19,7.41,1,1,0,0,0,1.6,6.2,7.993,7.993,0,0,0,5.75,18.67.992.992,0,0,0,7,17.7a.978.978,0,0,0-.69-.95A6.012,6.012,0,0,1,2,11Z" transform="translate(348 285.292)" fill="currentColor"/>
  </g>
</svg>
