<svg width="16" height="16" viewBox="0 0 16 16" fill="none" xmlns="http://www.w3.org/2000/svg">
<path fill-rule="evenodd" clip-rule="evenodd" d="M3.53033 2.96967C3.23744 2.67678 2.76256 2.67678 2.46967 2.96967C2.17678 3.26256 2.17678 3.73744 2.46967 4.03033L6.93934 8.5L2.46967 12.9697C2.17678 13.2626 2.17678 13.7374 2.46967 14.0303C2.76256 14.3232 3.23744 14.3232 3.53033 14.0303L8 9.56066L12.4697 14.0303C12.7626 14.3232 13.2374 14.3232 13.5303 14.0303C13.8232 13.7374 13.8232 13.2626 13.5303 12.9697L9.06066 8.5L13.5303 4.03033C13.8232 3.73744 13.8232 3.26256 13.5303 2.96967C13.2374 2.67678 12.7626 2.67678 12.4697 2.96967L8 7.43934L3.53033 2.96967Z" fill="currentColor"/>
</svg>
