<svg width="24" height="24" viewBox="0 0 24 24" fill="none" xmlns="http://www.w3.org/2000/svg">
<g clip-path="url(#clip0_272:115260)">
<path fill-rule="evenodd" clip-rule="evenodd" d="M10.2546 3.26001H13.7453C15.2736 3.25998 16.5116 3.25996 17.4867 3.3911C18.5015 3.52759 19.3652 3.82081 20.0521 4.50837C20.7393 5.19524 21.0324 6.05877 21.1689 7.07328C21.3 8.04833 21.3 9.2864 21.3 10.8147V10.9453C21.3 12.4736 21.3 13.7117 21.1689 14.6867C21.0324 15.7013 20.7393 16.5648 20.0521 17.2517C19.3652 17.9392 18.5015 18.2324 17.4867 18.3689C16.5116 18.5001 15.2736 18.5 13.7453 18.5H13.68C13.1829 18.5 12.78 18.0971 12.78 17.6C12.78 17.103 13.1829 16.7 13.68 16.7C15.2892 16.7 16.4057 16.6981 17.2467 16.585C18.0619 16.4753 18.4821 16.2763 18.7788 15.9794C19.0757 15.6827 19.2753 15.262 19.3849 14.4468C19.498 13.6058 19.5 12.4893 19.5 10.88C19.5 9.27074 19.498 8.15425 19.3849 7.31322C19.2753 6.49806 19.0763 6.07783 18.7793 5.78116C18.4827 5.48423 18.0619 5.28468 17.2467 5.17504C16.4057 5.06192 15.2892 5.06001 13.68 5.06001H10.32C8.71068 5.06001 7.59419 5.06192 6.75316 5.17504C5.938 5.28468 5.51777 5.48369 5.2211 5.78062C4.92417 6.07729 4.72462 6.49806 4.61498 7.31322C4.50187 8.15425 4.49995 9.27074 4.49995 10.88C4.49995 12.4893 4.50187 13.6058 4.61498 14.4468C4.72462 15.262 4.92363 15.6822 5.22056 15.9789C5.5508 16.3096 6.03476 16.5197 7.04746 16.6186C7.54216 16.6669 7.90402 17.1071 7.85569 17.6018C7.80736 18.0965 7.36715 18.4584 6.87245 18.4101C5.70136 18.2957 4.71471 18.0195 3.94797 17.2519C3.26066 16.5649 2.96751 15.7014 2.83104 14.6867C2.6999 13.7117 2.69993 12.4736 2.69995 10.9454V10.8147C2.69993 9.28639 2.6999 8.04833 2.83104 7.07328C2.96751 6.05864 3.26068 5.19502 3.94804 4.50809C4.63496 3.82074 5.49858 3.52757 6.51323 3.3911C7.48827 3.25996 8.72633 3.25998 10.2546 3.26001Z" fill="currentColor"/>
<path fill-rule="evenodd" clip-rule="evenodd" d="M8.28979 15.5827C8.78536 15.6211 9.15596 16.054 9.11755 16.5495L9.08697 16.944C9.02051 17.7909 8.97604 18.3719 8.98025 18.7808C9.31588 18.6128 9.76995 18.3401 10.4188 17.9485C11.3654 17.3773 12.5304 16.8498 13.68 16.8498C14.1771 16.8498 14.58 17.2527 14.58 17.7498C14.58 18.2468 14.1771 18.6498 13.68 18.6498C13.0301 18.6498 12.2121 18.9687 11.3489 19.4895C11.3303 19.5008 11.3118 19.5119 11.2934 19.5231C10.6124 19.9341 10.0304 20.2854 9.57342 20.4919C9.33789 20.5983 9.06651 20.6994 8.78558 20.7302C8.48147 20.7636 8.11328 20.7182 7.78945 20.4648L8.344 19.756L7.79049 20.4656C7.5009 20.2398 7.35772 19.9381 7.28378 19.6773C7.21164 19.4229 7.18784 19.1469 7.18171 18.8817C7.16979 18.366 7.22391 17.6768 7.28864 16.8523C7.28988 16.8364 7.29113 16.8205 7.29239 16.8045C7.2924 16.8044 7.29238 16.8047 7.29239 16.8045L7.32293 16.4105C7.36134 15.9149 7.79422 15.5443 8.28979 15.5827Z" fill="currentColor"/>
<path fill-rule="evenodd" clip-rule="evenodd" d="M12 7.5C12.497 7.5 12.9 7.90294 12.9 8.4V10.5H14.3999C14.897 10.5 15.2999 10.9029 15.2999 11.4C15.2999 11.8971 14.897 12.3 14.3999 12.3H12.9V14.4C12.9 14.8971 12.497 15.3 12 15.3C11.5029 15.3 11.1 14.8971 11.1 14.4V12.3H9.59995C9.10289 12.3 8.69995 11.8971 8.69995 11.4C8.69995 10.9029 9.10289 10.5 9.59995 10.5H11.1V8.4C11.1 7.90294 11.5029 7.5 12 7.5Z" fill="currentColor"/>
</g>
<path d="M0 0V-1H-1V0H0ZM24 0H25V-1H24V0ZM24 24V25H25V24H24ZM0 24H-1V25H0V24ZM0 1H24V-1H0V1ZM23 0V24H25V0H23ZM24 23H0V25H24V23ZM1 24V0H-1V24H1Z" fill="white"/>
<defs>
<clipPath id="clip0_272:115260">
<path d="M0 0H24V24H0V0Z" fill="white"/>
</clipPath>
</defs>
</svg>
