<svg width="16" height="16" viewBox="0 0 16 16" fill="none" xmlns="http://www.w3.org/2000/svg">
<path d="M3 1.25C2.0335 1.25 1.25 2.0335 1.25 3L1.25 11C1.25 11.4142 1.58579 11.75 2 11.75C2.41421 11.75 2.75 11.4142 2.75 11L2.75 3C2.75 2.86193 2.86193 2.75 3 2.75L11 2.75C11.4142 2.75 11.75 2.41421 11.75 2C11.75 1.58579 11.4142 1.25 11 1.25L3 1.25Z" fill="currentColor"/>
<path d="M14.75 5C14.75 4.58579 14.4142 4.25 14 4.25C13.5858 4.25 13.25 4.58579 13.25 5L13.25 13C13.25 13.1381 13.1381 13.25 13 13.25L5 13.25C4.58579 13.25 4.25 13.5858 4.25 14C4.25 14.4142 4.58579 14.75 5 14.75L13 14.75C13.9665 14.75 14.75 13.9665 14.75 13L14.75 5Z" fill="currentColor"/>
<path d="M14.4419 2.44194C14.686 2.19786 14.686 1.80214 14.4419 1.55806C14.1979 1.31398 13.8021 1.31398 13.5581 1.55806L9.125 5.99112V4.5C9.125 4.15482 8.84518 3.875 8.5 3.875C8.15482 3.875 7.875 4.15482 7.875 4.5L7.875 6.5C7.875 7.39746 8.60254 8.125 9.5 8.125H11.5C11.8452 8.125 12.125 7.84518 12.125 7.5C12.125 7.15482 11.8452 6.875 11.5 6.875H10.0089L14.4419 2.44194Z" fill="currentColor"/>
<path d="M7.5 12.125C7.15482 12.125 6.875 11.8452 6.875 11.5V10.0089L2.44194 14.4419C2.19786 14.686 1.80214 14.686 1.55806 14.4419C1.31398 14.1979 1.31398 13.8021 1.55806 13.5581L5.99112 9.125L4.5 9.125C4.15482 9.125 3.875 8.84518 3.875 8.5C3.875 8.15482 4.15482 7.875 4.5 7.875L6.5 7.875C7.39746 7.875 8.125 8.60254 8.125 9.5V11.5C8.125 11.8452 7.84518 12.125 7.5 12.125Z" fill="currentColor"/>
</svg>
