<svg width="24" height="24" viewBox="0 0 24 24" fill="none" xmlns="http://www.w3.org/2000/svg">
<path fill-rule="evenodd" clip-rule="evenodd" d="M18 3.5L6 3.5C4.61929 3.5 3.5 4.61929 3.5 6L3.5 18C3.5 19.3807 4.61929 20.5 6 20.5L18 20.5C19.3807 20.5 20.5 19.3807 20.5 18L20.5 6C20.5 4.61929 19.3807 3.5 18 3.5ZM6 2C3.79086 2 2 3.79086 2 6L2 18C2 20.2091 3.79086 22 6 22L18 22C20.2091 22 22 20.2091 22 18L22 6C22 3.79086 20.2091 2 18 2L6 2Z" fill="currentColor"/>
<path fill-rule="evenodd" clip-rule="evenodd" d="M17.8334 7.83337L6.16669 7.83337L6.16669 6.33337L17.8334 6.33337L17.8334 7.83337Z" fill="currentColor"/>
<path fill-rule="evenodd" clip-rule="evenodd" d="M15.8334 12.6666L8.16669 12.6666C7.89054 12.6666 7.66669 12.8905 7.66669 13.1666L7.66669 15.8333C7.66669 16.1094 7.89054 16.3333 8.16669 16.3333L15.8334 16.3333C16.1095 16.3333 16.3334 16.1094 16.3334 15.8333L16.3334 13.1666C16.3334 12.8905 16.1095 12.6666 15.8334 12.6666ZM8.16669 11.1666C7.06212 11.1666 6.16669 12.0621 6.16669 13.1666L6.16669 15.8333C6.16669 16.9379 7.06212 17.8333 8.16669 17.8333L15.8334 17.8333C16.9379 17.8333 17.8334 16.9379 17.8334 15.8333L17.8334 13.1666C17.8334 12.0621 16.9379 11.1666 15.8334 11.1666L8.16669 11.1666Z" fill="currentColor"/>
</svg>
