<svg width="24" height="24" viewBox="0 0 24 24" fill="none" xmlns="http://www.w3.org/2000/svg">
<path fill-rule="evenodd" clip-rule="evenodd" d="M18 3.5L6 3.5C4.61929 3.5 3.5 4.61929 3.5 6L3.5 18C3.5 19.3807 4.61929 20.5 6 20.5L18 20.5C19.3807 20.5 20.5 19.3807 20.5 18L20.5 6C20.5 4.61929 19.3807 3.5 18 3.5ZM6 2C3.79086 2 2 3.79086 2 6L2 18C2 20.2091 3.79086 22 6 22L18 22C20.2091 22 22 20.2091 22 18L22 6C22 3.79086 20.2091 2 18 2L6 2Z" fill="currentColor"/>
<path fill-rule="evenodd" clip-rule="evenodd" d="M15.8334 7.66663L8.16669 7.66663C7.89054 7.66663 7.66669 7.89048 7.66669 8.16663L7.66669 9.16663C7.66669 9.44277 7.89054 9.66663 8.16669 9.66663L15.8334 9.66663C16.1095 9.66663 16.3334 9.44277 16.3334 9.16663V8.16663C16.3334 7.89049 16.1095 7.66663 15.8334 7.66663ZM8.16669 6.16663C7.06212 6.16663 6.16669 7.06206 6.16669 8.16663L6.16669 9.16663C6.16669 10.2712 7.06212 11.1666 8.16669 11.1666L15.8334 11.1666C16.9379 11.1666 17.8334 10.2712 17.8334 9.16663V8.16663C17.8334 7.06206 16.9379 6.16663 15.8334 6.16663L8.16669 6.16663Z" fill="currentColor"/>
</svg>
