<svg width="24" height="24" viewBox="0 0 24 24" fill="none" xmlns="http://www.w3.org/2000/svg">
<path fill-rule="evenodd" clip-rule="evenodd" d="M18 3.5L6 3.5C4.61929 3.5 3.5 4.61929 3.5 6L3.5 18C3.5 19.3807 4.61929 20.5 6 20.5L18 20.5C19.3807 20.5 20.5 19.3807 20.5 18L20.5 6C20.5 4.61929 19.3807 3.5 18 3.5ZM6 2C3.79086 2 2 3.79086 2 6L2 18C2 20.2091 3.79086 22 6 22L18 22C20.2091 22 22 20.2091 22 18L22 6C22 3.79086 20.2091 2 18 2L6 2Z" fill="currentColor"/>
<path fill-rule="evenodd" clip-rule="evenodd" d="M6.16669 17L6.16669 6.16663L7.66669 6.16663L7.66669 17L6.16669 17Z" fill="currentColor"/>
<path fill-rule="evenodd" clip-rule="evenodd" d="M11.1667 17L11.1667 6.16663L12.6667 6.16663L12.6667 17H11.1667Z" fill="currentColor"/>
<path fill-rule="evenodd" clip-rule="evenodd" d="M16.1667 17L16.1667 6.16663L17.6667 6.16663L17.6667 17L16.1667 17Z" fill="currentColor"/>
</svg>
