<svg width="24" height="24" viewBox="0 0 24 24" fill="none" xmlns="http://www.w3.org/2000/svg">
<path d="M9 5C7.89543 5 7 5.89543 7 7L7 17C7 18.1046 7.89543 19 9 19L15 19C16.1046 19 17 18.1046 17 17L17 9.41421C17 9.01639 16.842 8.63486 16.5607 8.35355L13.6464 5.43934C13.3651 5.15804 12.9836 5 12.5858 5L9 5ZM8 7C8 6.44772 8.44772 6 9 6L12 6L12 8.5C12 9.32843 12.6716 10 13.5 10L16 10L16 17C16 17.5523 15.5523 18 15 18L9 18C8.44772 18 8 17.5523 8 17L8 7ZM15.7929 9L13.5 9C13.2239 9 13 8.77614 13 8.5L13 6.20711L15.7929 9Z" fill="currentColor"/>
</svg>
