<svg xmlns="http://www.w3.org/2000/svg" width="24" height="24" viewBox="0 0 24 24">
  <g transform="translate(-405 -243)"> 
    <path d="M3.375,13A2.708,2.708,0,0,1,.667,10.292V3.208A2.708,2.708,0,0,1,3.375.5h11.25a2.708,2.708,0,0,1,2.708,2.708v7.083A2.708,2.708,0,0,1,14.625,13H9.844L5.666,16.126A1.042,1.042,0,0,1,4,15.292V13Zm6.053-1.25h5.2a1.458,1.458,0,0,0,1.458-1.458V3.208A1.458,1.458,0,0,0,14.625,1.75H3.375A1.458,1.458,0,0,0,1.917,3.208v7.083A1.458,1.458,0,0,0,3.375,11.75H5.249v3.125Z" transform="translate(408.333 247.5)" fill="currentColor"/>
  </g>
</svg>
