<svg width="16" height="16" viewBox="0 0 16 16" fill="none" xmlns="http://www.w3.org/2000/svg">
<path fill-rule="evenodd" clip-rule="evenodd" d="M10.1219 1.93725C10.1506 1.64976 9.97859 1.38003 9.70578 1.28491C9.43296 1.18978 9.1305 1.29405 8.97426 1.53709L4.47426 8.53709C4.35063 8.72941 4.34187 8.97388 4.45143 9.17455C4.56099 9.37523 4.77137 9.50006 5 9.50006H6.30938L5.8781 13.8129C5.84935 14.1004 6.02141 14.3701 6.29422 14.4652C6.56704 14.5603 6.8695 14.4561 7.02574 14.213L11.5257 7.21303C11.6494 7.02072 11.6581 6.77624 11.5486 6.57557C11.439 6.3749 11.2286 6.25006 11 6.25006H9.69062L10.1219 1.93725ZM7 8.25006H6.14479L8.61931 4.40081L8.3781 6.81287C8.36053 6.98858 8.41811 7.16351 8.53659 7.29444C8.65508 7.42537 8.82342 7.50006 9 7.50006H9.85521L7.38069 11.3493L7.6219 8.93725C7.63947 8.76155 7.58189 8.58661 7.46341 8.45568C7.34492 8.32476 7.17658 8.25006 7 8.25006Z" fill="#424242"/>
<path d="M6.44535 2.85888C6.84104 2.7364 7.06253 2.31634 6.94005 1.92065C6.81757 1.52495 6.39751 1.30347 6.00182 1.42595C3.25022 2.27764 1.25 4.8418 1.25 7.87508C1.25 9.91423 2.15513 11.7428 3.58298 12.9794C3.89609 13.2505 4.36975 13.2165 4.64092 12.9034C4.91208 12.5903 4.87808 12.1166 4.56496 11.8455C3.4521 10.8817 2.75 9.46081 2.75 7.87508C2.75 5.51786 4.30408 3.52166 6.44535 2.85888Z" fill="#424242"/>
<path d="M12.585 2.9212C12.281 2.63978 11.8065 2.65804 11.5251 2.96197C11.2437 3.2659 11.2619 3.74043 11.5659 4.02185C12.6026 4.98182 13.25 6.35228 13.25 7.87508C13.25 10.1706 11.7763 12.1239 9.72112 12.8367C9.32977 12.9724 9.12256 13.3997 9.25829 13.791C9.39402 14.1824 9.8213 14.3896 10.2126 14.2539C12.8528 13.3382 14.75 10.8291 14.75 7.87508C14.75 5.91723 13.9155 4.15316 12.585 2.9212Z" fill="#424242"/>
</svg>
