<svg xmlns="http://www.w3.org/2000/svg" width="24" height="24" viewBox="0 0 24 24">
  <g transform="translate(-67 -178)"> 
    <g transform="translate(70.334 181.125)">
      <path d="M10.871.909a.625.625,0,0,1,.416.668l-.746,5.964h1.792a.625.625,0,0,1,.536.947l-5,8.333a.625.625,0,0,1-1.156-.4l.746-5.964H5.667a.625.625,0,0,1-.536-.947l5-8.333A.625.625,0,0,1,10.871.909Zm-4.1,8.3h1.4a.625.625,0,0,1,.62.7L8.321,13.64l2.909-4.848h-1.4a.625.625,0,0,1-.62-.7l.466-3.729Z" fill-rule="evenodd" fill="currentColor"/>
      <path d="M7.044.9A8.334,8.334,0,0,0,4.391,15.943l.241-1.367A7.085,7.085,0,0,1,6.8,2.265Z" fill="currentColor"/>
      <path d="M11.2,15.736A7.085,7.085,0,0,0,13.368,3.424l.241-1.367A8.335,8.335,0,0,1,10.956,17.1Z" fill="currentColor"/>
    </g>
  </g>
</svg>
