<svg width="24" height="24" viewBox="0 0 24 24" fill="none" xmlns="http://www.w3.org/2000/svg">
<path d="M11.5043 18.3321L12.9603 16.9975L11.227 16.541L12.2727 15.8304L11.7643 15.6975C11.7643 15.6975 11.2501 15.8939 10.6839 17.4943C9.7595 20.0885 6.63962 22.1568 5.69788 22.1568H5.65166H5.513L5.57078 23.0928L6.78406 22.2839L7.7778 23.4394L8.39022 22.2839L8.96798 23.9825L10.1235 22.2897L10.8341 22.3879L11.1461 21.4808L12.5905 21.5444L11.7065 20.1058L12.966 19.4645L11.5043 18.3321Z" fill="currentColor"/>
<path d="M14.0466 18.3321L12.5907 16.9975L14.3239 16.541L13.2782 15.8304L13.7924 15.6975C13.7924 15.6975 14.3008 15.8939 14.8728 17.4943C15.7972 20.0885 18.9171 22.1568 19.8588 22.1568H19.9051H20.038L19.9802 23.1101L18.7669 22.3013L17.7731 23.4568L17.1954 22.3013L16.6176 23.9999L15.4621 22.307L14.7457 22.4053L14.4395 21.4982L12.9951 21.5617L13.8386 20.1058L12.5849 19.4645L14.0466 18.3321Z" fill="currentColor"/>
<path fill-rule="evenodd" clip-rule="evenodd" d="M19.6334 11.1507C19.8361 11.3278 20.0062 11.539 20.1361 11.7747C20.1361 11.7747 20.7485 12.8031 19.9454 19.9095C19.942 20.0199 19.9098 20.1276 19.8521 20.2218C19.7943 20.316 19.713 20.3936 19.6161 20.4468C19.5217 20.4937 19.4202 20.5249 19.3157 20.5392H19.2117H19.0961H19.0615H19.0153H18.969H18.917H18.8708H18.813H18.761H18.6975H18.6397L18.5762 20.5103L18.5126 20.4757L18.4433 20.441L18.3797 20.4063L18.3046 20.3659L18.2353 20.3254L18.1602 20.2792L18.0851 20.2388L18.0042 20.1868L17.9291 20.1406L17.8482 20.0886L17.7731 20.0366L17.6864 19.9788L17.6113 19.921L17.5246 19.8632L17.4438 19.8055L17.3571 19.7361L17.2762 19.6726L17.1838 19.6033L17.1029 19.5397L17.0162 19.4646L16.9353 19.3953L16.8487 19.3202L16.762 19.245L16.6753 19.1699L16.5945 19.0948L16.5078 19.0082L16.4269 18.9273L16.3402 18.8406L16.2594 18.7597L16.1785 18.6673L16.0976 18.5864L16.0167 18.494L15.9416 18.4073C15.9316 18.3953 15.9224 18.38 15.9133 18.3649C15.8961 18.3364 15.8796 18.3091 15.8607 18.3091L15.7914 18.2224L15.7105 18.1184L15.6412 18.026L15.566 17.922C15.5416 17.8935 15.5203 17.8625 15.5025 17.8295C15.4742 17.7953 15.449 17.7586 15.4274 17.7198L15.3638 17.6331L15.2945 17.5176L15.2425 17.4251L15.1732 17.3096L15.1212 17.2113L15.0634 17.09C15.0446 17.061 15.0291 17.03 15.0172 16.9976C14.9925 16.951 14.9713 16.9028 14.9536 16.8531L14.919 16.778L14.8323 16.5585C14.8231 16.5345 14.8115 16.5105 14.8 16.4867C14.7755 16.436 14.7514 16.3861 14.7514 16.3389C14.7538 16.3178 14.7538 16.2965 14.7514 16.2754L14.6994 16.1367C14.6882 16.1123 14.6786 16.0872 14.6705 16.0616L14.6185 15.9461C14.6218 15.9211 14.6218 15.8959 14.6185 15.871C14.6127 15.8573 14.6055 15.8443 14.5986 15.8317C14.585 15.8071 14.5723 15.7841 14.5723 15.7612L14.5434 15.6918L14.4972 15.5936L14.4683 15.5301L14.4221 15.4376C14.416 15.4168 14.4063 15.3972 14.3932 15.3799C14.3884 15.3654 14.3805 15.3519 14.373 15.339C14.3626 15.3211 14.3528 15.3042 14.3528 15.2874C14.341 15.2714 14.3313 15.2539 14.3239 15.2354C14.2777 15.2065 14.2777 15.1545 14.2777 15.1545C14.2702 15.1361 14.2605 15.1186 14.2488 15.1025C14.2375 15.0763 14.224 15.0512 14.2083 15.0274C14.1968 15.0101 14.139 14.9119 14.139 14.9119C14.1188 14.8735 14.0956 14.8368 14.0697 14.8021C14.0686 14.7886 14.0686 14.7751 14.0697 14.7617L14.0292 14.7039V14.6692C14.0138 14.6514 14.0003 14.632 13.9888 14.6114L13.9599 14.5826L13.9252 14.5306V14.5017L13.8848 14.4554L13.8443 14.4092L13.8039 14.3688L13.7634 14.3341L13.7288 14.3052L13.6941 14.2763H13.6595H13.6306H13.5959H13.5612H13.5266H13.4977H13.4688L13.3417 14.2301C13.2072 14.1887 13.0702 14.1559 12.9315 14.1319L12.6599 14.103H12.3768H12.088L11.8106 14.1319C11.6738 14.1558 11.5387 14.1886 11.4062 14.2301L11.3022 14.2648H11.2675H11.2387H11.204H11.1751H11.1462H11.1115H11.0769L11.0422 14.2937L11.0076 14.3226L10.9729 14.3572L10.9382 14.3977L10.9036 14.4439L10.8631 14.4901V14.519L10.8227 14.571V14.5999L10.7822 14.6577V14.6923C10.7654 14.7112 10.7518 14.7327 10.7418 14.7559L10.7129 14.7905L10.6725 14.8599C10.6695 14.8732 10.6695 14.887 10.6725 14.9003L10.5569 15.091C10.5495 15.1095 10.5398 15.1269 10.528 15.143C10.5244 15.1503 10.519 15.1582 10.5133 15.1665C10.5011 15.1844 10.4876 15.2041 10.4876 15.2239L10.4587 15.2759L10.4125 15.3683L10.3836 15.4261L10.3431 15.5185L10.3085 15.5821C10.3038 15.596 10.2964 15.6099 10.2891 15.6235C10.2784 15.6437 10.268 15.663 10.268 15.6803L10.2334 15.7496C10.2204 15.7872 10.205 15.8239 10.1871 15.8594C10.18 15.8835 10.1703 15.9067 10.1583 15.9287L10.112 16.0501C10.1009 16.0745 10.0912 16.0996 10.0831 16.1252L10.0254 16.2696C10.0286 16.2887 10.0286 16.3083 10.0254 16.3274C10.0176 16.3506 10.0066 16.3745 9.99543 16.3988C9.97324 16.4471 9.95026 16.497 9.95026 16.5469L9.8636 16.7665L9.82893 16.8474L9.76538 16.986C9.76129 16.9928 9.75657 17 9.75173 17.0073C9.73604 17.0309 9.71916 17.0564 9.71916 17.0785C9.70025 17.1201 9.67904 17.1606 9.65561 17.1998C9.60939 17.2345 9.60939 17.2633 9.60939 17.2922L9.54005 17.4136L9.48806 17.5002C9.46095 17.5393 9.43588 17.5798 9.41295 17.6215L9.35517 17.7082C9.34602 17.7242 9.33232 17.7394 9.31913 17.7539C9.29902 17.7761 9.28006 17.7971 9.28006 17.818L9.21651 17.9104L9.15296 18.1762C9.13117 18.2095 9.106 18.2405 9.07785 18.2686L9.00274 18.3726L8.92763 18.4593L8.85253 18.5575L8.77164 18.6442L8.69075 18.7366L8.60987 18.8233L8.52898 18.9099L8.4481 18.9966L8.36721 19.0775L8.28055 19.1584L8.19966 19.2393L8.113 19.3202L8.02634 19.3953L7.93967 19.4761L7.85879 19.5455L7.77212 19.6206L7.68546 19.6899L7.5988 19.7592L7.51791 19.8228L7.43125 19.8921L7.35036 19.9499L7.2637 20.0192L7.18281 20.0712L7.09615 20.1348L7.02104 20.1868L6.93438 20.2446L6.86505 20.2908L6.77838 20.3428L6.70905 20.389L6.62817 20.4352L6.55884 20.4757L6.48373 20.5161L6.4144 20.5565L6.34507 20.5912L6.28151 20.6259L6.21218 20.6605L6.15441 20.6894H6.09085H6.03308H5.9753H5.9233H5.87131H5.81931H5.77886H5.73264H5.6922H5.57665H5.47265H5.40332C5.32249 20.6749 5.24448 20.6476 5.17222 20.6085L5.09134 20.5565C5.01681 20.4989 4.95592 20.4255 4.91298 20.3416C4.87004 20.2577 4.84611 20.1654 4.8429 20.0712C4.79668 12.8031 5.42066 11.7747 5.42066 11.7747C5.5506 11.539 5.7207 11.3278 5.9233 11.1507L7.51791 9.67163C7.69277 9.48579 7.79702 9.24458 7.81257 8.98988V8.23302C7.8118 8.18018 7.82155 8.12772 7.84124 8.07869C7.86093 8.02965 7.89017 7.98502 7.92727 7.94739C7.96436 7.90976 8.00857 7.87987 8.05731 7.85948C8.10606 7.83908 8.15838 7.82858 8.21122 7.82859H8.30366V6.18199C8.30365 6.07572 8.34546 5.97372 8.42006 5.89804C8.49466 5.82235 8.59605 5.77908 8.70231 5.77756H8.7312L8.88719 0.404429C8.88719 0.297168 8.9298 0.1943 9.00565 0.118454C9.08149 0.0426093 9.18436 0 9.29162 0H16.2651C16.3724 0 16.4753 0.0426093 16.5511 0.118454C16.627 0.1943 16.6696 0.297168 16.6696 0.404429L16.8429 5.75445C16.9501 5.75445 17.053 5.79706 17.1289 5.8729C17.2047 5.94875 17.2473 6.05162 17.2473 6.15888V7.80548H17.3455C17.4528 7.80548 17.5557 7.84809 17.6315 7.92393C17.7074 7.99978 17.75 8.10265 17.75 8.20991V8.96677C17.7655 9.22147 17.8698 9.46268 18.0446 9.64852L19.6334 11.1507ZM10.1003 7.49356H15.3001V8.07131H10.1003V7.49356Z" fill="currentColor"/>
</svg>
