<svg width="24" height="24" viewBox="0 0 24 24" fill="none" xmlns="http://www.w3.org/2000/svg">
<path d="M15.9311 5.99092L18.0161 8.08321L15.9311 5.99092ZM17.275 4.13549L11.6134 9.79061C11.3214 10.0818 11.122 10.4526 11.0402 10.8565L10.5165 13.4718L13.135 12.9488C13.538 12.8633 13.9081 12.6648 14.202 12.3764L19.8637 6.72124C20.207 6.37835 20.3999 5.91329 20.3999 5.42836C20.3999 4.94344 20.207 4.47838 19.8637 4.13549C19.5204 3.79259 19.055 3.59998 18.5695 3.59998C18.084 3.59998 17.6183 3.79259 17.275 4.13549V4.13549Z" stroke="currentColor" stroke-width="1.5" stroke-linecap="round" stroke-linejoin="round"/>
<path d="M18.4212 15.4653V18.4261C18.4212 18.9496 18.2131 19.4516 17.8424 19.8218C17.4718 20.192 16.9691 20.3999 16.445 20.3999H5.57613C5.05202 20.3999 4.54953 20.192 4.17893 19.8218C3.80833 19.4516 3.59998 18.9496 3.59998 18.4261V7.56981C3.59998 7.04631 3.80833 6.54425 4.17893 6.17408C4.54953 5.80391 5.05202 5.59595 5.57613 5.59595H8.54037" stroke="currentColor" stroke-width="1.5" stroke-linecap="round" stroke-linejoin="round"/>
</svg>
