<svg xmlns="http://www.w3.org/2000/svg" viewBox="0 0 30 30">
    <path class="cls-2" d="M24.63,9.5H21.81a3.44,3.44,0,0,0-6.74,0H5.38v1.38h9.69a3.44,3.44,0,0,0,6.74,0h2.82Zm-6.19,2.75a2,2,0,0,1-2.06-2,.09.09,0,0,1,0-.07,2,2,0,0,1,2-2.06.11.11,0,0,1,.08,0,2,2,0,0,1,2.06,2v.08a2,2,0,0,1-2,2.06Z" transform="translate(0 0)"/>
    <path class="cls-2" d="M5.38,20.5H8.19a3.44,3.44,0,0,0,6.74,0h9.7V19.13h-9.7a3.44,3.44,0,0,0-6.74,0H5.38Zm6.18-2.75a2,2,0,0,1,2.07,2v.07a2,2,0,0,1-2,2.07h-.08a2,2,0,0,1-2.06-2v-.08a2,2,0,0,1,2-2.06Z" transform="translate(0 0)"/>
</svg>