<svg width="24" height="24" viewBox="0 0 24 24" fill="none" xmlns="http://www.w3.org/2000/svg">
<path fill-rule="evenodd" clip-rule="evenodd" d="M13.9 3.59995C13.9 3.10289 14.3029 2.69995 14.8 2.69995H20.4C20.897 2.69995 21.3 3.10289 21.3 3.59995V9.19995C21.3 9.69701 20.897 10.1 20.4 10.1C19.9029 10.1 19.5 9.69701 19.5 9.19995V5.77275L14.966 10.3068C14.6145 10.6582 14.0447 10.6582 13.6932 10.3068C13.3417 9.95529 13.3417 9.38544 13.6932 9.03397L18.2272 4.49995H14.8C14.3029 4.49995 13.9 4.09701 13.9 3.59995ZM10.3067 13.6931C10.6582 14.0446 10.6582 14.6145 10.3067 14.9659L5.77274 19.5H9.19995C9.69701 19.5 10.1 19.9029 10.1 20.4C10.1 20.897 9.69701 21.3 9.19995 21.3H3.59995C3.10289 21.3 2.69995 20.897 2.69995 20.4V14.8C2.69995 14.3029 3.10289 13.9 3.59995 13.9C4.09701 13.9 4.49995 14.3029 4.49995 14.8V18.2271L9.03394 13.6931C9.38541 13.3417 9.95525 13.3417 10.3067 13.6931Z" fill="currentColor"/>
</svg>
