<svg xmlns="http://www.w3.org/2000/svg" width="24" height="24" viewBox="0 0 24 24">
  <g   transform="translate(-243 -217)">
 
    <path id="Shape" d="M8.623.5h6.295L15,.514l.082.023.051.022a.6.6,0,0,1,.182.125l.034.037L15.4.788l.031.054.032.075.016.053.011.053L15.5,1.1V7.38a.625.625,0,0,1-1.244.085l-.006-.085V2.634L2.632,14.255H7.374a.625.625,0,0,1,.619.54L8,14.88a.625.625,0,0,1-.54.619l-.085.006H1.094l-.024,0a.589.589,0,0,1-.157-.033l-.075-.032-.014-.009a.622.622,0,0,1-.32-.461L.5,14.88V8.627a.625.625,0,0,1,1.244-.085l.006.085V13.37L13.365,1.751H8.623A.625.625,0,0,1,8,1.212L8,1.127a.625.625,0,0,1,.54-.619Z" transform="translate(246.502 220.498)" fill="currentColor"/>
  </g>
</svg>
