<svg width="32" height="32" viewBox="0 0 32 32" fill="none" xmlns="http://www.w3.org/2000/svg">
<path fill-rule="evenodd" clip-rule="evenodd" d="M10.4418 9.55806C10.1977 9.31398 9.80195 9.31398 9.55788 9.55806C9.3138 9.80214 9.3138 10.1979 9.55788 10.4419L21.5579 22.4419C21.802 22.686 22.1977 22.686 22.4418 22.4419C22.6858 22.1979 22.6858 21.8021 22.4418 21.5581L10.4418 9.55806ZM10.7721 13.0097C9.915 13.8341 9.31935 14.8625 9.09668 15.9993C9.65177 18.8374 12.5313 21 16 21C16.8434 21 17.652 20.8721 18.4008 20.6378C18.3942 20.6316 18.3876 20.6252 18.3811 20.6187L17.1628 19.4005C16.7918 19.4654 16.4033 19.5 16 19.5C13.2371 19.5 11.1677 17.8755 10.6376 15.9995C10.8361 15.2979 11.2498 14.6315 11.8346 14.0722L10.7721 13.0097ZM20.1651 17.9279C20.7499 17.3685 21.1637 16.7021 21.3622 16.0005C20.8321 14.1245 18.7627 12.5 15.9998 12.5C15.5965 12.5 15.2079 12.5346 14.8368 12.5996L13.5993 11.3621C14.348 11.1278 15.1565 11 15.9998 11C19.4685 11 22.348 13.1626 22.9031 16.0007C22.6804 17.1376 22.0848 18.166 21.2276 18.9904L20.1651 17.9279ZM13.2902 15.5278C13.2637 15.6812 13.2498 15.839 13.2498 16C13.2498 17.5188 14.481 18.75 15.9998 18.75C16.1608 18.75 16.3186 18.7362 16.472 18.7096L13.2902 15.5278ZM18.7094 16.4722C18.736 16.3188 18.7498 16.161 18.7498 16C18.7498 14.4812 17.5186 13.25 15.9998 13.25C15.8388 13.25 15.681 13.2638 15.5276 13.2904L18.7094 16.4722Z" fill="currentColor"/>
<rect x="1" y="1" width="30" height="30" rx="15" stroke="currentColor" stroke-width="2"/>
</svg>
