<svg width="24" height="24" viewBox="0 0 24 24" fill="none" xmlns="http://www.w3.org/2000/svg">
<path fill-rule="evenodd" clip-rule="evenodd" d="M15.981 10.9553L9.34806 17.5884L7.07513 17.7816L7.26827 15.5088L13.9014 8.87559L15.981 10.9553ZM17.0417 9.89459L19.0565 7.87973L16.9768 5.8001L14.962 7.81492L17.0417 9.89459ZM16.3028 4.35279C16.6755 3.98006 17.279 3.98006 17.6508 4.35279L20.5038 7.20574C20.8766 7.57848 20.8766 8.18191 20.5038 8.55369L10.2638 18.7939C10.0856 18.9731 9.84246 19.0732 9.58983 19.0732L6.02066 19.3766C5.71191 19.4029 5.45387 19.1448 5.48011 18.8361L5.78342 15.267C5.78342 15.0144 5.88352 14.7713 6.06275 14.593L16.3028 4.35279Z" fill="currentColor"/>
</svg>
