<svg width="24" height="24" viewBox="0 0 24 24" fill="none" xmlns="http://www.w3.org/2000/svg">
<path d="M8.28033 7.21967C7.98744 6.92678 7.51256 6.92678 7.21967 7.21967C6.92678 7.51256 6.92678 7.98744 7.21967 8.28033L10.7552 11.8159L7.21967 15.3514C6.92678 15.6443 6.92678 16.1192 7.21967 16.4121C7.51256 16.705 7.98744 16.705 8.28033 16.4121L11.8159 12.8765L15.3514 16.4121C15.6443 16.705 16.1192 16.705 16.4121 16.4121C16.705 16.1192 16.705 15.6443 16.4121 15.3514L12.8765 11.8159L16.4121 8.28033C16.705 7.98744 16.705 7.51256 16.4121 7.21967C16.1192 6.92678 15.6443 6.92678 15.3514 7.21967L11.8159 10.7552L8.28033 7.21967Z" fill="currentColor"/>
</svg>
