<svg width="24" height="24" viewBox="0 0 24 24" fill="none" xmlns="http://www.w3.org/2000/svg">
<path fill-rule="evenodd" clip-rule="evenodd" d="M2.25 4C2.25 3.0335 3.0335 2.25 4 2.25H12C12.9665 2.25 13.75 3.0335 13.75 4V6C13.75 6.9665 12.9665 7.75 12 7.75H4C3.0335 7.75 2.25 6.9665 2.25 6V4ZM4 3.75C3.86193 3.75 3.75 3.86193 3.75 4V6C3.75 6.13807 3.86193 6.25 4 6.25H12C12.1381 6.25 12.25 6.13807 12.25 6V4C12.25 3.86193 12.1381 3.75 12 3.75H4Z" fill="currentColor"/>
<path fill-rule="evenodd" clip-rule="evenodd" d="M2.25 18C2.25 17.0335 3.0335 16.25 4 16.25H12C12.9665 16.25 13.75 17.0335 13.75 18V20C13.75 20.9665 12.9665 21.75 12 21.75H4C3.0335 21.75 2.25 20.9665 2.25 20V18ZM4 17.75C3.86193 17.75 3.75 17.8619 3.75 18V20C3.75 20.1381 3.86193 20.25 4 20.25H12C12.1381 20.25 12.25 20.1381 12.25 20V18C12.25 17.8619 12.1381 17.75 12 17.75H4Z" fill="currentColor"/>
<path fill-rule="evenodd" clip-rule="evenodd" d="M2.25 11C2.25 10.0335 3.0335 9.25 4 9.25H12C12.9665 9.25 13.75 10.0335 13.75 11V13C13.75 13.9665 12.9665 14.75 12 14.75H4C3.0335 14.75 2.25 13.9665 2.25 13V11ZM4 10.75C3.86193 10.75 3.75 10.8619 3.75 11V13C3.75 13.1381 3.86193 13.25 4 13.25H12C12.1381 13.25 12.25 13.1381 12.25 13V11C12.25 10.8619 12.1381 10.75 12 10.75H4Z" fill="currentColor"/>
<path d="M19.4697 21.0303C19.7626 21.3232 20.2374 21.3232 20.5303 21.0303C20.8232 20.7374 20.8232 20.2626 20.5303 19.9697L19.5607 19L20.5303 18.0303C20.8232 17.7374 20.8232 17.2626 20.5303 16.9697C20.2374 16.6768 19.7626 16.6768 19.4697 16.9697L18.5 17.9393L17.5303 16.9697C17.2374 16.6768 16.7626 16.6768 16.4697 16.9697C16.1768 17.2626 16.1768 17.7374 16.4697 18.0303L17.4393 19L16.4697 19.9697C16.1768 20.2626 16.1768 20.7374 16.4697 21.0303C16.7626 21.3232 17.2374 21.3232 17.5303 21.0303L18.5 20.0607L19.4697 21.0303Z" fill="currentColor"/>
<path fill-rule="evenodd" clip-rule="evenodd" d="M21.5322 10.4697C21.8251 10.7626 21.8251 11.2374 21.5322 11.5303L19.2381 13.8245C18.5546 14.5079 17.4466 14.5079 16.7632 13.8245L15.9697 13.031C15.6768 12.7381 15.6768 12.2632 15.9697 11.9703C16.2626 11.6774 16.7374 11.6774 17.0303 11.9703L17.8238 12.7638C17.9215 12.8614 18.0798 12.8614 18.1774 12.7638L20.4715 10.4697C20.7644 10.1768 21.2393 10.1768 21.5322 10.4697Z" fill="currentColor"/>
<path fill-rule="evenodd" clip-rule="evenodd" d="M21.5322 3.46967C21.8251 3.76256 21.8251 4.23744 21.5322 4.53033L19.2381 6.82447C18.5546 7.50789 17.4466 7.50789 16.7632 6.82447L15.9697 6.03096C15.6768 5.73806 15.6768 5.26319 15.9697 4.97029C16.2626 4.6774 16.7374 4.6774 17.0303 4.97029L17.8238 5.76381C17.9215 5.86144 18.0798 5.86144 18.1774 5.76381L20.4715 3.46967C20.7644 3.17678 21.2393 3.17678 21.5322 3.46967Z" fill="currentColor"/>
</svg>
