<svg width="24" height="24" viewBox="0 0 24 24" fill="none" xmlns="http://www.w3.org/2000/svg">
<path fill-rule="evenodd" clip-rule="evenodd" d="M14.9033 7.62437C12.8644 6.26793 10.0855 6.48981 8.28769 8.28762C6.23744 10.3379 6.23744 13.662 8.28769 15.7122C10.3379 17.7625 13.662 17.7625 15.7123 15.7122C16.8167 14.6078 17.3264 13.1349 17.2408 11.6878C17.2163 11.2743 17.5317 10.9192 17.9452 10.8948C18.3587 10.8703 18.7137 11.1857 18.7381 11.5992C18.848 13.4561 18.1931 15.3528 16.773 16.7729C14.1369 19.4089 9.86306 19.4089 7.22703 16.7729C4.59099 14.1369 4.59099 9.86299 7.22703 7.22696C9.5399 4.91409 13.112 4.63107 15.7341 6.3755C16.079 6.60493 16.1726 7.07049 15.9432 7.41536C15.7137 7.76022 15.2482 7.8538 14.9033 7.62437Z" fill="currentColor"/>
<path fill-rule="evenodd" clip-rule="evenodd" d="M18.9419 7.05799C19.186 7.30207 19.186 7.6978 18.9419 7.94187L12.4419 14.4419C12.1979 14.686 11.8021 14.686 11.5581 14.4419L8.55806 11.4419C8.31398 11.1978 8.31398 10.8021 8.55806 10.558C8.80214 10.3139 9.19786 10.3139 9.44194 10.558L12 13.116L18.0581 7.05799C18.3021 6.81391 18.6979 6.81391 18.9419 7.05799Z" fill="currentColor"/>
</svg>
