<svg width="24" height="24" viewBox="0 0 24 24" fill="none" xmlns="http://www.w3.org/2000/svg">
<path d="M6.38767 8.62535C5.55829 9.50347 4.91158 10.6283 4.5498 11.9999C5.87004 17.0053 10.9851 18.7239 14.9244 17.1621L13.7411 15.9788C10.7775 16.8125 7.24722 15.4813 6.11279 11.9999C6.41203 11.0815 6.87798 10.3128 7.45626 9.69394L6.38767 8.62535Z" fill="currentColor"/>
<path d="M9.23545 11.4731C9.20238 11.6436 9.18506 11.8197 9.18506 11.9999C9.18506 13.5186 10.4163 14.7499 11.9351 14.7499C12.1152 14.7499 12.2913 14.7325 12.4618 14.6995L9.23545 11.4731Z" fill="currentColor"/>
<path d="M14.6537 12.4165L11.5184 9.28122C11.6543 9.26057 11.7934 9.24986 11.9351 9.24986C13.4538 9.24986 14.6851 10.4811 14.6851 11.9999C14.6851 12.1415 14.6744 12.2806 14.6537 12.4165Z" fill="currentColor"/>
<path d="M16.5304 14.2932C17.1044 13.6769 17.5686 12.9126 17.8702 11.9999C16.72 8.51878 13.2042 7.19536 10.2523 8.01508L9.06397 6.82678C12.9942 5.28282 18.0983 7.00936 19.4351 11.9999C19.0698 13.3634 18.4234 14.4832 17.5965 15.3593L16.5304 14.2932Z" fill="currentColor"/>
<path fill-rule="evenodd" clip-rule="evenodd" d="M5.55781 5.55806C5.80189 5.31398 6.19762 5.31398 6.4417 5.55806L18.4417 17.5581C18.6858 17.8021 18.6858 18.1979 18.4417 18.4419C18.1976 18.686 17.8019 18.686 17.5578 18.4419L5.55781 6.44194C5.31374 6.19786 5.31374 5.80214 5.55781 5.55806Z" fill="currentColor"/>
</svg>
