<svg width="16" height="16" viewBox="0 0 16 16" fill="none" xmlns="http://www.w3.org/2000/svg">
<path d="M7.5 3.375C7.15482 3.375 6.875 3.09518 6.875 2.75C6.875 2.40482 7.15482 2.125 7.5 2.125H8.5C8.84518 2.125 9.125 2.40482 9.125 2.75C9.125 3.09518 8.84518 3.375 8.5 3.375H7.5Z" fill="#424242"/>
<path fill-rule="evenodd" clip-rule="evenodd" d="M10.625 1V3.9899C11.5829 4.41987 12.25 5.38203 12.25 6.5V11C12.25 11.9109 11.8071 12.7183 11.125 13.2188V14C11.125 14.8975 10.3975 15.625 9.5 15.625H6.5C5.60254 15.625 4.875 14.8975 4.875 14V13.2188C4.19285 12.7183 3.75 11.9109 3.75 11V6.5C3.75 5.38203 4.41712 4.41987 5.375 3.9899V1C5.375 0.654822 5.65482 0.375 6 0.375H10C10.3452 0.375 10.625 0.654822 10.625 1ZM9.375 3.75H6.625V1.625H9.375V3.75ZM9.875 13.7246C9.75239 13.7414 9.6272 13.75 9.5 13.75H6.5C6.3728 13.75 6.24761 13.7414 6.125 13.7246V14C6.125 14.2071 6.29289 14.375 6.5 14.375H9.5C9.70711 14.375 9.875 14.2071 9.875 14V13.7246ZM5.25 6.5C5.25 5.80964 5.80964 5.25 6.5 5.25H9.5C10.1904 5.25 10.75 5.80964 10.75 6.5V11C10.75 11.6904 10.1904 12.25 9.5 12.25H6.5C5.80964 12.25 5.25 11.6904 5.25 11V6.5Z" fill="#424242"/>
</svg>
