<svg width="24" height="24" viewBox="0 0 24 24" fill="none" xmlns="http://www.w3.org/2000/svg">
<path d="M9.98747 6.17997C9.71458 6.84269 9.48643 7.62692 9.31842 8.5H14.6816C14.5136 7.62692 14.2854 6.84269 14.0125 6.17997C13.7106 5.44666 13.3637 4.88614 13.0041 4.51675C12.646 4.14894 12.3069 4 12 4C11.6931 4 11.354 4.14894 10.9959 4.51675C10.6363 4.88614 10.2894 5.44666 9.98747 6.17997ZM9.89053 4.28104C9.57693 4.70725 9.30036 5.22224 9.06279 5.79922C8.74205 6.57814 8.48315 7.49258 8.3012 8.5H4.80423C5.80285 6.45074 7.65108 4.89163 9.89053 4.28104ZM14.1095 4.28105C14.4231 4.70725 14.6996 5.22225 14.9372 5.79922C15.2579 6.57814 15.5169 7.49258 15.6988 8.5H19.1958C18.1972 6.45074 16.3489 4.89163 14.1095 4.28105ZM19.6016 9.5H15.85C15.9479 10.2949 16 11.1342 16 12C16 12.8658 15.9479 13.7051 15.85 14.5H19.6016C19.8601 13.7135 20 12.8731 20 12C20 11.1269 19.8601 10.2865 19.6016 9.5ZM19.1958 15.5H15.6988C15.5169 16.5074 15.2579 17.4219 14.9372 18.2008C14.6996 18.7778 14.4231 19.2928 14.1095 19.719C16.3489 19.1084 18.1972 17.5493 19.1958 15.5ZM12 20C12.3069 20 12.646 19.8511 13.0041 19.4832C13.3637 19.1139 13.7106 18.5533 14.0125 17.82C14.2854 17.1573 14.5136 16.3731 14.6816 15.5L9.31842 15.5C9.48643 16.3731 9.71458 17.1573 9.98747 17.82C10.2894 18.5533 10.6363 19.1139 10.9959 19.4832C11.354 19.8511 11.6931 20 12 20ZM9.89053 19.719C7.65107 19.1084 5.80285 17.5493 4.80423 15.5H8.3012C8.48315 16.5074 8.74205 17.4219 9.06279 18.2008C9.30036 18.7778 9.57693 19.2928 9.89053 19.719ZM4.39838 14.5H8.14996C8.0521 13.7051 8 12.8658 8 12C8 11.1342 8.0521 10.2949 8.14996 9.5H4.39838C4.13985 10.2865 4 11.1269 4 12C4 12.8731 4.13985 13.7135 4.39838 14.5ZM9 12C9 11.1253 9.0557 10.2855 9.15793 9.5H14.8421C14.9443 10.2855 15 11.1253 15 12C15 12.8747 14.9443 13.7145 14.8421 14.5L9.15793 14.5C9.0557 13.7145 9 12.8747 9 12Z" fill="currentColor"/>
</svg>
