<svg width="13" height="13" viewBox="0 0 13 13" fill="none" xmlns="http://www.w3.org/2000/svg">
<path d="M11.6582 5.11326C11.4943 4.91647 11.2892 4.75806 11.0574 4.6492C10.8256 4.54035 10.5727 4.4837 10.3166 4.48326H7.65657L7.98324 3.6491C8.11911 3.28386 8.16436 2.89111 8.11511 2.50455C8.06585 2.11798 7.92355 1.74914 7.70043 1.42965C7.4773 1.11016 7.18 0.84956 6.83403 0.670212C6.48807 0.490864 6.10376 0.398118 5.71407 0.399928C5.60186 0.400162 5.4921 0.432756 5.39794 0.4938C5.30379 0.554844 5.22924 0.641749 5.18324 0.744095L3.52074 4.48326H2.1499C1.68577 4.48326 1.24065 4.66764 0.912466 4.99582C0.584277 5.32401 0.399902 5.76913 0.399902 6.23326V10.3166C0.399902 10.7807 0.584277 11.2258 0.912466 11.554C1.24065 11.8822 1.68577 12.0666 2.1499 12.0666H9.57574C9.98512 12.0665 10.3815 11.9228 10.6959 11.6606C11.0103 11.3984 11.2229 11.0343 11.2966 10.6316L12.0374 6.54826C12.0832 6.2959 12.073 6.03655 12.0075 5.78857C11.942 5.5406 11.8227 5.31005 11.6582 5.11326ZM3.31657 10.8999H2.1499C1.99519 10.8999 1.84682 10.8385 1.73742 10.7291C1.62803 10.6197 1.56657 10.4713 1.56657 10.3166V6.23326C1.56657 6.07855 1.62803 5.93018 1.73742 5.82078C1.84682 5.71139 1.99519 5.64993 2.1499 5.64993H3.31657V10.8999ZM10.8999 6.33826L10.1591 10.4216C10.1342 10.5575 10.062 10.6802 9.95513 10.7677C9.84831 10.8553 9.71386 10.9022 9.57574 10.8999H4.48324V5.1891L6.0699 1.6191C6.23323 1.66671 6.38491 1.74767 6.51537 1.85685C6.64583 1.96604 6.75224 2.10108 6.82788 2.25347C6.90353 2.40585 6.94676 2.57226 6.95485 2.74219C6.96294 2.91212 6.93572 3.08188 6.8749 3.24076L6.56574 4.07493C6.49986 4.25124 6.47762 4.44088 6.50091 4.62766C6.52421 4.81443 6.59235 4.99279 6.69951 5.14753C6.80668 5.30226 6.94969 5.42877 7.11635 5.51625C7.283 5.60374 7.46835 5.6496 7.65657 5.64993H10.3166C10.4023 5.64979 10.4869 5.66853 10.5646 5.70483C10.6422 5.74113 10.7109 5.79408 10.7657 5.85993C10.8219 5.92487 10.8631 6.00141 10.8863 6.0841C10.9095 6.16678 10.9141 6.25357 10.8999 6.33826Z" fill="currentColor"/>
</svg>
