<svg xmlns="http://www.w3.org/2000/svg" width="24" height="24" viewBox="0 0 24 24">
  <g transform="translate(-288 -338)"> 
    <path d="M11.658,5.113a1.75,1.75,0,0,0-1.342-.63H7.657l.327-.834A2.409,2.409,0,0,0,5.714.4a.583.583,0,0,0-.531.344L3.521,4.483H2.15A1.75,1.75,0,0,0,.4,6.233v4.083a1.75,1.75,0,0,0,1.75,1.75H9.576A1.75,1.75,0,0,0,11.3,10.632l.741-4.083a1.75,1.75,0,0,0-.379-1.435ZM3.317,10.9H2.15a.583.583,0,0,1-.583-.583V6.233A.583.583,0,0,1,2.15,5.65H3.317ZM10.9,6.338l-.741,4.083a.583.583,0,0,1-.583.478H4.483V5.189L6.07,1.619a1.231,1.231,0,0,1,.8,1.622l-.309.834A1.167,1.167,0,0,0,7.657,5.65h2.66a.592.592,0,0,1,.583.688Z" transform="translate(293.6 343.6)" fill="currentColor"/>
    <line x2="12" y2="12" transform="translate(293.5 344.5)" fill="none" stroke="currentColor" stroke-width="1"/>
  </g>
</svg>
