<svg xmlns="http://www.w3.org/2000/svg" width="24" height="24" viewBox="0 0 24 24">
  <g transform="translate(-666 -264)"> 
    <path d="M11.985,12.206c.342-.479.3-.984.067-1.892-.468-1.8-.282-2.78,1.333-3.946l.788-.569.191.953A6.682,6.682,0,0,0,15.752,9.6l.068.1a7.014,7.014,0,0,1,1.68,4.682c0,2.305-2.33,4.375-5,4.375s-5-2.069-5-4.375c0-.043,0-.042-.007-.232a4.978,4.978,0,0,1,1.318-3.87,6.7,6.7,0,0,1,.8-.758l.658-.534.316.786a4.464,4.464,0,0,0,.817,1.372A2.732,2.732,0,0,1,11.985,12.206ZM9.747,11.1a3.79,3.79,0,0,0-1,2.994c.008.22.008.212.008.28,0,1.58,1.74,3.125,3.75,3.125s3.75-1.545,3.75-3.125a5.859,5.859,0,0,0-1.45-3.96l-.068-.1A9.579,9.579,0,0,1,13.41,8c-.428.513-.4,1.023-.149,2,.468,1.8.282,2.78-1.333,3.946l-.921.665-.069-1.133a2.427,2.427,0,0,0-.46-1.489,4.935,4.935,0,0,1-.676-.947Z" transform="translate(665.514 264.201)" fill="currentColor" fill-rule="evenodd"/>
  </g>
</svg>
