<svg xmlns="http://www.w3.org/2000/svg" width="24" height="24" viewBox="0 0 24 24">
  <g transform="translate(-666 -264)"> 
    <path id="xecta_custom_icon_anomalies_high_water_cut" data-name="xecta_custom_icon_anomalies_high water cut" d="M18.321,17.434,7.071,6.184a.628.628,0,1,0-.887.887l2.5,2.5a7.787,7.787,0,0,0-1.25,4.106A4.85,4.85,0,0,0,12.253,18.5a4.775,4.775,0,0,0,3.669-1.694l1.512,1.513a.628.628,0,1,0,.888-.888Zm-6.069-.181a3.6,3.6,0,0,1-3.594-3.594,6.437,6.437,0,0,1,.919-3.194l5.463,5.456a3.544,3.544,0,0,1-2.788,1.331Zm-.719-9.225c.281-.263.531-.469.719-.625.894.7,3.206,2.769,3.55,5.55a.625.625,0,0,0,.625.55H16.5a.625.625,0,0,0,.544-.694c-.488-4.019-4.281-6.594-4.438-6.7a.625.625,0,0,0-.7,0,11.7,11.7,0,0,0-1.225,1.006.625.625,0,0,0,.85.913Z" transform="translate(666 264)" fill="currentColor"/>
  </g>
</svg>
