<svg width="16" height="16" viewBox="0 0 16 16" fill="none" xmlns="http://www.w3.org/2000/svg">
<path fill-rule="evenodd" clip-rule="evenodd" d="M9.20049 1.03118C9.39707 1.0897 9.56111 1.22618 9.65441 1.40884C9.70165 1.50132 9.73952 1.60446 9.7639 1.71404L9.7639 1.71405C10.0544 3.01978 10.8263 4.06292 11.583 5.06991L11.583 5.06991L11.6243 5.12483L11.6243 5.12483C12.5788 6.39542 13.5 7.6252 13.5 9.32121C13.5 12.2017 11.1289 14.5 8.25 14.5C5.37108 14.5 3 12.2017 3 9.32121C3 8.95888 3.08296 8.35827 3.22114 7.72361C3.30062 7.35854 3.39614 6.99246 3.50097 6.65992C3.58771 6.38475 3.8246 6.18374 4.11021 6.14294C4.39583 6.10214 4.67953 6.22879 4.83984 6.46867C4.90174 6.5613 4.96561 6.65912 5.03047 6.75855L5.03047 6.75856L5.05278 6.79276L5.05278 6.79277C5.25284 7.09964 5.45886 7.41235 5.65505 7.62933C5.75616 7.74114 5.86595 7.84073 5.98321 7.89976C6.11056 7.96386 6.25634 7.98334 6.39614 7.91467L6.68993 8.51275L6.39614 7.91467C6.55289 7.83767 6.66445 7.73635 6.73601 7.61375C6.80637 7.49318 6.83428 7.35857 6.83759 7.21719C6.84365 6.95846 6.76481 6.6405 6.67577 6.30467L6.66054 6.24712L6.66053 6.24711C6.49272 5.61081 6.2945 4.8555 6.46912 4.0379C6.75548 2.69714 7.69003 1.62792 8.61392 1.09909C8.79193 0.997198 9.0039 0.972656 9.20049 1.03118ZM8.60509 3.03837C8.29565 3.39931 8.04257 3.85239 7.93603 4.3512C7.84646 4.77062 7.9334 5.19144 8.11094 5.86458C8.11094 5.86458 8.11094 5.86458 8.11094 5.86458L8.12567 5.92025L7.40072 6.11246L8.12567 5.92025C8.12829 5.93012 8.13098 5.94026 8.13375 5.95065C8.21304 6.24903 8.34872 6.75961 8.33718 7.25229C8.32986 7.56513 8.26571 7.96856 8.03151 8.36983C7.78855 8.78613 7.43559 9.07528 7.05748 9.26101C6.37506 9.59622 5.71877 9.44596 5.30879 9.2396C4.96857 9.06834 4.72081 8.82901 4.56921 8.66467C4.52173 8.96457 4.5 9.19573 4.5 9.32121C4.5 11.3475 6.17354 13 8.25 13C10.3265 13 12 11.3475 12 9.32121C12 8.20011 11.4256 7.35775 10.425 6.02576C10.425 6.02576 10.425 6.02576 10.425 6.02576L10.3839 5.97104C10.3742 5.9582 10.3645 5.94531 10.3548 5.93237C9.77922 5.16659 9.0624 4.21291 8.60509 3.03837Z" fill="#424242"/>
</svg>
