<svg width="16" height="16" viewBox="0 0 16 16" fill="none" xmlns="http://www.w3.org/2000/svg">
<path fill-rule="evenodd" clip-rule="evenodd" d="M5.52886 1.54396C5.62086 1.22198 5.91515 1 6.25001 1H10.75C10.996 1 11.2263 1.12062 11.3665 1.3228C11.5066 1.52498 11.5386 1.78302 11.4523 2.01334L10.3323 5H12.75C13.049 5 13.3194 5.17754 13.4382 5.45185C13.557 5.72617 13.5016 6.04486 13.2972 6.26296L5.79716 14.263C5.56805 14.5073 5.20467 14.5702 4.90682 14.4169C4.60897 14.2636 4.44888 13.9314 4.51457 13.6029L5.33515 9.5H4.25001C4.01466 9.5 3.79297 9.38953 3.65124 9.20165C3.50952 9.01376 3.46421 8.77025 3.52886 8.54396L5.52886 1.54396ZM6.81573 2.5L5.2443 8H6.25001C6.4747 8 6.68756 8.10074 6.83001 8.27451C6.97247 8.44827 7.02951 8.67676 6.98544 8.89709L6.50107 11.3189L11.0188 6.5H9.25001C9.00402 6.5 8.77367 6.37938 8.63356 6.1772C8.49345 5.97502 8.46139 5.71698 8.54776 5.48666L9.66776 2.5H6.81573Z" fill="#424242"/>
</svg>
