<svg width="16" height="16" viewBox="0 0 16 16" fill="none" xmlns="http://www.w3.org/2000/svg">
<path d="M7.875 2.66625C7.58987 2.99473 7.12289 3.56331 6.63017 4.26773L5.55425 3.19181C6.22649 2.25575 6.83051 1.57281 7.02885 1.36456C7.49179 0.878479 8.25822 0.878481 8.72115 1.36456C8.97889 1.63519 9.92174 2.70744 10.8091 4.09511C11.6664 5.43573 12.625 7.3018 12.625 9.1C12.625 9.4783 12.6005 9.84197 12.5519 10.1895L11.1085 8.74609C10.9947 7.49193 10.3065 6.0935 9.54538 4.9032C8.90917 3.90828 8.2417 3.0887 7.875 2.66625Z" fill="#424242"/>
<path fill-rule="evenodd" clip-rule="evenodd" d="M4.3431 5.10198L1.43306 2.19194C1.18898 1.94786 1.18898 1.55214 1.43306 1.30806C1.67714 1.06398 2.07286 1.06398 2.31694 1.30806L14.3169 13.3081C14.561 13.5521 14.561 13.9479 14.3169 14.1919C14.0729 14.436 13.6771 14.436 13.4331 14.1919L11.7297 12.4886C11.588 12.7051 11.4299 12.9075 11.2555 13.0947C10.3513 14.0653 9.12926 14.5 7.875 14.5C6.62074 14.5 5.39873 14.0653 4.49449 13.0947C3.59233 12.1263 3.125 10.7528 3.125 9.1C3.125 7.71758 3.69158 6.29504 4.3431 5.10198ZM10.6346 11.3935C10.4981 11.654 10.3373 11.8797 10.158 12.0722C9.58019 12.6924 8.7801 13 7.875 13C6.9699 13 6.16981 12.6924 5.59201 12.0722C5.0107 11.4482 4.625 10.4756 4.625 9.1C4.625 8.1879 4.97067 7.17697 5.45433 6.21322L10.6346 11.3935Z" fill="#424242"/>
</svg>
