<svg width="16" height="16" viewBox="0 0 16 16" fill="none" xmlns="http://www.w3.org/2000/svg">
<path fill-rule="evenodd" clip-rule="evenodd" d="M11.5303 1.46967C11.2374 1.17678 10.7626 1.17678 10.4697 1.46967L8.96967 2.96967C8.67678 3.26256 8.67678 3.73744 8.96967 4.03033L9.02773 4.08839L5.55806 7.55806C5.47796 7.63816 5.42113 7.73852 5.39366 7.84842L4.89366 9.84842C4.84041 10.0614 4.90282 10.2867 5.05806 10.4419L5.55806 10.9419C5.7133 11.0972 5.9386 11.1596 6.15158 11.1063L8.15158 10.6063C8.26148 10.5789 8.36184 10.522 8.44194 10.4419L11.9116 6.97227L11.9697 7.03033C12.2626 7.32322 12.7374 7.32322 13.0303 7.03033L14.5303 5.53033C14.8232 5.23744 14.8232 4.76256 14.5303 4.46967L11.5303 1.46967ZM6.56435 8.31953L7 7.88388L8.11612 9L7.68047 9.43565L6.19231 9.80769L6.56435 8.31953ZM11.0277 6.08839L9.91161 4.97227L7.88388 7L9 8.11612L11.0277 6.08839ZM12.9393 5L12.5 5.43934L10.5607 3.5L11 3.06066L12.9393 5Z" fill="#424242"/>
<path d="M4.53033 12.5303C4.82322 12.2374 4.82322 11.7626 4.53033 11.4697C4.23744 11.1768 3.76256 11.1768 3.46967 11.4697L1.96967 12.9697C1.67678 13.2626 1.67678 13.7374 1.96967 14.0303C2.26256 14.3232 2.73744 14.3232 3.03033 14.0303L4.53033 12.5303Z" fill="#424242"/>
<path d="M6 11.75C6.41421 11.75 6.75 12.0858 6.75 12.5V14C6.75 14.4142 6.41421 14.75 6 14.75C5.58579 14.75 5.25 14.4142 5.25 14V12.5C5.25 12.0858 5.58579 11.75 6 11.75Z" fill="#424242"/>
<path d="M2 9.25C1.58579 9.25 1.25 9.58579 1.25 10C1.25 10.4142 1.58579 10.75 2 10.75H3.5C3.91421 10.75 4.25 10.4142 4.25 10C4.25 9.58579 3.91421 9.25 3.5 9.25H2Z" fill="#424242"/>
</svg>
