<svg width="24" height="24" viewBox="0 0 24 24" fill="none" xmlns="http://www.w3.org/2000/svg">
<path fill-rule="evenodd" clip-rule="evenodd" d="M18.6667 1.33333H5.33333C3.12419 1.33333 1.33333 3.12419 1.33333 5.33333V18.6667C1.33333 20.8758 3.1242 22.6667 5.33333 22.6667H18.6667C20.8758 22.6667 22.6667 20.8758 22.6667 18.6667V5.33333C22.6667 3.12419 20.8758 1.33333 18.6667 1.33333ZM5.33333 0C2.38781 0 0 2.38781 0 5.33333V18.6667C0 21.6122 2.38782 24 5.33333 24H18.6667C21.6122 24 24 21.6122 24 18.6667V5.33333C24 2.38781 21.6122 0 18.6667 0H5.33333Z" fill="currentColor"/>
<path d="M6.13477 17.1429H8.87077V10.3909L11.3988 17.1429H13.6068L16.1188 10.4069V17.1429H18.8548V5.91089H15.6388L12.5188 13.6869L9.36677 5.91089H6.13477V17.1429Z" fill="currentColor"/>
</svg>
