<svg width="24" height="24" viewBox="0 0 24 24" fill="none" xmlns="http://www.w3.org/2000/svg">
<path fill-rule="evenodd" clip-rule="evenodd" d="M18.6667 1.33333H5.33333C3.12419 1.33333 1.33333 3.12419 1.33333 5.33333V18.6667C1.33333 20.8758 3.1242 22.6667 5.33333 22.6667H18.6667C20.8758 22.6667 22.6667 20.8758 22.6667 18.6667V5.33333C22.6667 3.12419 20.8758 1.33333 18.6667 1.33333ZM5.33333 0C2.38781 0 0 2.38781 0 5.33333V18.6667C0 21.6122 2.38782 24 5.33333 24H18.6667C21.6122 24 24 21.6122 24 18.6667V5.33333C24 2.38781 21.6122 0 18.6667 0H5.33333Z" fill="currentColor"/>
<path d="M16.0091 13.7987C16.0091 10.0387 10.4571 10.9187 10.4571 8.96673C10.4571 8.26273 10.9531 7.92673 11.6091 7.94273C12.3451 7.95873 12.8571 8.39073 12.9051 9.11073H15.8651C15.7531 6.96673 14.1051 5.75073 11.6571 5.75073C9.30505 5.75073 7.56105 6.93473 7.56105 9.06273C7.52905 13.0467 13.1451 11.9267 13.1451 14.0067C13.1451 14.6627 12.6331 15.0627 11.8331 15.0627C11.0651 15.0627 10.5211 14.6467 10.4411 13.7827H7.52905C7.60905 16.0547 9.49705 17.2547 11.9131 17.2547C14.5371 17.2547 16.0091 15.6867 16.0091 13.7987Z" fill="currentColor"/>
</svg>
