<svg xmlns="http://www.w3.org/2000/svg" width="24" height="24" viewBox="0 0 24 24">
  <g   transform="translate(-405 -243)"> 
    <path   d="M5.558.849a.625.625,0,0,1,.884,0A27.6,27.6,0,0,1,9.358,4.484c1.233,1.836,2.476,4.211,2.476,6.39a6.7,6.7,0,0,1-1.7,4.838A5.653,5.653,0,0,1,6,17.333a5.653,5.653,0,0,1-4.13-1.62,6.7,6.7,0,0,1-1.7-4.838c0-2.179,1.243-4.554,2.476-6.39A27.6,27.6,0,0,1,5.558.849ZM3.681,5.181C2.466,6.991,1.417,9.1,1.417,10.874a5.466,5.466,0,0,0,1.347,3.964A4.407,4.407,0,0,0,6,16.083a4.407,4.407,0,0,0,3.236-1.244,5.467,5.467,0,0,0,1.347-3.964c0-1.779-1.049-3.884-2.264-5.693A27.8,27.8,0,0,0,6,2.206,27.8,27.8,0,0,0,3.681,5.181Z" transform="translate(410.833 246.334)" fill="currentColor"/>
  </g>
</svg>
