<svg width="16" height="16" viewBox="0 0 16 16" fill="none" xmlns="http://www.w3.org/2000/svg">
<path fill-rule="evenodd" clip-rule="evenodd" d="M8 2.66625C7.63329 3.0887 6.96583 3.90828 6.32962 4.9032C5.49603 6.2068 4.75 7.76005 4.75 9.1C4.75 10.4756 5.1357 11.4482 5.71701 12.0722C6.29481 12.6924 7.0949 13 8 13C8.9051 13 9.70519 12.6924 10.283 12.0722C10.8643 11.4482 11.25 10.4756 11.25 9.1C11.25 7.76005 10.504 6.2068 9.67038 4.9032C9.03417 3.90828 8.3667 3.0887 8 2.66625ZM8.84615 1.36456L8.30305 1.8818L8.84615 1.36456C9.10389 1.63519 10.0467 2.70744 10.9341 4.09511C11.7914 5.43573 12.75 7.3018 12.75 9.1C12.75 10.7528 12.2827 12.1263 11.3805 13.0947C10.4763 14.0653 9.25426 14.5 8 14.5C6.74574 14.5 5.52373 14.0653 4.61949 13.0947C3.71733 12.1263 3.25 10.7528 3.25 9.1C3.25 7.3018 4.20863 5.43573 5.0659 4.09511C5.95326 2.70744 6.89611 1.63519 7.15385 1.36456C7.61679 0.878479 8.38322 0.878481 8.84615 1.36456Z" fill="#424242"/>
</svg>
