<svg width="24" height="24" viewBox="0 0 24 24" fill="none" xmlns="http://www.w3.org/2000/svg">
<path fill-rule="evenodd" clip-rule="evenodd" d="M15.5589 20.5921C13.8595 21.296 11.9896 21.4802 10.1856 21.1213C8.38156 20.7625 6.72446 19.8768 5.42383 18.5761C4.12321 17.2755 3.23747 15.6184 2.87863 13.8144C2.51978 12.0104 2.70395 10.1404 3.40785 8.44109C4.11174 6.74174 5.30375 5.28927 6.83313 4.26738C8.3625 3.24548 10.1606 2.70005 11.9999 2.70005C12.497 2.70005 12.8999 3.10299 12.8999 3.60005C12.8999 4.0971 12.497 4.50005 11.9999 4.50005C10.5166 4.50005 9.06652 4.93991 7.83315 5.76402C6.59978 6.58813 5.63849 7.75947 5.07083 9.12992C4.50317 10.5004 4.35465 12.0084 4.64404 13.4632C4.93343 14.9181 5.64773 16.2545 6.69663 17.3033C7.74552 18.3522 9.08189 19.0665 10.5367 19.3559C11.9916 19.6453 13.4996 19.4968 14.8701 18.9291C16.2405 18.3615 17.4118 17.4002 18.2359 16.1668C19.0601 14.9335 19.4999 13.4834 19.4999 12C19.4999 11.503 19.9029 11.1 20.3999 11.1C20.897 11.1 21.2999 11.503 21.2999 12C21.2999 13.8394 20.7545 15.6375 19.7326 17.1668C18.7107 18.6962 17.2582 19.8882 15.5589 20.5921Z" fill="currentColor"/>
</svg>
