<svg width="24" height="25" viewBox="0 0 24 25" fill="none" xmlns="http://www.w3.org/2000/svg">
<path d="M0.40534 24.0932C0.0558813 24.0932 -0.097564 23.8399 0.0648159 23.5304L4.73547 14.6105C4.89785 14.301 5.17321 14.2952 5.34821 14.5979L10.5128 23.543C10.6878 23.8457 10.5449 24.0932 10.1949 24.0932H0.40534ZM11.6821 20.5461C11.8571 20.8487 12.1429 20.8487 12.3174 20.5461L23.8616 0.550728C24.0366 0.248039 23.8937 0 23.5463 0H13.02C12.6705 0 12.2517 0.253819 12.0899 0.563339L6.70452 10.8495C6.54214 11.159 6.55265 11.6598 6.72765 11.963L11.6821 20.5461ZM23.5947 24.0932C23.9441 24.0932 24.0976 23.8399 23.9352 23.5304L19.264 14.6095C19.1021 14.2999 18.8263 14.2942 18.6513 14.5969L13.4866 23.543C13.3122 23.8457 13.4551 24.0932 13.8046 24.0932H23.5947ZM4.60515 8.28716C4.77961 8.58984 5.0555 8.58406 5.21736 8.27454L9.25478 0.563339C9.41716 0.253819 9.26371 0 8.91426 0H0.453685C0.104227 0 -0.0387098 0.248039 0.138384 0.550728L4.60515 8.28716Z" fill="url(#paint0_linear_3208_10686)"/>
<defs>
<linearGradient id="paint0_linear_3208_10686" x1="24.4286" y1="-5.81945e-07" x2="-0.000307915" y2="24.0929" gradientUnits="userSpaceOnUse">
<stop offset="0.0280372" stop-color="#15C8FF"/>
<stop offset="0.526787" stop-color="#7A74FB"/>
<stop offset="0.759096" stop-color="#BA53FC"/>
<stop offset="0.853632" stop-color="#DD39FD"/>
<stop offset="1" stop-color="#EB30FE"/>
</linearGradient>
</defs>
</svg>
