<svg width="24" height="24" viewBox="0 0 24 24" fill="none" xmlns="http://www.w3.org/2000/svg">
<path fill-rule="evenodd" clip-rule="evenodd" d="M20.0421 11.5387C20.5387 11.5184 20.9577 11.9046 20.978 12.4013C21.0239 13.5248 20.8393 14.6459 20.4355 15.6954C20.0318 16.7449 19.4175 17.7006 18.6304 18.5038C17.8434 19.3069 16.9002 19.9404 15.8591 20.3652C14.8208 20.7889 13.707 20.9962 12.5859 20.9743C8.91671 20.971 5.77322 19.0021 4.71447 15.7729C4.55961 15.3006 4.81696 14.7922 5.28928 14.6373C5.7616 14.4825 6.27003 14.7398 6.42488 15.2121C7.19798 17.5701 9.54831 19.1743 12.5951 19.1743L12.6137 19.1745C13.4923 19.1926 14.3653 19.0307 15.179 18.6987C15.9927 18.3666 16.7297 17.8715 17.3448 17.2439C17.9599 16.6163 18.44 15.8693 18.7555 15.0491C19.0711 14.2289 19.2154 13.3528 19.1795 12.4747C19.1592 11.9781 19.5454 11.559 20.0421 11.5387Z" fill="currentColor"/>
<path fill-rule="evenodd" clip-rule="evenodd" d="M12.2779 5.70153C11.3988 5.6825 10.525 5.84377 9.71053 6.1754C8.89608 6.50702 8.15819 7.00197 7.54236 7.62972C6.92655 8.25746 6.44589 9.0047 6.12994 9.82539C5.81399 10.6461 5.6695 11.5227 5.70539 12.4014C5.72568 12.898 5.33952 13.3171 4.84287 13.3374C4.34623 13.3576 3.92718 12.9715 3.90689 12.4748C3.86096 11.3505 4.04586 10.2288 4.45012 9.17869C4.85438 8.12862 5.46942 7.17246 6.25742 6.3692C7.04541 5.56595 7.98958 4.93263 9.03173 4.50829C10.0709 4.0852 11.1854 3.8788 12.3071 3.90175C15.9742 3.90519 19.1206 5.86532 20.1713 9.10596C20.3247 9.57879 20.0656 10.0864 19.5928 10.2397C19.12 10.393 18.6124 10.134 18.4591 9.66116C17.6934 7.29956 15.3461 5.70174 12.2974 5.70174L12.2779 5.70153Z" fill="currentColor"/>
<path fill-rule="evenodd" clip-rule="evenodd" d="M4.6966 15.2742C4.81716 14.792 5.3058 14.4988 5.78802 14.6194L8.84256 15.383C9.32478 15.5036 9.61796 15.9922 9.49741 16.4744C9.37685 16.9566 8.88821 17.2498 8.406 17.1293L6.22458 16.5839L5.67922 18.7653C5.55867 19.2475 5.07003 19.5407 4.58781 19.4202C4.1056 19.2996 3.81241 18.811 3.93297 18.3288L4.6966 15.2742Z" fill="currentColor"/>
<path fill-rule="evenodd" clip-rule="evenodd" d="M20.2972 5.45592C20.7794 5.57647 21.0726 6.06511 20.952 6.54733L20.1884 9.60187C20.1305 9.83344 19.983 10.0325 19.7783 10.1553C19.5736 10.2781 19.3285 10.3146 19.097 10.2567L16.0424 9.49308C15.5602 9.37253 15.267 8.88389 15.3876 8.40167C15.5081 7.91946 15.9968 7.62627 16.479 7.74683L18.6604 8.29218L19.2057 6.11076C19.3263 5.62855 19.8149 5.33536 20.2972 5.45592Z" fill="currentColor"/>
</svg>
