<svg width="14" height="14" viewBox="0 0 14 14" fill="none" xmlns="http://www.w3.org/2000/svg">
<path fill-rule="evenodd" clip-rule="evenodd" d="M6.54534 1.97231L4.9721 3.93197C4.53947 4.472 4.47516 5.17991 4.79359 5.77287C5.11617 6.37354 5.79298 6.77933 6.56282 6.78125C7.33254 6.7791 8.00913 6.37324 8.33155 5.77262C8.64983 5.17971 8.58561 4.47211 8.15306 3.93216L6.58048 1.97231C6.57715 1.97076 6.57073 1.96875 6.56291 1.96875C6.5551 1.96875 6.54868 1.97076 6.54534 1.97231ZM5.52563 1.14595C5.78079 0.829072 6.16767 0.65625 6.56291 0.65625C6.95816 0.65625 7.34504 0.829072 7.6002 1.14595L7.60091 1.14683L9.17687 3.1109C9.93354 4.05519 10.0589 5.32982 9.48796 6.3934C8.92131 7.44899 7.78252 8.09109 6.56434 8.09375H6.56168C5.34332 8.09145 4.20419 7.44949 3.63728 6.39384C3.06607 5.33019 3.19108 4.05567 3.94786 3.11124L5.52563 1.14595Z" fill="currentColor"/>
<path fill-rule="evenodd" clip-rule="evenodd" d="M10.9378 8.05643L9.97376 9.34296C9.70128 9.70737 9.65797 10.1938 9.86169 10.6002C10.0653 11.0065 10.4814 11.2643 10.9377 11.2656C11.394 11.2641 11.8099 11.0063 12.0134 10.6C12.217 10.1936 12.1737 9.70733 11.9012 9.34296L10.9378 8.05643ZM10.1498 7.28397C10.3361 7.03612 10.6281 6.89062 10.9378 6.89062C11.2475 6.89062 11.5395 7.03612 11.7257 7.28397L11.7263 7.2847L12.7769 8.68761C13.2973 9.38344 13.3805 10.3132 12.9913 11.09C12.6022 11.8666 11.808 12.3573 10.9391 12.3594H10.9367C10.0676 12.3576 9.2732 11.867 8.88389 11.0903C8.49451 10.3134 8.5774 9.38383 9.09788 8.6879L10.1498 7.28397ZM3.06275 8.93143L2.09876 10.218C1.82636 10.5824 1.783 11.0688 1.98669 11.4752C2.19033 11.8815 2.60636 12.1393 3.0627 12.1406C3.51896 12.1391 3.93486 11.8813 4.1384 11.475C4.34203 11.0686 4.29875 10.5824 4.02628 10.218L3.06275 8.93143ZM2.27484 8.15897C2.4611 7.91112 2.7531 7.76562 3.06278 7.76562C3.37246 7.76562 3.66445 7.91112 3.85072 8.15897L3.85127 8.1597L4.90192 9.56261C5.42231 10.2584 5.50548 11.1882 5.11628 11.965C4.72715 12.7416 3.93296 13.2323 3.06405 13.2344H3.06167C2.19264 13.2326 1.3982 12.742 1.00889 11.9653C0.61951 11.1884 0.702402 10.2588 1.22288 9.5629L2.27484 8.15897Z" fill="currentColor"/>
</svg>
