<svg width="24" height="24" viewBox="0 0 24 24" fill="none" xmlns="http://www.w3.org/2000/svg">
<g clip-path="url(#clip0_261:115263)">
<path d="M11.07 6.11994C11.3732 6.03817 11.686 5.9978 12 5.99994C13.0609 5.99994 14.0783 6.42137 14.8284 7.17151C15.5786 7.92166 16 8.93908 16 9.99994V11.3399C16 11.6052 16.1054 11.8595 16.2929 12.047C16.4804 12.2346 16.7348 12.3399 17 12.3399C17.2652 12.3399 17.5196 12.2346 17.7071 12.047C17.8946 11.8595 18 11.6052 18 11.3399V9.99994C17.9986 8.58306 17.4958 7.21241 16.5806 6.13072C15.6655 5.04902 14.3971 4.32609 13 4.08994V2.99994C13 2.73472 12.8946 2.48037 12.7071 2.29283C12.5196 2.1053 12.2652 1.99994 12 1.99994C11.7348 1.99994 11.4804 2.1053 11.2929 2.29283C11.1054 2.48037 11 2.73472 11 2.99994V4.09994L10.55 4.17994C10.2927 4.2489 10.0734 4.41723 9.94026 4.6479C9.80711 4.87857 9.77105 5.15268 9.84 5.40994C9.90896 5.6672 10.0773 5.88653 10.308 6.01968C10.5386 6.15283 10.8127 6.1889 11.07 6.11994V6.11994ZM21.71 20.2899L3.71 2.28994C3.5217 2.10164 3.2663 1.99585 3 1.99585C2.7337 1.99585 2.47831 2.10164 2.29 2.28994C2.1017 2.47824 1.99591 2.73364 1.99591 2.99994C1.99591 3.26624 2.1017 3.52164 2.29 3.70994L6.41 7.81994C6.13903 8.51481 5.99999 9.25411 6 9.99994V13.1799C5.41645 13.3863 4.911 13.768 4.55294 14.2729C4.19488 14.7777 4.00174 15.381 4 15.9999V17.9999C4 18.2652 4.10536 18.5195 4.2929 18.7071C4.48043 18.8946 4.73479 18.9999 5 18.9999H8.14C8.37029 19.8473 8.873 20.5954 9.5706 21.1287C10.2682 21.662 11.1219 21.9509 12 21.9509C12.8781 21.9509 13.7318 21.662 14.4294 21.1287C15.127 20.5954 15.6297 19.8473 15.86 18.9999H17.59L20.29 21.7099C20.383 21.8037 20.4936 21.8781 20.6154 21.9288C20.7373 21.9796 20.868 22.0057 21 22.0057C21.132 22.0057 21.2627 21.9796 21.3846 21.9288C21.5064 21.8781 21.617 21.8037 21.71 21.7099C21.8037 21.617 21.8781 21.5064 21.9289 21.3845C21.9797 21.2627 22.0058 21.132 22.0058 20.9999C22.0058 20.8679 21.9797 20.7372 21.9289 20.6154C21.8781 20.4935 21.8037 20.3829 21.71 20.2899V20.2899ZM8 9.99994C7.98474 9.81693 7.98474 9.63296 8 9.44994L11.59 12.9999H8V9.99994ZM12 19.9999C11.651 19.9978 11.3086 19.9044 11.0068 19.729C10.7051 19.5536 10.4545 19.3022 10.28 18.9999H13.72C13.5455 19.3022 13.2949 19.5536 12.9932 19.729C12.6914 19.9044 12.349 19.9978 12 19.9999ZM6 16.9999V15.9999C6 15.7347 6.10536 15.4804 6.2929 15.2928C6.48043 15.1053 6.73479 14.9999 7 14.9999H13.59L15.59 16.9999H6Z" fill="currentColor"/>
</g>
<defs>
<clipPath id="clip0_261:115263">
<rect width="24" height="24" fill="white"/>
</clipPath>
</defs>
</svg>
