<svg xmlns="http://www.w3.org/2000/svg" width="24" height="24" viewBox="0 0 24 24">
  <g transform="translate(2.996 3)"> 
    <path d="M18,9.752A1.75,1.75,0,0,0,16.25,8h-4.5A1.75,1.75,0,0,0,10,9.752v6.5A1.75,1.75,0,0,0,11.75,18h4.5A1.75,1.75,0,0,0,18,16.252Z" fill="currentColor"/>
    <path d="M8.018,13.764a1.75,1.75,0,0,0-1.75-1.75H1.754A1.75,1.75,0,0,0,0,13.764v2.488A1.75,1.75,0,0,0,1.754,18H6.268a1.75,1.75,0,0,0,1.75-1.75Z" fill="currentColor"/>
    <path d="M8,1.75A1.75,1.75,0,0,0,6.254,0h-4.5A1.75,1.75,0,0,0,0,1.75v6.5A1.75,1.75,0,0,0,1.754,10h4.5L6.4,9.994A1.75,1.75,0,0,0,8,8.25Z" fill="currentColor"/>
    <path d="M18,1.75A1.75,1.75,0,0,0,16.25,0h-4.5A1.75,1.75,0,0,0,10,1.75v2.5A1.75,1.75,0,0,0,11.75,6h4.5A1.75,1.75,0,0,0,18,4.25Z" fill="currentColor"/>
  </g>
</svg>
