<svg width="24" height="24" viewBox="0 0 24 24" fill="none" xmlns="http://www.w3.org/2000/svg">
<path fill-rule="evenodd" clip-rule="evenodd" d="M7.12095 3.12094C8.41495 1.82694 10.17 1.09998 12 1.09998C13.83 1.09998 15.585 1.82694 16.879 3.12094C18.173 4.41494 18.9 6.16998 18.9 7.99997C18.9 11.3674 19.6203 13.4661 20.2901 14.694C20.6262 15.3102 20.9545 15.7162 21.1846 15.9591C21.2999 16.0808 21.3911 16.1622 21.4472 16.209C21.4753 16.2323 21.4946 16.2471 21.5037 16.2539C21.5059 16.2555 21.5075 16.2567 21.5085 16.2574C21.8319 16.4788 21.9752 16.8848 21.8614 17.2608C21.7464 17.6404 21.3966 17.9 21 17.9H2.99998C2.60338 17.9 2.25353 17.6404 2.1386 17.2608C2.02385 16.8818 2.1703 16.4724 2.49919 16.2522C2.49933 16.2521 2.49948 16.252 2.49962 16.2519C2.49962 16.2519 2.49961 16.2519 2.49961 16.2519L2.49919 16.2522L2.49853 16.2526L2.49657 16.2539L2.49345 16.2561L2.49035 16.2582C2.48966 16.2587 2.49168 16.2573 2.49625 16.2539C2.50537 16.2471 2.52466 16.2323 2.55272 16.209C2.60882 16.1622 2.70009 16.0808 2.81538 15.9591C3.04549 15.7162 3.37376 15.3102 3.70988 14.694C4.37962 13.4661 5.09998 11.3674 5.09998 7.99997C5.09998 6.16998 5.82695 4.41494 7.12095 3.12094ZM4.969 16.1H19.031C18.9245 15.9333 18.8169 15.7522 18.7099 15.5559C17.8796 14.0338 17.1 11.6326 17.1 7.99997C17.1 6.64737 16.5627 5.35017 15.6062 4.39373C14.6498 3.4373 13.3526 2.89998 12 2.89998C10.6474 2.89998 9.35017 3.4373 8.39374 4.39373C7.4373 5.35017 6.89998 6.64737 6.89998 7.99997C6.89998 11.6326 6.12034 14.0338 5.29009 15.5559C5.18303 15.7522 5.07544 15.9333 4.969 16.1Z" fill="currentColor"/>
<path fill-rule="evenodd" clip-rule="evenodd" d="M9.6679 19.962C10.2412 19.6295 10.9755 19.8246 11.308 20.3979C11.3783 20.5191 11.4793 20.6197 11.6007 20.6897C11.7222 20.7596 11.8599 20.7965 12 20.7965C12.1402 20.7965 12.2779 20.7596 12.3993 20.6897C12.5208 20.6197 12.6217 20.5191 12.692 20.3979C13.0246 19.8246 13.7589 19.6295 14.3321 19.962C14.9054 20.2945 15.1006 21.0289 14.768 21.6021C14.4867 22.0871 14.083 22.4896 13.5972 22.7694C13.1114 23.0492 12.5606 23.1965 12 23.1965C11.4394 23.1965 10.8886 23.0492 10.4029 22.7694C9.91707 22.4896 9.51332 22.0871 9.23202 21.6021C8.89948 21.0289 9.09462 20.2945 9.6679 19.962Z" fill="currentColor"/>
</svg>
