<svg width="16" height="16" viewBox="0 0 16 16" fill="none" xmlns="http://www.w3.org/2000/svg">
<path fill-rule="evenodd" clip-rule="evenodd" d="M2.25 2C2.25 1.58579 2.58579 1.25 3 1.25H13C13.4142 1.25 13.75 1.58579 13.75 2C13.75 2.41421 13.4142 2.75 13 2.75H12.625V5.375H13C13.3452 5.375 13.625 5.65482 13.625 6C13.625 6.34518 13.3452 6.625 13 6.625H12.625V9.375H13C13.3452 9.375 13.625 9.65482 13.625 10C13.625 10.3452 13.3452 10.625 13 10.625H12.625V13.25H13C13.4142 13.25 13.75 13.5858 13.75 14C13.75 14.4142 13.4142 14.75 13 14.75H3C2.58579 14.75 2.25 14.4142 2.25 14C2.25 13.5858 2.58579 13.25 3 13.25H3.375V10.625H3C2.65482 10.625 2.375 10.3452 2.375 10C2.375 9.65482 2.65482 9.375 3 9.375H3.375V6.625H3C2.65482 6.625 2.375 6.34518 2.375 6C2.375 5.65482 2.65482 5.375 3 5.375H3.375V2.75H3C2.58579 2.75 2.25 2.41421 2.25 2ZM11.375 13.25V10.625H4.625V13.25H11.375ZM11.375 9.375V6.625H4.625V9.375H11.375ZM11.375 5.375V2.75H4.625V5.375H11.375Z" fill="#424242"/>
</svg>
