<svg width="24" height="24" viewBox="0 0 24 24" fill="none" xmlns="http://www.w3.org/2000/svg">
<path fill-rule="evenodd" clip-rule="evenodd" d="M5.46967 7.21967C5.76256 6.92678 6.23744 6.92678 6.53033 7.21967L10 10.6893L11.4697 9.21967C11.7626 8.92678 12.2374 8.92678 12.5303 9.21967L17.25 13.9393V10.75C17.25 10.3358 17.5858 10 18 10C18.4142 10 18.75 10.3358 18.75 10.75V15.75C18.75 16.1642 18.4142 16.5 18 16.5H13C12.5858 16.5 12.25 16.1642 12.25 15.75C12.25 15.3358 12.5858 15 13 15H16.1893L12 10.8107L10.5303 12.2803C10.2374 12.5732 9.76256 12.5732 9.46967 12.2803L5.46967 8.28033C5.17678 7.98744 5.17678 7.51256 5.46967 7.21967Z" fill="currentColor"/>
</svg>
