<svg width="24" height="24" viewBox="0 0 24 24" fill="none" xmlns="http://www.w3.org/2000/svg">
<path fill-rule="evenodd" clip-rule="evenodd" d="M10.4332 6.375C11.1068 5.20833 12.7907 5.20833 13.4643 6.375L18.6605 15.375C19.334 16.5417 18.4921 18 17.1449 18H6.75261C5.40546 18 4.56349 16.5417 5.23707 15.375L10.4332 6.375ZM12.1653 7.125C12.069 6.95833 11.8285 6.95833 11.7323 7.125L6.5361 16.125C6.43988 16.2917 6.56016 16.5 6.75261 16.5H17.1449C17.3374 16.5 17.4576 16.2917 17.3614 16.125L12.1653 7.125ZM11.9487 9.625C12.2939 9.625 12.5737 9.90482 12.5737 10.25V12.75C12.5737 13.0952 12.2939 13.375 11.9487 13.375C11.6036 13.375 11.3237 13.0952 11.3237 12.75V10.25C11.3237 9.90482 11.6036 9.625 11.9487 9.625ZM11.9487 15.75C12.3629 15.75 12.6987 15.4142 12.6987 15C12.6987 14.5858 12.3629 14.25 11.9487 14.25C11.5345 14.25 11.1987 14.5858 11.1987 15C11.1987 15.4142 11.5345 15.75 11.9487 15.75Z" fill="currentColor"/>
</svg>
