<svg width="24" height="24" viewBox="0 0 24 24" fill="none" xmlns="http://www.w3.org/2000/svg">
<path fill-rule="evenodd" clip-rule="evenodd" d="M12 6.66625C11.6333 7.0887 10.9658 7.90828 10.3296 8.9032C9.49603 10.2068 8.75 11.76 8.75 13.1C8.75 14.4756 9.1357 15.4482 9.71701 16.0722C10.2948 16.6924 11.0949 17 12 17C12.9051 17 13.7052 16.6924 14.283 16.0722C14.8643 15.4482 15.25 14.4756 15.25 13.1C15.25 11.76 14.504 10.2068 13.6704 8.9032C13.0342 7.90828 12.3667 7.0887 12 6.66625ZM12.8462 5.36456L12.303 5.8818L12.8462 5.36456C13.1039 5.63519 14.0467 6.70744 14.9341 8.09511C15.7914 9.43573 16.75 11.3018 16.75 13.1C16.75 14.7528 16.2827 16.1263 15.3805 17.0947C14.4763 18.0653 13.2543 18.5 12 18.5C10.7457 18.5 9.52373 18.0653 8.61949 17.0947C7.71733 16.1263 7.25 14.7528 7.25 13.1C7.25 11.3018 8.20863 9.43573 9.0659 8.09511C9.95326 6.70744 10.8961 5.63519 11.1539 5.36456C11.6168 4.87848 12.3832 4.87848 12.8462 5.36456Z" fill="currentColor"/>
</svg>
