<svg width="24" height="24" viewBox="0 0 24 24" fill="none" xmlns="http://www.w3.org/2000/svg">
<path fill-rule="evenodd" clip-rule="evenodd" d="M10.5 6.25C10.8312 6.25 11.1232 6.46725 11.2184 6.78449L13.5 14.3899L14.2816 11.7845C14.3768 11.4673 14.6688 11.25 15 11.25H18C18.4142 11.25 18.75 11.5858 18.75 12C18.75 12.4142 18.4142 12.75 18 12.75H15.558L14.2184 17.2155C14.1232 17.5327 13.8312 17.75 13.5 17.75C13.1688 17.75 12.8768 17.5327 12.7816 17.2155L10.5 9.61008L9.71837 12.2155C9.6232 12.5327 9.33121 12.75 9 12.75H6C5.58579 12.75 5.25 12.4142 5.25 12C5.25 11.5858 5.58579 11.25 6 11.25H8.44198L9.78163 6.78449C9.8768 6.46725 10.1688 6.25 10.5 6.25Z" fill="currentColor"/>
</svg>
