<svg width="24" height="24" viewBox="0 0 24 24" fill="none" xmlns="http://www.w3.org/2000/svg">
<path d="M11.875 6.66625C11.5899 6.99473 11.1229 7.56331 10.6302 8.26773L9.55425 7.19181C10.2265 6.25575 10.8305 5.57281 11.0289 5.36456C11.4918 4.87848 12.2582 4.87848 12.7212 5.36456C12.9789 5.63519 13.9217 6.70744 14.8091 8.09511C15.6664 9.43573 16.625 11.3018 16.625 13.1C16.625 13.4783 16.6005 13.842 16.5519 14.1895L15.1085 12.7461C14.9947 11.4919 14.3065 10.0935 13.5454 8.9032C12.9092 7.90828 12.2417 7.0887 11.875 6.66625Z" fill="currentColor"/>
<path fill-rule="evenodd" clip-rule="evenodd" d="M8.3431 9.10198L5.43306 6.19194C5.18898 5.94786 5.18898 5.55214 5.43306 5.30806C5.67714 5.06398 6.07286 5.06398 6.31694 5.30806L18.3169 17.3081C18.561 17.5521 18.561 17.9479 18.3169 18.1919C18.0729 18.436 17.6771 18.436 17.4331 18.1919L15.7297 16.4886C15.588 16.7051 15.4299 16.9075 15.2555 17.0947C14.3513 18.0653 13.1293 18.5 11.875 18.5C10.6207 18.5 9.39873 18.0653 8.49449 17.0947C7.59233 16.1263 7.125 14.7528 7.125 13.1C7.125 11.7176 7.69158 10.295 8.3431 9.10198ZM14.6346 15.3935C14.4981 15.654 14.3373 15.8797 14.158 16.0722C13.5802 16.6924 12.7801 17 11.875 17C10.9699 17 10.1698 16.6924 9.59201 16.0722C9.0107 15.4482 8.625 14.4756 8.625 13.1C8.625 12.1879 8.97067 11.177 9.45433 10.2132L14.6346 15.3935Z" fill="currentColor"/>
</svg>
