<svg width="24" height="24" viewBox="0 0 24 24" fill="none" xmlns="http://www.w3.org/2000/svg">
<path fill-rule="evenodd" clip-rule="evenodd" d="M9.52886 5.54396C9.62086 5.22198 9.91515 5 10.25 5H14.75C14.996 5 15.2263 5.12062 15.3665 5.3228C15.5066 5.52498 15.5386 5.78302 15.4523 6.01334L14.3323 9H16.75C17.049 9 17.3194 9.17754 17.4382 9.45185C17.557 9.72617 17.5016 10.0449 17.2972 10.263L9.79716 18.263C9.56805 18.5073 9.20467 18.5702 8.90682 18.4169C8.60897 18.2636 8.44888 17.9314 8.51457 17.6029L9.33515 13.5H8.25001C8.01466 13.5 7.79297 13.3895 7.65124 13.2016C7.50952 13.0138 7.46421 12.7702 7.52886 12.544L9.52886 5.54396ZM10.8157 6.5L9.2443 12H10.25C10.4747 12 10.6876 12.1007 10.83 12.2745C10.9725 12.4483 11.0295 12.6768 10.9854 12.8971L10.5011 15.3189L15.0188 10.5H13.25C13.004 10.5 12.7737 10.3794 12.6336 10.1772C12.4935 9.97502 12.4614 9.71698 12.5478 9.48666L13.6678 6.5H10.8157Z" fill="currentColor"/>
</svg>
