<svg width="24" height="24" viewBox="0 0 24 24" fill="none" xmlns="http://www.w3.org/2000/svg">
<path fill-rule="evenodd" clip-rule="evenodd" d="M13.2005 5.03118C13.3971 5.0897 13.5611 5.22618 13.6544 5.40884C13.7017 5.50132 13.7395 5.60446 13.7639 5.71404L13.7639 5.71405C14.0544 7.01978 14.8263 8.06292 15.583 9.06991L15.583 9.06991L15.6243 9.12483L15.6243 9.12483C16.5788 10.3954 17.5 11.6252 17.5 13.3212C17.5 16.2017 15.1289 18.5 12.25 18.5C9.37108 18.5 7 16.2017 7 13.3212C7 12.9589 7.08296 12.3583 7.22114 11.7236C7.30062 11.3585 7.39614 10.9925 7.50097 10.6599C7.58771 10.3848 7.8246 10.1837 8.11021 10.1429C8.39583 10.1021 8.67953 10.2288 8.83984 10.4687C8.90174 10.5613 8.96561 10.6591 9.03047 10.7585L9.03047 10.7586L9.05278 10.7928L9.05278 10.7928C9.25284 11.0996 9.45886 11.4124 9.65505 11.6293C9.75616 11.7411 9.86595 11.8407 9.98321 11.8998C10.1106 11.9639 10.2563 11.9833 10.3961 11.9147L10.6899 12.5127L10.3961 11.9147C10.5529 11.8377 10.6645 11.7364 10.736 11.6137C10.8064 11.4932 10.8343 11.3586 10.8376 11.2172C10.8437 10.9585 10.7648 10.6405 10.6758 10.3047L10.6605 10.2471L10.6605 10.2471C10.4927 9.61081 10.2945 8.8555 10.4691 8.0379C10.7555 6.69714 11.69 5.62792 12.6139 5.09909C12.7919 4.9972 13.0039 4.97266 13.2005 5.03118ZM12.6051 7.03837C12.2957 7.39931 12.0426 7.85239 11.936 8.3512C11.8465 8.77062 11.9334 9.19144 12.1109 9.86458C12.1109 9.86458 12.1109 9.86458 12.1109 9.86458L12.1257 9.92025L11.4007 10.1125L12.1257 9.92025C12.1283 9.93012 12.131 9.94026 12.1337 9.95065C12.213 10.249 12.3487 10.7596 12.3372 11.2523C12.3299 11.5651 12.2657 11.9686 12.0315 12.3698C11.7886 12.7861 11.4356 13.0753 11.0575 13.261C10.3751 13.5962 9.71877 13.446 9.30879 13.2396C8.96857 13.0683 8.72081 12.829 8.56921 12.6647C8.52173 12.9646 8.5 13.1957 8.5 13.3212C8.5 15.3475 10.1735 17 12.25 17C14.3265 17 16 15.3475 16 13.3212C16 12.2001 15.4256 11.3577 14.425 10.0258C14.425 10.0258 14.425 10.0258 14.425 10.0258L14.3839 9.97104C14.3742 9.9582 14.3645 9.94531 14.3548 9.93237C13.7792 9.16659 13.0624 8.21291 12.6051 7.03837Z" fill="currentColor"/>
</svg>
