<svg width="24" height="24" viewBox="0 0 24 24" fill="none" xmlns="http://www.w3.org/2000/svg">
<path fill-rule="evenodd" clip-rule="evenodd" d="M14.1219 5.93725C14.1506 5.64976 13.9786 5.38003 13.7058 5.28491C13.433 5.18978 13.1305 5.29405 12.9743 5.53709L8.47426 12.5371C8.35063 12.7294 8.34187 12.9739 8.45143 13.1746C8.56099 13.3752 8.77137 13.5001 9 13.5001H10.3094L9.8781 17.8129C9.84935 18.1004 10.0214 18.3701 10.2942 18.4652C10.567 18.5603 10.8695 18.4561 11.0257 18.213L15.5257 11.213C15.6494 11.0207 15.6581 10.7762 15.5486 10.5756C15.439 10.3749 15.2286 10.2501 15 10.2501H13.6906L14.1219 5.93725ZM11 12.2501H10.1448L12.6193 8.40081L12.3781 10.8129C12.3605 10.9886 12.4181 11.1635 12.5366 11.2944C12.6551 11.4254 12.8234 11.5001 13 11.5001H13.8552L11.3807 15.3493L11.6219 12.9373C11.6395 12.7615 11.5819 12.5866 11.4634 12.4557C11.3449 12.3248 11.1766 12.2501 11 12.2501Z" fill="currentColor"/>
<path d="M10.4454 6.85888C10.841 6.7364 11.0625 6.31634 10.9401 5.92065C10.8176 5.52495 10.3975 5.30347 10.0018 5.42595C7.25022 6.27764 5.25 8.8418 5.25 11.8751C5.25 13.9142 6.15513 15.7428 7.58298 16.9794C7.89609 17.2505 8.36975 17.2165 8.64092 16.9034C8.91208 16.5903 8.87808 16.1166 8.56496 15.8455C7.4521 14.8817 6.75 13.4608 6.75 11.8751C6.75 9.51786 8.30408 7.52166 10.4454 6.85888Z" fill="currentColor"/>
<path d="M16.585 6.9212C16.281 6.63978 15.8065 6.65804 15.5251 6.96197C15.2437 7.2659 15.2619 7.74043 15.5659 8.02185C16.6026 8.98182 17.25 10.3523 17.25 11.8751C17.25 14.1706 15.7763 16.1239 13.7211 16.8367C13.3298 16.9724 13.1226 17.3997 13.2583 17.791C13.394 18.1824 13.8213 18.3896 14.2126 18.2539C16.8528 17.3382 18.75 14.8291 18.75 11.8751C18.75 9.91723 17.9155 8.15316 16.585 6.9212Z" fill="currentColor"/>
</svg>
