<svg width="16" height="16" viewBox="0 0 16 16" fill="none" xmlns="http://www.w3.org/2000/svg">
<path d="M5 8.75C5.41421 8.75 5.75 8.41421 5.75 8C5.75 7.58579 5.41421 7.25 5 7.25C4.58579 7.25 4.25 7.58579 4.25 8C4.25 8.41421 4.58579 8.75 5 8.75Z" fill="currentColor"/>
<path d="M8.75 8C8.75 8.41421 8.41421 8.75 8 8.75C7.58579 8.75 7.25 8.41421 7.25 8C7.25 7.58579 7.58579 7.25 8 7.25C8.41421 7.25 8.75 7.58579 8.75 8Z" fill="currentColor"/>
<path d="M10.75 8.75C11.1642 8.75 11.5 8.41421 11.5 8C11.5 7.58579 11.1642 7.25 10.75 7.25C10.3358 7.25 10 7.58579 10 8C10 8.41421 10.3358 8.75 10.75 8.75Z" fill="currentColor"/>
<path fill-rule="evenodd" clip-rule="evenodd" d="M3.227 3.227C5.86301 0.590999 10.137 0.590999 12.773 3.227C15.409 5.86301 15.409 10.137 12.773 12.773C10.137 15.409 5.86301 15.409 3.227 12.773C0.590999 10.137 0.590999 5.86301 3.227 3.227ZM4.28766 4.28766C6.33788 2.23745 9.66212 2.23745 11.7123 4.28766C13.7626 6.33788 13.7626 9.66212 11.7123 11.7123C9.66212 13.7626 6.33788 13.7626 4.28766 11.7123C2.23745 9.66212 2.23745 6.33788 4.28766 4.28766Z" fill="currentColor"/>
</svg>
