<svg width="12" height="12" viewBox="0 0 12 12" fill="none" xmlns="http://www.w3.org/2000/svg">
<path fill-rule="evenodd" clip-rule="evenodd" d="M6.54684 1.43872C6.97755 1.49006 7.40237 1.6023 7.80739 1.77542L7.64437 2.05649C7.49283 2.31775 7.58179 2.65239 7.84305 2.80393C8.10432 2.95546 8.43896 2.86651 8.59049 2.60524L8.7543 2.32282C8.92646 2.45211 9.09161 2.59508 9.24826 2.75173C9.40797 2.91144 9.55346 3.07999 9.68474 3.2558L7.18873 4.76588C6.51792 4.11927 5.44991 4.12676 4.78831 4.78836C4.11913 5.45754 4.11913 6.5425 4.78831 7.21168C5.45749 7.88086 6.54244 7.88086 7.21162 7.21168C7.61286 6.81044 7.77352 6.25972 7.69359 5.73878L10.2296 4.20448C10.3999 4.60592 10.5104 5.02665 10.5613 5.45314H10.375C10.073 5.45314 9.82812 5.69799 9.82812 6.00002C9.82812 6.30205 10.073 6.54689 10.375 6.54689H10.5613C10.4444 7.52677 10.0125 8.47623 9.26532 9.23111C9.20164 9.15574 9.13328 9.08416 9.06059 9.01682C8.61292 8.6015 8.02643 8.36977 7.41407 8.36977H7.40944H7.40479H7.40014H7.39547H7.3908H7.38612H7.38142H7.37671H7.372H7.36727H7.36254H7.35779H7.35303H7.34827H7.34349H7.33871H7.33391H7.32911H7.32429H7.31947H7.31463H7.30979H7.30494H7.30007H7.2952H7.29032H7.28543H7.28053H7.27561H7.27069H7.26577H7.26083H7.25588H7.25092H7.24596H7.24098H7.236H7.23101H7.22601H7.22099H7.21598H7.21095H7.20591H7.20087H7.19581H7.19075H7.18568H7.1806H7.17551H7.17041H7.1653H7.16019H7.15507H7.14994H7.1448H7.13965H7.1345H7.12933H7.12416H7.11898H7.11379H7.1086H7.10339H7.09818H7.09296H7.08773H7.0825H7.07726H7.07201H7.06675H7.06148H7.05621H7.05093H7.04564H7.04034H7.03504H7.02973H7.02441H7.01909H7.01375H7.00841H7.00307H6.99771H6.99235H6.98698H6.98161H6.97622H6.97083H6.96544H6.96004H6.95463H6.94921H6.94379H6.93836H6.93292H6.92748H6.92203H6.91657H6.91111H6.90564H6.90016H6.89468H6.88919H6.8837H6.8782H6.87269H6.86718H6.86166H6.85613H6.8506H6.84506H6.83952H6.83397H6.82842H6.82286H6.81729H6.81172H6.80614H6.80056H6.79497H6.78937H6.78377H6.77817H6.77255H6.76694H6.76131H6.75569H6.75005H6.74442H6.73877H6.73313H6.72747H6.72181H6.71615H6.71048H6.70481H6.69913H6.69345H6.68776H6.68206H6.67637H6.67066H6.66496H6.65925H6.65353H6.64781H6.64208H6.63635H6.63062H6.62488H6.61914H6.61339H6.60764H6.60188H6.59612H6.59036H6.58459H6.57882H6.57304H6.56726H6.56148H6.55569H6.5499H6.5441H6.5383H6.5325H6.52669H6.52088H6.51507H6.50925H6.50343H6.4976H6.49177H6.48594H6.48011H6.47427H6.46843H6.46258H6.45673H6.45088H6.44503H6.43917H6.43331H6.42745H6.42158H6.41571H6.40984H6.40396H6.39809H6.3922H6.38632H6.38044H6.37455H6.36866H6.36276H6.35687H6.35097H6.34507H6.33916H6.33326H6.32735H6.32144H6.31553H6.30961H6.30369H6.29778H6.29185H6.28593H6.28001H6.27408H6.26815H6.26222H6.25629H6.25035H6.24442H6.23848H6.23254H6.2266H6.22066H6.21471H6.20877H6.20282H6.19687H6.19092H6.18497H6.17902H6.17307H6.16711H6.16116H6.1552H6.14924H6.14328H6.13732H6.13136H6.1254H6.11944H6.11348H6.10751H6.10155H6.09558H6.08962H6.08365H6.07768H6.07171H6.06574H6.05978H6.05381H6.04784H6.04187H6.0359H6.02993H6.02395H6.01798H6.01201H6.00604H6.00007H5.9941H5.98813H5.98216H5.97619H5.97022H5.96424H5.95827H5.9523H5.94633H5.94037H5.9344H5.92843H5.92246H5.91649H5.91053H5.90456H5.89859H5.89263H5.88666H5.8807H5.87474H5.86878H5.86282H5.85686H5.8509H5.84494H5.83898H5.83303H5.82707H5.82112H5.81517H5.80922H5.80327H5.79732H5.79137H5.78543H5.77948H5.77354H5.7676H5.76166H5.75572H5.74979H5.74385H5.73792H5.73199H5.72606H5.72013H5.71421H5.70829H5.70236H5.69645H5.69053H5.68461H5.6787H5.67279H5.66688H5.66098H5.65507H5.64917H5.64327H5.63738H5.63148H5.62559H5.61971H5.61382H5.60794H5.60206H5.59618H5.5903H5.58443H5.57856H5.57269H5.56683H5.56097H5.55511H5.54926H5.54341H5.53756H5.53171H5.52587H5.52003H5.5142H5.50837H5.50254H5.49672H5.49089H5.48508H5.47926H5.47345H5.46764H5.46184H5.45604H5.45025H5.44445H5.43866H5.43288H5.4271H5.42132H5.41555H5.40978H5.40402H5.39826H5.3925H5.38675H5.381H5.37526H5.36952H5.36379H5.35806H5.35233H5.34661H5.3409H5.33518H5.32948H5.32377H5.31808H5.31238H5.3067H5.30101H5.29533H5.28966H5.28399H5.27833H5.27267H5.26702H5.26137H5.25572H5.25009H5.24445H5.23883H5.2332H5.22759H5.22198H5.21637H5.21077H5.20517H5.19959H5.194H5.18842H5.18285H5.17728H5.17172H5.16617H5.16062H5.15508H5.14954H5.14401H5.13848H5.13296H5.12745H5.12194H5.11644H5.11095H5.10546H5.09998H5.0945H5.08903H5.08357H5.07811H5.07266H5.06722H5.06178H5.05635H5.05093H5.04551H5.0401H5.0347H5.02931H5.02392H5.01853H5.01316H5.00779H5.00243H4.99708H4.99173H4.98639H4.98106H4.97573H4.97041H4.9651H4.9598H4.9545H4.94921H4.94393H4.93866H4.93339H4.92813H4.92288H4.91764H4.91241H4.90718H4.90196H4.89675H4.89154H4.88635H4.88116H4.87598H4.87081H4.86564H4.86049H4.85534H4.8502H4.84507H4.83995H4.83484H4.82973H4.82463H4.81954H4.81446H4.80939H4.80433H4.79928H4.79423H4.78919H4.78417H4.77915H4.77414H4.76913H4.76414H4.75916H4.75418H4.74922H4.74426H4.73931H4.73438H4.72945H4.72453H4.71962H4.71472H4.70982H4.70494H4.70007H4.69521H4.69035H4.68551H4.68067H4.67585H4.67103H4.66623H4.66143H4.65665H4.65187H4.64711H4.64235H4.6376H4.63287H4.62814H4.62343H4.61872H4.61403H4.60934H4.60467H4.6H4.59535H4.5907H4.58607C3.97363 8.36977 3.38734 8.60154 2.9393 9.01651C2.86648 9.08394 2.79812 9.15557 2.73448 9.23093C1.98745 8.47607 1.55554 7.52669 1.43873 6.54689H1.625C1.92703 6.54689 2.17188 6.30205 2.17188 6.00002C2.17188 5.69799 1.92703 5.45314 1.625 5.45314H1.43872C1.49006 5.02243 1.6023 4.5976 1.77543 4.19258L2.05643 4.35556C2.3177 4.5071 2.65234 4.41814 2.80387 4.15688C2.95541 3.89561 2.86645 3.56097 2.60519 3.40944L2.32283 3.24567C2.45212 3.07351 2.59508 2.90837 2.75173 2.75173L2.75173 2.75173C2.90837 2.59509 3.0735 2.45213 3.24565 2.32285L3.40943 2.60524C3.56097 2.86651 3.89561 2.95546 4.15688 2.80393C4.41814 2.65239 4.5071 2.31775 4.35556 2.05649L4.19256 1.77544C4.59756 1.60231 5.02239 1.49008 5.45309 1.43873V1.91667C5.45309 2.2187 5.69793 2.46354 5.99996 2.46354C6.30199 2.46354 6.54684 2.2187 6.54684 1.91667V1.43872ZM6.52951 5.67768C6.5416 5.71117 6.55715 5.74396 6.57628 5.77558C6.57765 5.77785 6.57904 5.7801 6.58044 5.78234C6.66298 6.00285 6.61557 6.26093 6.43823 6.43828C6.19618 6.68032 5.80375 6.68032 5.56171 6.43828C5.31966 6.19624 5.31966 5.8038 5.56171 5.56176C5.80375 5.31972 6.19618 5.31972 6.43823 5.56176C6.47392 5.59745 6.50435 5.63641 6.52951 5.67768ZM3.59091 9.91259C5.06305 10.8207 6.93665 10.8208 8.40884 9.91273C8.37988 9.88009 8.34926 9.84879 8.31706 9.81897L8.31671 9.81865C8.07022 9.58997 7.74905 9.46353 7.41407 9.46353H7.40944H7.40479H7.40014H7.39547H7.3908H7.38612H7.38142H7.37671H7.372H7.36727H7.36254H7.35779H7.35303H7.34827H7.34349H7.33871H7.33391H7.32911H7.32429H7.31947H7.31463H7.30979H7.30494H7.30007H7.2952H7.29032H7.28543H7.28053H7.27561H7.27069H7.26577H7.26083H7.25588H7.25092H7.24596H7.24098H7.236H7.23101H7.22601H7.22099H7.21598H7.21095H7.20591H7.20087H7.19581H7.19075H7.18568H7.1806H7.17551H7.17041H7.1653H7.16019H7.15507H7.14994H7.1448H7.13965H7.1345H7.12933H7.12416H7.11898H7.11379H7.1086H7.10339H7.09818H7.09296H7.08773H7.0825H7.07726H7.07201H7.06675H7.06148H7.05621H7.05093H7.04564H7.04034H7.03504H7.02973H7.02441H7.01909H7.01375H7.00841H7.00307H6.99771H6.99235H6.98698H6.98161H6.97622H6.97083H6.96544H6.96004H6.95463H6.94921H6.94379H6.93836H6.93292H6.92748H6.92203H6.91657H6.91111H6.90564H6.90016H6.89468H6.88919H6.8837H6.8782H6.87269H6.86718H6.86166H6.85613H6.8506H6.84506H6.83952H6.83397H6.82842H6.82286H6.81729H6.81172H6.80614H6.80056H6.79497H6.78937H6.78377H6.77817H6.77255H6.76694H6.76131H6.75569H6.75005H6.74442H6.73877H6.73313H6.72747H6.72181H6.71615H6.71048H6.70481H6.69913H6.69345H6.68776H6.68206H6.67637H6.67066H6.66496H6.65925H6.65353H6.64781H6.64208H6.63635H6.63062H6.62488H6.61914H6.61339H6.60764H6.60188H6.59612H6.59036H6.58459H6.57882H6.57304H6.56726H6.56148H6.55569H6.5499H6.5441H6.5383H6.5325H6.52669H6.52088H6.51507H6.50925H6.50343H6.4976H6.49177H6.48594H6.48011H6.47427H6.46843H6.46258H6.45673H6.45088H6.44503H6.43917H6.43331H6.42745H6.42158H6.41571H6.40984H6.40396H6.39809H6.3922H6.38632H6.38044H6.37455H6.36866H6.36276H6.35687H6.35097H6.34507H6.33916H6.33326H6.32735H6.32144H6.31553H6.30961H6.30369H6.29778H6.29185H6.28593H6.28001H6.27408H6.26815H6.26222H6.25629H6.25035H6.24442H6.23848H6.23254H6.2266H6.22066H6.21471H6.20877H6.20282H6.19687H6.19092H6.18497H6.17902H6.17307H6.16711H6.16116H6.1552H6.14924H6.14328H6.13732H6.13136H6.1254H6.11944H6.11348H6.10751H6.10155H6.09558H6.08962H6.08365H6.07768H6.07171H6.06574H6.05978H6.05381H6.04784H6.04187H6.0359H6.02993H6.02395H6.01798H6.01201H6.00604H6.00007H5.9941H5.98813H5.98216H5.97619H5.97022H5.96424H5.95827H5.9523H5.94633H5.94037H5.9344H5.92843H5.92246H5.91649H5.91053H5.90456H5.89859H5.89263H5.88666H5.8807H5.87474H5.86878H5.86282H5.85686H5.8509H5.84494H5.83898H5.83303H5.82707H5.82112H5.81517H5.80922H5.80327H5.79732H5.79137H5.78543H5.77948H5.77354H5.7676H5.76166H5.75572H5.74979H5.74385H5.73792H5.73199H5.72606H5.72013H5.71421H5.70829H5.70236H5.69645H5.69053H5.68461H5.6787H5.67279H5.66688H5.66098H5.65507H5.64917H5.64327H5.63738H5.63148H5.62559H5.61971H5.61382H5.60794H5.60206H5.59618H5.5903H5.58443H5.57856H5.57269H5.56683H5.56097H5.55511H5.54926H5.54341H5.53756H5.53171H5.52587H5.52003H5.5142H5.50837H5.50254H5.49672H5.49089H5.48508H5.47926H5.47345H5.46764H5.46184H5.45604H5.45025H5.44445H5.43866H5.43288H5.4271H5.42132H5.41555H5.40978H5.40402H5.39826H5.3925H5.38675H5.381H5.37526H5.36952H5.36379H5.35806H5.35233H5.34661H5.3409H5.33518H5.32948H5.32377H5.31808H5.31238H5.3067H5.30101H5.29533H5.28966H5.28399H5.27833H5.27267H5.26702H5.26137H5.25572H5.25009H5.24445H5.23883H5.2332H5.22759H5.22198H5.21637H5.21077H5.20517H5.19959H5.194H5.18842H5.18285H5.17728H5.17172H5.16617H5.16062H5.15508H5.14954H5.14401H5.13848H5.13296H5.12745H5.12194H5.11644H5.11095H5.10546H5.09998H5.0945H5.08903H5.08357H5.07811H5.07266H5.06722H5.06178H5.05635H5.05093H5.04551H5.0401H5.0347H5.02931H5.02392H5.01853H5.01316H5.00779H5.00243H4.99708H4.99173H4.98639H4.98106H4.97573H4.97041H4.9651H4.9598H4.9545H4.94921H4.94393H4.93866H4.93339H4.92813H4.92288H4.91764H4.91241H4.90718H4.90196H4.89675H4.89154H4.88635H4.88116H4.87598H4.87081H4.86564H4.86049H4.85534H4.8502H4.84507H4.83995H4.83484H4.82973H4.82463H4.81954H4.81446H4.80939H4.80433H4.79928H4.79423H4.78919H4.78417H4.77915H4.77414H4.76913H4.76414H4.75916H4.75418H4.74922H4.74426H4.73931H4.73438H4.72945H4.72453H4.71962H4.71472H4.70982H4.70494H4.70007H4.69521H4.69035H4.68551H4.68067H4.67585H4.67103H4.66623H4.66143H4.65665H4.65187H4.64711H4.64235H4.6376H4.63287H4.62814H4.62343H4.61872H4.61403H4.60934H4.60467H4.6H4.59535H4.5907H4.58607C4.25117 9.46353 3.9298 9.58993 3.68251 9.81896L3.6825 9.81897C3.65038 9.84871 3.61983 9.87996 3.59091 9.91259ZM10.1763 10.1763C12.4829 7.86982 12.4829 4.13019 10.1763 1.82365C7.86981 -0.482884 4.13019 -0.482884 1.82365 1.82365C-0.482885 4.13018 -0.482883 7.8698 1.82365 10.1763C4.13017 12.4829 7.8698 12.4829 10.1763 10.1763Z" fill="currentColor"/>
</svg>
