<svg width="24" height="24" viewBox="0 0 24 24" fill="none" xmlns="http://www.w3.org/2000/svg">
<path d="M6 14C6 15.5067 7.08618 17.0467 9 17.6891L9 13C9 12.6357 9.09741 12.2942 9.26758 12H7.5C6.67163 12 6 12.6716 6 13.5V14ZM11 5.5C12.5188 5.5 13.75 6.73122 13.75 8.25C13.75 9.76878 12.5188 11 11 11C9.4812 11 8.25 9.76878 8.25 8.25C8.25 6.73122 9.4812 5.5 11 5.5ZM14.5098 15.9268L10.0127 13.3036C10.1089 12.568 10.738 12 11.5 12L17.5 12C18.3284 12 19 12.6716 19 13.5V13.509L14.5098 15.9268ZM14.7371 16.9402L19 14.6448V17.5C19 18.3284 18.3284 19 17.5 19H11.5C10.6716 19 10 18.3284 10 17.5L10 14.4539L14.248 16.9319C14.3984 17.0196 14.5837 17.0228 14.7371 16.9402Z" fill="currentColor"/>
</svg>
