<svg width="24" height="24" viewBox="0 0 24 24" fill="none" xmlns="http://www.w3.org/2000/svg">
<path d="M10.9999 15.4993C10.9999 14.9364 11.1859 14.417 11.4997 13.9992L5.25229 13.9992C4.01027 13.9992 3.00342 15.0061 3.00342 16.2481L3.00342 17.1681C3.00342 17.7401 3.18182 18.298 3.51379 18.7639C5.05595 20.9282 7.57891 22.0004 10.9999 22.0004L11.0501 22.0003C11.0172 21.8384 10.9999 21.6709 10.9999 21.4993L10.9999 15.4993ZM10.9999 2.00391C13.7613 2.00391 15.9999 4.24248 15.9999 7.00391C15.9999 9.76533 13.7613 12.0039 10.9999 12.0039C8.23845 12.0039 5.99988 9.76533 5.99988 7.00391C5.99988 4.24248 8.23845 2.00391 10.9999 2.00391ZM17.5098 18.9261L12.0189 15.7231C12.1534 14.7492 12.9891 13.9993 14 13.9993L21 13.9993C22.0948 13.9993 22.9841 14.8789 22.9998 15.97L17.5098 18.9261ZM17.737 19.9395L23 17.1056L23 20.9993C23 22.1038 22.1046 22.9993 21 22.9993L14 22.9993C12.8954 22.9993 12 22.1038 12 20.9993L12 16.8698L17.2481 19.9312C17.3985 20.0189 17.5837 20.0221 17.737 19.9395Z" fill="currentColor"/>
</svg>
