<svg width="24" height="24" viewBox="0 0 24 24" fill="none" xmlns="http://www.w3.org/2000/svg">
<path d="M11 4C8.79086 4 7 5.79086 7 8C7 10.2091 8.79086 12 11 12C13.2091 12 15 10.2091 15 8C15 5.79086 13.2091 4 11 4ZM6.00873 13C4.90315 13 4 13.8869 4 15C4 16.6912 4.83281 17.9663 6.13499 18.7966C7.41697 19.614 9.14526 20 11 20C11.4109 20 11.8155 19.9811 12.2105 19.9427C11.4532 19.0003 11 17.8031 11 16.5C11 15.1704 11.4718 13.9509 12.2572 13L6.00873 13ZM16.5 21C18.9853 21 21 18.9853 21 16.5C21 14.0147 18.9853 12 16.5 12C14.0147 12 12 14.0147 12 16.5C12 18.9853 14.0147 21 16.5 21ZM16.5 14C16.7761 14 17 14.2239 17 14.5L17 16L18.5 16C18.7761 16 19 16.2239 19 16.5C19 16.7761 18.7761 17 18.5 17L17 17L17 18.5C17 18.7761 16.7761 19 16.5 19C16.2239 19 16 18.7761 16 18.5L16 17L14.5 17C14.2239 17 14 16.7761 14 16.5C14 16.2239 14.2239 16 14.5 16L16 16L16 14.5C16 14.2239 16.2239 14 16.5 14Z" fill="currentColor"/>
</svg>
