<svg width="13" height="14" viewBox="0 0 13 14" fill="none" xmlns="http://www.w3.org/2000/svg">
<path d="M4.22176 12.9567C1.55468 12.653 0 10.8026 0 9L0 8.5C0 7.67157 0.671573 7 1.5 7H3.59971C3.43777 7.31679 3.30564 7.65136 3.20703 8H1.5C1.22386 8 1 8.22386 1 8.5V9C1 10.1281 1.88187 11.333 3.50235 11.7996C3.69426 12.216 3.93668 12.6043 4.22176 12.9567ZM7.62596 4.06907C7.70657 3.81036 7.75 3.53525 7.75 3.25C7.75 1.73122 6.51878 0.5 5 0.5C3.48122 0.5 2.25 1.73122 2.25 3.25C2.25 4.53662 3.13357 5.61687 4.32704 5.91706C4.64202 5.55055 5.00446 5.226 5.40482 4.95294C5.27488 4.98371 5.13934 5 5 5C4.0335 5 3.25 4.2165 3.25 3.25C3.25 2.2835 4.0335 1.5 5 1.5C5.9665 1.5 6.75 2.2835 6.75 3.25C6.75 3.73141 6.55561 4.16743 6.24104 4.48382C6.67558 4.28783 7.14016 4.14664 7.62596 4.06907ZM8.5 14C10.9853 14 13 11.9853 13 9.5C13 7.01472 10.9853 5 8.5 5C6.01472 5 4 7.01472 4 9.5C4 11.9853 6.01472 14 8.5 14ZM8.5 7C8.77614 7 9 7.22386 9 7.5L9 9H10.5C10.7761 9 11 9.22386 11 9.5C11 9.77614 10.7761 10 10.5 10H9V11.5C9 11.7761 8.77614 12 8.5 12C8.22386 12 8 11.7761 8 11.5L8 10L6.5 10C6.22386 10 6 9.77614 6 9.5C6 9.22386 6.22386 9 6.5 9L8 9V7.5C8 7.22386 8.22386 7 8.5 7Z" fill="currentColor"/>
</svg>
