<svg width="16" height="16" viewBox="0 0 16 16" fill="none" xmlns="http://www.w3.org/2000/svg">
<path fill-rule="evenodd" clip-rule="evenodd" d="M8.62496 2.78711C9.1172 2.84579 9.60271 2.97405 10.0656 3.17191L9.87928 3.49313C9.70609 3.79172 9.80776 4.17416 10.1063 4.34735C10.4049 4.52053 10.7874 4.41887 10.9606 4.12028L11.1478 3.7975C11.3445 3.94527 11.5333 4.10866 11.7123 4.28769C11.8948 4.47022 12.0611 4.66284 12.2111 4.86377L9.35855 6.58958C8.59191 5.85059 7.37132 5.85915 6.61521 6.61527C5.85043 7.38005 5.85043 8.62 6.61521 9.38477C7.37999 10.1496 8.61994 10.1496 9.38471 9.38477C9.84327 8.92622 10.0269 8.29683 9.93554 7.70147L12.8339 5.94798C13.0284 6.40676 13.1548 6.8876 13.2129 7.37502H13C12.6548 7.37502 12.375 7.65484 12.375 8.00002C12.375 8.3452 12.6548 8.62502 13 8.62502H13.2129C13.0794 9.74488 12.5857 10.83 11.7318 11.6927C11.659 11.6066 11.5809 11.5248 11.4978 11.4478C10.9862 10.9731 10.3159 10.7083 9.61608 10.7083H9.61079H9.60548H9.60016H9.59483H9.58949H9.58413H9.57877H9.57339H9.568H9.5626H9.55719H9.55176H9.54633H9.54088H9.53542H9.52995H9.52447H9.51898H9.51348H9.50796H9.50244H9.4969H9.49135H9.4858H9.48023H9.47465H9.46906H9.46346H9.45784H9.45222H9.44659H9.44095H9.43529H9.42963H9.42395H9.41827H9.41257H9.40687H9.40115H9.39542H9.38969H9.38394H9.37818H9.37242H9.36664H9.36086H9.35506H9.34925H9.34344H9.33761H9.33178H9.32593H9.32008H9.31421H9.30834H9.30246H9.29657H9.29066H9.28475H9.27884H9.27291H9.26697H9.26102H9.25506H9.2491H9.24313H9.23714H9.23115H9.22515H9.21914H9.21312H9.2071H9.20106H9.19502H9.18896H9.1829H9.17683H9.17075H9.16467H9.15857H9.15247H9.14636H9.14024H9.13411H9.12798H9.12184H9.11568H9.10953H9.10336H9.09718H9.091H9.08481H9.07861H9.07241H9.06619H9.05997H9.05374H9.04751H9.04127H9.03502H9.02876H9.02249H9.01622H9.00994H9.00365H8.99736H8.99106H8.98475H8.97844H8.97212H8.96579H8.95945H8.95311H8.94676H8.94041H8.93405H8.92768H8.9213H8.91492H8.90853H8.90214H8.89574H8.88933H8.88292H8.8765H8.87007H8.86364H8.85721H8.85076H8.84431H8.83786H8.8314H8.82493H8.81846H8.81198H8.80549H8.799H8.79251H8.78601H8.7795H8.77299H8.76647H8.75995H8.75342H8.74689H8.74035H8.73381H8.72726H8.72071H8.71415H8.70758H8.70102H8.69444H8.68786H8.68128H8.67469H8.6681H8.6615H8.6549H8.6483H8.64169H8.63507H8.62845H8.62183H8.6152H8.60857H8.60193H8.59529H8.58865H8.582H8.57534H8.56869H8.56203H8.55536H8.54869H8.54202H8.53534H8.52866H8.52198H8.51529H8.5086L8.50191 10.7083H8.49521H8.48851H8.48181H8.4751H8.46839H8.46167H8.45495H8.44823H8.44151H8.43478H8.42805H8.42132H8.41459H8.40785H8.40111H8.39436H8.38762H8.38087H8.37411H8.36736H8.3606H8.35384H8.34708H8.34032H8.33355H8.32678H8.32001H8.31323H8.30646H8.29968H8.2929H8.28612H8.27934H8.27255H8.26576H8.25897H8.25218H8.24539H8.23859H8.2318H8.225H8.2182H8.2114H8.2046H8.19779H8.19099H8.18418H8.17737H8.17056H8.16375H8.15694H8.15013H8.14332H8.1365H8.12969H8.12287H8.11605H8.10924H8.10242H8.0956H8.08878H8.08196H8.07514H8.06831H8.06149H8.05467H8.04785H8.04102H8.0342H8.02738H8.02055H8.01373H8.0069H8.00008H7.99326H7.98643H7.97961H7.97278H7.96596H7.95914H7.95231H7.94549H7.93867H7.93185H7.92502H7.9182H7.91138H7.90456H7.89774H7.89092H7.88411H7.87729H7.87047H7.86366H7.85684H7.85003H7.84322H7.83641H7.8296H7.82279H7.81598H7.80917H7.80237H7.79556H7.78876H7.78196H7.77516H7.76836H7.76157H7.75477H7.74798H7.74119H7.7344H7.72761H7.72083H7.71404H7.70726H7.70048H7.6937H7.68693H7.68015H7.67338H7.66661H7.65985H7.65308H7.64632H7.63956H7.6328H7.62605H7.6193H7.61255H7.6058H7.59906H7.59231H7.58558H7.57884H7.57211H7.56538H7.55865H7.55193H7.54521H7.53849H7.53177H7.52506H7.51836H7.51165H7.50495H7.49825H7.49156H7.48487H7.47818H7.4715H7.46482H7.45814H7.45147H7.4448H7.43814H7.43147H7.42482H7.41816H7.41152H7.40487H7.39823H7.39159H7.38496H7.37833H7.37171H7.36509H7.35847H7.35186H7.34526H7.33866H7.33206H7.32547H7.31888H7.3123H7.30572H7.29914H7.29258H7.28601H7.27945H7.2729H7.26635H7.25981H7.25327H7.24674H7.24021H7.23369H7.22717H7.22066H7.21415H7.20765H7.20116H7.19467H7.18818H7.1817H7.17523H7.16876H7.1623H7.15585H7.1494H7.14296H7.13652H7.13009H7.12366H7.11724H7.11083H7.10442H7.09802H7.09163H7.08524H7.07886H7.07248H7.06612H7.05975H7.0534H7.04705H7.04071H7.03437H7.02804H7.02172H7.01541H7.0091H7.0028H6.99651H6.99022H6.98394H6.97767H6.9714H6.96515H6.95889H6.95265H6.94642H6.94019H6.93397H6.92775H6.92155H6.91535H6.90916H6.90298H6.8968H6.89064H6.88448H6.87832H6.87218H6.86605H6.85992H6.8538H6.84769H6.84159H6.83549H6.82941H6.82333H6.81726H6.8112H6.80515H6.7991H6.79307H6.78704H6.78102H6.77501H6.76901H6.76302H6.75704H6.75106H6.7451H6.73914H6.73319H6.72725H6.72133H6.71541H6.7095H6.70359H6.6977H6.69182H6.68595H6.68008H6.67423H6.66838H6.66255H6.65672H6.65091H6.6451H6.63931H6.63352H6.62774H6.62198H6.61622H6.61047H6.60474H6.59901H6.5933H6.58759H6.58189H6.57621H6.57053H6.56487H6.55922H6.55357H6.54794H6.54232H6.5367H6.5311H6.52551H6.51993H6.51436H6.50881H6.50326H6.49772H6.4922H6.48668H6.48118H6.47569H6.47021H6.46474H6.45928H6.45383H6.4484H6.44298H6.43756H6.43216H6.42677H6.4214H6.41603H6.41068H6.40533H6.4H6.39468H6.38938H6.38408C5.68415 10.7083 5.01411 10.9732 4.50206 11.4474C4.41884 11.5245 4.34071 11.6064 4.26798 11.6925C3.41423 10.8298 2.92061 9.74479 2.78712 8.62502H3C3.34518 8.62502 3.625 8.3452 3.625 8.00002C3.625 7.65484 3.34518 7.37502 3 7.37502H2.78711C2.84579 6.88278 2.97406 6.39725 3.17192 5.93438L3.49307 6.12064C3.79166 6.29383 4.1741 6.19216 4.34729 5.89357C4.52047 5.59498 4.4188 5.21254 4.12021 5.03935L3.79752 4.85219C3.94528 4.65544 4.10867 4.46671 4.28769 4.28769L4.28769 4.28769C4.4667 4.10868 4.65543 3.94529 4.85217 3.79754L5.03935 4.12028C5.21254 4.41887 5.59498 4.52053 5.89357 4.34735C6.19216 4.17416 6.29383 3.79172 6.12064 3.49313L5.93435 3.17193C6.39721 2.97407 6.88273 2.8458 7.37496 2.78712V3.33333C7.37496 3.67851 7.65478 3.95833 7.99996 3.95833C8.34514 3.95833 8.62496 3.67851 8.62496 3.33333V2.78711ZM8.60515 7.63163C8.61897 7.6699 8.63674 7.70738 8.65861 7.74352C8.66018 7.74611 8.66176 7.74869 8.66336 7.75125C8.75769 8.00326 8.70351 8.29821 8.50083 8.50089C8.22421 8.77751 7.77571 8.77751 7.49909 8.50089C7.22247 8.22427 7.22247 7.77578 7.49909 7.49915C7.77571 7.22253 8.22421 7.22253 8.50083 7.49915C8.54162 7.53994 8.57639 7.58447 8.60515 7.63163ZM5.24675 12.4715C6.9292 13.5094 9.07046 13.5095 10.753 12.4717C10.7199 12.4344 10.6849 12.3986 10.6481 12.3645L10.6477 12.3642C10.366 12.1028 9.99891 11.9583 9.61608 11.9583H9.61079H9.60548H9.60016H9.59483H9.58949H9.58413H9.57877H9.57339H9.568H9.5626H9.55719H9.55176H9.54633H9.54088H9.53542H9.52995H9.52447H9.51898H9.51348H9.50796H9.50244H9.4969H9.49135H9.4858H9.48023H9.47465H9.46906H9.46346H9.45784H9.45222H9.44659H9.44095H9.43529H9.42963H9.42395H9.41827H9.41257H9.40687H9.40115H9.39542H9.38969H9.38394H9.37818H9.37242H9.36664H9.36086H9.35506H9.34925H9.34344H9.33761H9.33178H9.32593H9.32008H9.31421H9.30834H9.30246H9.29657H9.29066H9.28475H9.27884H9.27291H9.26697H9.26102H9.25506H9.2491H9.24313H9.23714H9.23115H9.22515H9.21914H9.21312H9.2071H9.20106H9.19502H9.18896H9.1829H9.17683H9.17075H9.16467H9.15857H9.15247H9.14636H9.14024H9.13411H9.12798H9.12184H9.11568H9.10953H9.10336H9.09718H9.091H9.08481H9.07861H9.07241H9.06619H9.05997H9.05374H9.04751H9.04127H9.03502H9.02876H9.02249H9.01622H9.00994H9.00365H8.99736H8.99106H8.98475H8.97844H8.97212H8.96579H8.95945H8.95311H8.94676H8.94041H8.93405H8.92768H8.9213H8.91492H8.90853H8.90214H8.89574H8.88933H8.88292H8.8765H8.87007H8.86364H8.85721H8.85076H8.84431H8.83786H8.8314H8.82493H8.81846H8.81198H8.80549H8.799H8.79251H8.78601H8.7795H8.77299H8.76647H8.75995H8.75342H8.74689H8.74035H8.73381H8.72726H8.72071H8.71415H8.70758H8.70102H8.69444H8.68786H8.68128H8.67469H8.6681H8.6615H8.6549H8.6483H8.64169H8.63507H8.62845H8.62183H8.6152H8.60857H8.60193H8.59529H8.58865H8.582H8.57534H8.56869H8.56203H8.55536H8.54869H8.54202H8.53534H8.52866H8.52198H8.51529H8.5086L8.50191 11.9583H8.49521H8.48851H8.48181H8.4751H8.46839H8.46167H8.45495H8.44823H8.44151H8.43478H8.42805H8.42132H8.41459H8.40785H8.40111H8.39436H8.38762H8.38087H8.37411H8.36736H8.3606H8.35384H8.34708H8.34032H8.33355H8.32678H8.32001H8.31323H8.30646H8.29968H8.2929H8.28612H8.27934H8.27255H8.26576H8.25897H8.25218H8.24539H8.23859H8.2318H8.225H8.2182H8.2114H8.2046H8.19779H8.19099H8.18418H8.17737H8.17056H8.16375H8.15694H8.15013H8.14332H8.1365H8.12969H8.12287H8.11605H8.10924H8.10242H8.0956H8.08878H8.08196H8.07514H8.06831H8.06149H8.05467H8.04785H8.04102H8.0342H8.02738H8.02055H8.01373H8.0069H8.00008H7.99326H7.98643H7.97961H7.97278H7.96596H7.95914H7.95231H7.94549H7.93867H7.93185H7.92502H7.9182H7.91138H7.90456H7.89774H7.89092H7.88411H7.87729H7.87047H7.86366H7.85684H7.85003H7.84322H7.83641H7.8296H7.82279H7.81598H7.80917H7.80237H7.79556H7.78876H7.78196H7.77516H7.76836H7.76157H7.75477H7.74798H7.74119H7.7344H7.72761H7.72083H7.71404H7.70726H7.70048H7.6937H7.68693H7.68015H7.67338H7.66661H7.65985H7.65308H7.64632H7.63956H7.6328H7.62605H7.6193H7.61255H7.6058H7.59906H7.59231H7.58558H7.57884H7.57211H7.56538H7.55865H7.55193H7.54521H7.53849H7.53177H7.52506H7.51836H7.51165H7.50495H7.49825H7.49156H7.48487H7.47818H7.4715H7.46482H7.45814H7.45147H7.4448H7.43814H7.43147H7.42482H7.41816H7.41152H7.40487H7.39823H7.39159H7.38496H7.37833H7.37171H7.36509H7.35847H7.35186H7.34526H7.33866H7.33206H7.32547H7.31888H7.3123H7.30572H7.29914H7.29258H7.28601H7.27945H7.2729H7.26635H7.25981H7.25327H7.24674H7.24021H7.23369H7.22717H7.22066H7.21415H7.20765H7.20116H7.19467H7.18818H7.1817H7.17523H7.16876H7.1623H7.15585H7.1494H7.14296H7.13652H7.13009H7.12366H7.11724H7.11083H7.10442H7.09802H7.09163H7.08524H7.07886H7.07248H7.06612H7.05975H7.0534H7.04705H7.04071H7.03437H7.02804H7.02172H7.01541H7.0091H7.0028H6.99651H6.99022H6.98394H6.97767H6.9714H6.96515H6.95889H6.95265H6.94642H6.94019H6.93397H6.92775H6.92155H6.91535H6.90916H6.90298H6.8968H6.89064H6.88448H6.87832H6.87218H6.86605H6.85992H6.8538H6.84769H6.84159H6.83549H6.82941H6.82333H6.81726H6.8112H6.80515H6.7991H6.79307H6.78704H6.78102H6.77501H6.76901H6.76302H6.75704H6.75106H6.7451H6.73914H6.73319H6.72725H6.72133H6.71541H6.7095H6.70359H6.6977H6.69182H6.68595H6.68008H6.67423H6.66838H6.66255H6.65672H6.65091H6.6451H6.63931H6.63352H6.62774H6.62198H6.61622H6.61047H6.60474H6.59901H6.5933H6.58759H6.58189H6.57621H6.57053H6.56487H6.55922H6.55357H6.54794H6.54232H6.5367H6.5311H6.52551H6.51993H6.51436H6.50881H6.50326H6.49772H6.4922H6.48668H6.48118H6.47569H6.47021H6.46474H6.45928H6.45383H6.4484H6.44298H6.43756H6.43216H6.42677H6.4214H6.41603H6.41068H6.40533H6.4H6.39468H6.38938H6.38408C6.00134 11.9583 5.63406 12.1028 5.35144 12.3645L5.35143 12.3645C5.31472 12.3985 5.2798 12.4342 5.24675 12.4715ZM12.773 12.773C15.409 10.1369 15.409 5.86307 12.773 3.22703C10.1369 0.590989 5.86307 0.59099 3.22703 3.22703C0.590989 5.86306 0.590991 10.1369 3.22703 12.773C5.86306 15.409 10.1369 15.409 12.773 12.773Z" fill="currentColor"/>
</svg>
