<svg xmlns="http://www.w3.org/2000/svg" width="24" height="24" viewBox="0 0 24 24">
  <g transform="translate(-167 -53)"> 
    <path   d="M.75,0a.75.75,0,0,1,.742.639L1.5.75v10.5a.75.75,0,0,1-1.492.111L0,11.25V.75A.75.75,0,0,1,.75,0Zm3,0a.75.75,0,0,1,.742.639L4.5.75v10.5a.75.75,0,0,1-1.492.111L3,11.25V.75A.75.75,0,0,1,3.75,0Zm3,0a.75.75,0,0,1,.742.639L7.5.75v10.5a.75.75,0,0,1-1.492.111L6,11.25V.75A.75.75,0,0,1,6.75,0Zm3,0a.75.75,0,0,1,.742.639L10.5.75v10.5a.75.75,0,0,1-1.492.111L9,11.249V.75A.75.75,0,0,1,9.75,0Zm3,0a.743.743,0,0,1,.741.626l.009.11-.014,10.515a.743.743,0,0,1-1.477.124L12,11.265,12.014.75A.743.743,0,0,1,12.75,0Z" transform="translate(172 59)" fill="currentColor"/>
  </g>
</svg>