<svg xmlns="http://www.w3.org/2000/svg" width="24" height="24" viewBox="0 0 24 24">
  <g transform="translate(-167 -53)"> 
    <path d="M3.75,4a.75.75,0,0,1,.742.639L4.5,4.75v10.5a.75.75,0,0,1-1.492.111L3,15.25V4.75A.75.75,0,0,1,3.75,4Zm3,0a.75.75,0,0,1,.742.639L7.5,4.75v10.5a.75.75,0,0,1-1.492.111L6,15.25V4.75A.75.75,0,0,1,6.75,4Zm3,0a.75.75,0,0,1,.742.639l.008.111v10.5a.75.75,0,0,1-1.492.111L9,15.25V4.75A.75.75,0,0,1,9.75,4Zm3,0a.75.75,0,0,1,.742.639l.008.111v10.5a.75.75,0,0,1-1.492.111L12,15.249V4.75A.75.75,0,0,1,12.75,4Zm3,0a.743.743,0,0,1,.741.626l.009.11-.014,10.515a.743.743,0,0,1-1.476.124L15,15.265,15.014,4.75A.743.743,0,0,1,15.75,4Z" transform="translate(169 55)" fill="currentColor" opacity="0.24"/>
    <path d="M3.75,4a.75.75,0,0,1,.742.639L4.5,4.75v10.5a.75.75,0,0,1-1.492.111L3,15.25V4.75A.75.75,0,0,1,3.75,4Z" transform="translate(169 55)" fill="currentColor"/>
  </g>
</svg>
