<?xml version="1.0" standalone="no"?>
<!DOCTYPE svg PUBLIC "-//W3C//DTD SVG 1.0//EN" "http://www.w3.org/TR/2001/REC-SVG-20010904/DTD/svg10.dtd">
<svg xmlns="http://www.w3.org/2000/svg" xmlns:xlink="http://www.w3.org/1999/xlink" id="body_1" width="34" height="34">

<g transform="matrix(0.49275362 0 0 0.49275362 -0 0.49275362)">
    <path d="M19.1659 29C 19.1659 20.439587 26.105486 13.5 34.6659 13.5L34.6659 13.5L34.9225 13.5C 43.482914 13.5 50.4225 20.439587 50.4225 29C 50.4225 37.560413 43.482914 44.5 34.9225 44.5L34.9225 44.5L34.6659 44.5C 26.105486 44.5 19.1659 37.560413 19.1659 29z" stroke="none" fill="#FFFFFF" fill-rule="nonzero" />
	<g>
        <path d="M34.7942 27.5001C 35.6315 27.5001 36.3103 26.8285 36.3103 26.0001C 36.3103 25.1717 35.6315 24.5001 34.7942 24.5001C 33.9569 24.5001 33.2782 25.1717 33.2782 26.0001C 33.2782 26.8285 33.9569 27.5001 34.7942 27.5001zM34.7942 29.0001C 36.4688 29.0001 37.8263 27.6569 37.8263 26.0001C 37.8263 24.3432 36.4688 23.0001 34.7942 23.0001C 33.1197 23.0001 31.7622 24.3432 31.7622 26.0001C 31.7622 27.6569 33.1197 29.0001 34.7942 29.0001z" stroke="none" fill="#424242" fill-rule="nonzero" />
        <path d="M36.259 26.3882L43.7766 24.3951L43.3842 22.9463L35.8662 24.9394C 36.1406 25.2108 36.3103 25.5859 36.3103 26.0001C 36.3103 26.1343 36.2925 26.2644 36.259 26.3882z" stroke="none" fill="#424242" fill-rule="nonzero" />
        <path d="M33.7222 27.0607C 33.4479 26.7893 33.2782 26.4143 33.2782 26.0001C 33.2782 25.8658 33.296 25.7357 33.3294 25.6119L33.3294 25.6119L25.3235 27.7344C 25.0539 27.8059 24.894 28.08 24.9662 28.3468L24.9662 28.3468L25.097 28.8297C 25.1692 29.0965 25.4463 29.2548 25.7159 29.1833L25.7159 29.1833L33.7222 27.0607z" stroke="none" fill="#424242" fill-rule="nonzero" />
        <path d="M41.9108 28.8945L39.8477 21.2766C 39.7755 21.0098 39.9355 20.7357 40.205 20.6642L40.205 20.6642L42.1576 20.1466C 42.4271 20.0751 42.7042 20.2334 42.7765 20.5001L42.7765 20.5001L44.0716 25.2825C 44.4698 26.7528 43.8724 28.3103 42.5885 29.149C 42.334 29.3153 41.9897 29.186 41.9108 28.8945z" stroke="none" fill="#424242" fill-rule="nonzero" />
        <path d="M34.5113 28.2101L33.6036 31.2895L35.6179 30.0438L35.0773 28.2101L36.5327 27.7901L39.8373 39.0001L38.258 39.0001L37.5068 36.4516L31.4966 39.0001L29.7514 39.0001L33.0559 27.7901L34.5113 28.2101zM35.9496 35.4799L31.8567 37.2155L32.7875 34.0578L35.9496 35.4799zM36.8546 34.2392L33.8669 32.8955L36.0589 31.54L36.8546 34.2392z" stroke="none" fill="#424242" fill-rule="nonzero" />
	</g>
    <path d="M19.1659 29C 19.1659 20.439587 26.105486 13.5 34.6659 13.5L34.6659 13.5L34.9225 13.5C 43.482914 13.5 50.4225 20.439587 50.4225 29C 50.4225 37.560413 43.482914 44.5 34.9225 44.5L34.9225 44.5L34.6659 44.5C 26.105486 44.5 19.1659 37.560413 19.1659 29z" stroke="#FFFFFF" stroke-width="7" fill="none" />
</g>
</svg>