<svg width="50" height="50" viewBox="0 0 69 67" fill="none"
    xmlns="http://www.w3.org/2000/svg">
    <rect x="19.1659" y="13.5" width="31.2566" height="31" rx="50" fill="#8A2BE2"/>
    <g filter="url(#filter0_d_2820_440136)">
        <path fill-rule="evenodd" clip-rule="evenodd" d="M34.7942 27.5001C35.6315 27.5001 36.3103 26.8285 36.3103 26.0001C36.3103 25.1717 35.6315 24.5001 34.7942 24.5001C33.9569 24.5001 33.2782 25.1717 33.2782 26.0001C33.2782 26.8285 33.9569 27.5001 34.7942 27.5001ZM34.7942 29.0001C36.4688 29.0001 37.8263 27.6569 37.8263 26.0001C37.8263 24.3432 36.4688 23.0001 34.7942 23.0001C33.1197 23.0001 31.7622 24.3432 31.7622 26.0001C31.7622 27.6569 33.1197 29.0001 34.7942 29.0001Z" fill="#F0F8FF"/>
        <path d="M36.259 26.3882L43.7766 24.3951L43.3842 22.9463L35.8662 24.9394C36.1406 25.2108 36.3103 25.5859 36.3103 26.0001C36.3103 26.1343 36.2925 26.2644 36.259 26.3882Z" fill="#F0F8FF"/>
        <path d="M33.7222 27.0607C33.4479 26.7893 33.2782 26.4143 33.2782 26.0001C33.2782 25.8658 33.296 25.7357 33.3294 25.6119L25.3235 27.7344C25.0539 27.8059 24.894 28.08 24.9662 28.3468L25.097 28.8297C25.1692 29.0965 25.4463 29.2548 25.7159 29.1833L33.7222 27.0607Z" fill="#F0F8FF"/>
        <path d="M41.9108 28.8945L39.8477 21.2766C39.7755 21.0098 39.9355 20.7357 40.205 20.6642L42.1576 20.1466C42.4271 20.0751 42.7042 20.2334 42.7765 20.5001L44.0716 25.2825C44.4698 26.7528 43.8724 28.3103 42.5885 29.149C42.334 29.3153 41.9897 29.186 41.9108 28.8945Z" fill="#F0F8FF"/>
        <path fill-rule="evenodd" clip-rule="evenodd" d="M34.5113 28.2101L33.6036 31.2895L35.6179 30.0438L35.0773 28.2101L36.5327 27.7901L39.8373 39.0001H38.258L37.5068 36.4516L31.4966 39.0001H29.7514L33.0559 27.7901L34.5113 28.2101ZM35.9496 35.4799L31.8567 37.2155L32.7875 34.0578L35.9496 35.4799ZM36.8546 34.2392L33.8669 32.8955L36.0589 31.54L36.8546 34.2392Z" fill="#F0F8FF"/>
    </g>
    <rect x="19.1659" y="13.5" width="31.2566" height="31" rx="15.5" stroke="#8A2BE2" stroke-width="2"/>
    <defs>
        <filter id="filter0_d_2820_440136" x="0.948853" y="0.129395" width="67.2448" height="66.8706" filterUnits="userSpaceOnUse" color-interpolation-filters="sRGB">
            <feFlood flood-opacity="0" result="BackgroundImageFix"/>
            <feColorMatrix in="SourceAlpha" type="matrix" values="0 0 0 0 0 0 0 0 0 0 0 0 0 0 0 0 0 0 127 0" result="hardAlpha"/>
            <feOffset dy="4"/>
            <feGaussianBlur stdDeviation="12"/>
            <feComposite in2="hardAlpha" operator="out"/>
            <feColorMatrix type="matrix" values="0 0 0 0 0 0 0 0 0 0 0 0 0 0 0 0 0 0 0.1 0"/>
            <feBlend mode="normal" in2="BackgroundImageFix" result="effect1_dropShadow_2820_440136"/>
            <feBlend mode="normal" in="SourceGraphic" in2="effect1_dropShadow_2820_440136" result="shape"/>
        </filter>
    </defs>
</svg>
