<?xml version="1.0" standalone="no"?>
<!DOCTYPE svg PUBLIC "-//W3C//DTD SVG 20010904//EN"
 "http://www.w3.org/TR/2001/REC-SVG-20010904/DTD/svg10.dtd">
<svg version="1.0" xmlns="http://www.w3.org/2000/svg"
 width="31.2566" height="31" viewBox="0 0 191.000000 221.000000"
 preserveAspectRatio="xMidYMid meet">

<g transform="translate(0.000000,221.000000) scale(0.100000,-0.100000)"
fill="rgb(238, 75, 43)" stroke="none">
<path d="M927 2092 c-10 -10 -17 -33 -17 -52 0 -23 -10 -44 -35 -71 -29 -32
-35 -47 -35 -83 0 -28 7 -52 20 -69 11 -14 20 -39 20 -55 0 -28 -3 -31 -37
-34 -36 -3 -38 -5 -38 -38 0 -33 2 -35 38 -38 32 -3 37 -6 37 -29 0 -14 -9
-38 -21 -54 -18 -26 -26 -29 -75 -29 -51 0 -58 3 -93 40 -35 37 -42 40 -89 40
-47 0 -55 -4 -91 -40 -32 -34 -45 -40 -79 -40 -50 0 -70 -20 -54 -55 10 -22
18 -25 60 -25 42 0 50 -3 60 -25 17 -37 67 -58 121 -52 37 4 52 12 77 41 29
33 35 36 87 36 50 0 58 -3 76 -29 18 -25 21 -44 21 -143 0 -114 0 -114 -30
-143 -51 -48 -61 -136 -24 -190 20 -28 17 -58 -6 -73 -11 -7 -20 -23 -20 -37
0 -14 9 -30 20 -37 16 -10 20 -24 20 -63 0 -48 -2 -51 -38 -70 -34 -18 -37
-24 -40 -66 -3 -53 14 -79 54 -79 20 0 24 -5 24 -30 l0 -30 -69 0 c-52 0 -70
4 -75 15 -3 9 -19 15 -41 15 -28 0 -35 4 -35 20 0 11 -9 28 -20 37 -13 12 -20
30 -20 55 l0 38 54 0 c58 0 76 11 56 35 -8 10 -31 15 -66 15 -50 0 -54 2 -54
24 0 13 -7 29 -15 36 -20 17 -45 -3 -45 -36 0 -22 -4 -24 -48 -24 -51 0 -90
-19 -78 -38 4 -7 31 -12 62 -12 l54 0 0 -38 c0 -26 -6 -41 -20 -50 -11 -7 -20
-23 -20 -37 0 -22 -4 -25 -36 -25 -27 0 -37 -5 -41 -20 -4 -15 -14 -20 -37
-20 -33 0 -56 -15 -56 -36 0 -22 30 -44 60 -44 19 0 29 -6 33 -20 7 -28 62
-28 79 0 11 17 24 20 79 20 58 0 67 -3 72 -20 7 -28 62 -28 79 0 11 17 24 20
80 20 l68 0 0 -35 c0 -32 -3 -35 -28 -35 -38 0 -52 -17 -52 -63 0 -78 -2 -77
198 -77 125 0 182 4 190 12 13 13 16 85 6 112 -4 10 -18 16 -40 16 -32 0 -34
2 -34 35 l0 35 68 0 c56 0 69 -3 80 -20 17 -28 72 -28 79 0 5 17 14 20 72 20
55 0 68 -3 79 -20 17 -28 72 -28 79 0 4 13 14 20 30 20 34 0 63 18 63 38 0 27
-20 42 -57 42 -26 0 -33 4 -33 20 0 17 -7 20 -40 20 -35 0 -40 3 -40 23 0 13
-9 32 -20 42 -14 13 -20 29 -18 49 3 30 5 31 56 34 37 2 55 8 59 19 9 22 -15
33 -74 33 -52 0 -53 1 -53 29 0 16 -6 31 -12 34 -22 8 -48 -13 -48 -38 0 -23
-3 -25 -53 -25 -55 0 -79 -13 -70 -36 3 -10 22 -14 59 -14 l54 0 0 -38 c0 -25
-7 -43 -20 -55 -11 -9 -20 -26 -20 -37 0 -16 -7 -20 -35 -20 -22 0 -38 -6 -41
-15 -5 -11 -23 -15 -75 -15 l-69 0 0 30 c0 26 4 30 28 30 39 0 52 17 52 70 0
52 -4 60 -45 80 -27 14 -30 21 -33 67 -3 44 0 51 18 56 29 7 29 76 0 84 -25 7
-25 28 0 78 11 22 20 53 20 69 0 38 -36 113 -61 127 -17 9 -19 22 -19 125 0
102 2 118 22 144 19 27 27 30 76 30 50 0 57 -3 86 -36 53 -61 151 -58 197 7
16 23 28 29 66 31 85 6 87 70 2 76 -36 3 -50 10 -80 43 -33 36 -40 39 -89 39
-49 0 -56 -3 -91 -40 -35 -37 -42 -40 -92 -40 -48 0 -56 3 -76 30 -32 44 -25
74 19 80 32 5 35 8 35 40 0 33 -2 35 -37 38 -33 3 -38 7 -38 27 0 14 9 39 20
57 12 19 20 51 20 75 0 35 -7 50 -35 82 -28 31 -35 47 -35 79 0 31 -5 44 -19
52 -28 15 -46 12 -64 -8z m96 -150 c18 -16 24 -72 7 -72 -21 0 -50 41 -50 71
0 31 7 32 43 1z m-83 -7 c0 -25 -31 -65 -50 -65 -15 0 -12 43 6 68 21 30 44
28 44 -3z m65 -99 c18 -13 18 -14 -3 -25 -11 -6 -30 -11 -42 -11 -12 0 -31 5
-42 11 -21 11 -21 12 -3 25 10 8 31 14 45 14 14 0 35 -6 45 -14z m-425 -283
c0 -34 -8 -46 -37 -62 -21 -11 -23 -10 -23 16 0 25 34 73 52 73 4 0 8 -12 8
-27z m69 17 c25 -13 47 -68 33 -82 -15 -15 -62 35 -62 67 0 28 3 29 29 15z
m291 -19 c0 -20 -9 -36 -27 -51 l-28 -22 -3 27 c-2 18 4 35 19 51 30 32 39 30
39 -5z m80 9 c22 -22 29 -86 8 -74 -33 18 -48 39 -48 66 0 33 12 36 40 8z
m280 -8 c0 -27 -15 -48 -47 -66 -22 -12 -15 52 7 74 28 28 40 25 40 -8z m80 6
c22 -24 29 -84 8 -72 -33 18 -48 39 -48 66 0 34 12 36 40 6z m-739 -99 c30
-16 6 -39 -40 -39 -47 0 -68 18 -43 36 21 16 57 18 83 3z m361 -3 c24 -18 4
-36 -42 -36 -46 0 -66 18 -42 36 22 17 62 17 84 0z m360 0 c24 -18 4 -36 -42
-36 -46 0 -66 18 -42 36 22 17 62 17 84 0z m-422 -348 c0 -36 -22 -69 -57 -87
-30 -15 -33 -14 -33 15 0 32 16 64 44 86 32 27 46 22 46 -14z m81 22 c24 -13
49 -61 49 -95 0 -30 -3 -30 -40 -8 -31 18 -50 51 -50 88 0 27 11 31 41 15z
m-1 -150 l24 -13 -23 -18 c-29 -23 -89 -25 -120 -3 l-23 16 27 18 c31 20 78
20 115 0z"/>
</g>
</svg>
