<svg xmlns="http://www.w3.org/2000/svg" width="24" height="24" viewBox="0 0 24 24">
  <g transform="translate(-405 -243)"> 
    <path d="M2.912,10.666,1.44,16.556A.625.625,0,0,0,2.5,17.14l10-10.417a.625.625,0,0,0-.451-1.058H8.326L9.719,1.489A.625.625,0,0,0,9.126.666H3.292a.625.625,0,0,0-.6.453l-2.5,8.75a.625.625,0,0,0,.6.8ZM6.866,6.093a.625.625,0,0,0,.593.823h3.117L3.223,14.579l1.1-4.387a.625.625,0,0,0-.606-.777H1.621l2.143-7.5H8.259Z" transform="translate(410.833 246.334)" fill="currentColor"/>
  </g>
</svg>
