<svg width="14" height="14" viewBox="0 0 14 14" fill="none" xmlns="http://www.w3.org/2000/svg">
<g opacity="0.5" clip-path="url(#clip0_1761:4625)">
<path d="M6.99996 1.16675C5.50452 1.17101 4.06783 1.74945 2.98663 2.78258V1.75008C2.98663 1.59537 2.92517 1.447 2.81577 1.3376C2.70638 1.22821 2.558 1.16675 2.40329 1.16675C2.24858 1.16675 2.10021 1.22821 1.99081 1.3376C1.88142 1.447 1.81996 1.59537 1.81996 1.75008V4.37508C1.81996 4.52979 1.88142 4.67816 1.99081 4.78756C2.10021 4.89696 2.24858 4.95842 2.40329 4.95842H5.02829C5.183 4.95842 5.33138 4.89696 5.44077 4.78756C5.55017 4.67816 5.61163 4.52979 5.61163 4.37508C5.61163 4.22037 5.55017 4.072 5.44077 3.9626C5.33138 3.85321 5.183 3.79175 5.02829 3.79175H3.62829C4.37833 3.00796 5.378 2.50996 6.45544 2.38339C7.53287 2.25681 8.62074 2.50957 9.53201 3.09819C10.4433 3.68682 11.121 4.57453 11.4487 5.60871C11.7763 6.64289 11.7334 7.75891 11.3274 8.7649C10.9213 9.77088 10.1775 10.604 9.22372 11.1209C8.26997 11.6379 7.16591 11.8064 6.10137 11.5975C5.03682 11.3886 4.07831 10.8154 3.39064 9.97636C2.70296 9.13733 2.32908 8.08492 2.33329 7.00008C2.33329 6.84537 2.27183 6.697 2.16244 6.5876C2.05304 6.47821 1.90467 6.41675 1.74996 6.41675C1.59525 6.41675 1.44688 6.47821 1.33748 6.5876C1.22808 6.697 1.16663 6.84537 1.16663 7.00008C1.16663 8.15381 1.50875 9.28162 2.14972 10.2409C2.79069 11.2002 3.70174 11.9479 4.76764 12.3894C5.83354 12.8309 7.00643 12.9464 8.13799 12.7213C9.26954 12.4963 10.3089 11.9407 11.1247 11.1249C11.9406 10.3091 12.4961 9.26966 12.7212 8.13811C12.9463 7.00655 12.8308 5.83366 12.3893 4.76776C11.9477 3.70186 11.2001 2.79082 10.2408 2.14984C9.2815 1.50887 8.15368 1.16675 6.99996 1.16675ZM6.99996 4.66675C6.84525 4.66675 6.69688 4.72821 6.58748 4.8376C6.47808 4.947 6.41663 5.09537 6.41663 5.25008V7.00008C6.41663 7.15479 6.47808 7.30316 6.58748 7.41256C6.69688 7.52196 6.84525 7.58342 6.99996 7.58342H8.16663C8.32134 7.58342 8.46971 7.52196 8.57911 7.41256C8.6885 7.30316 8.74996 7.15479 8.74996 7.00008C8.74996 6.84537 8.6885 6.697 8.57911 6.5876C8.46971 6.47821 8.32134 6.41675 8.16663 6.41675H7.58329V5.25008C7.58329 5.09537 7.52183 4.947 7.41244 4.8376C7.30304 4.72821 7.15467 4.66675 6.99996 4.66675Z" fill="#757575"/>
</g>
<defs>
<clipPath id="clip0_1761:4625">
<rect width="14" height="14" fill="white"/>
</clipPath>
</defs>
</svg>
