<svg width="24" height="24" viewBox="0 0 24 24" fill="none" xmlns="http://www.w3.org/2000/svg">
<path fill-rule="evenodd" clip-rule="evenodd" d="M18.6667 1.33333H5.33333C3.12419 1.33333 1.33333 3.12419 1.33333 5.33333V18.6667C1.33333 20.8758 3.1242 22.6667 5.33333 22.6667H18.6667C20.8758 22.6667 22.6667 20.8758 22.6667 18.6667V5.33333C22.6667 3.12419 20.8758 1.33333 18.6667 1.33333ZM5.33333 0C2.38781 0 0 2.38781 0 5.33333V18.6667C0 21.6122 2.38782 24 5.33333 24H18.6667C21.6122 24 24 21.6122 24 18.6667V5.33333C24 2.38781 21.6122 0 18.6667 0H5.33333Z" fill="currentColor"/>
<path d="M13.785 9.55889C13.785 10.4389 13.305 10.9669 12.281 10.9669H10.585V8.18289H12.281C13.305 8.18289 13.785 8.72689 13.785 9.55889ZM7.849 5.91089V17.1429H10.585V12.9029H11.241L13.577 17.1429H16.665L14.073 12.6949C15.801 12.1829 16.569 10.8549 16.569 9.44689C16.569 7.49489 15.193 5.91089 12.441 5.91089H7.849Z" fill="currentColor"/>
</svg>
