<svg width="10" height="10" viewBox="0 0 10 10" fill="none" xmlns="http://www.w3.org/2000/svg">
<path d="M1.4649 0.403264C1.17201 0.11037 0.697134 0.11037 0.404241 0.403264C0.111347 0.696157 0.111347 1.17103 0.404241 1.46392L3.93977 4.99946L0.40424 8.53499C0.111347 8.82789 0.111347 9.30276 0.40424 9.59565C0.697134 9.88855 1.17201 9.88855 1.4649 9.59565L5.00043 6.06012L8.53597 9.59565C8.82886 9.88854 9.30373 9.88855 9.59663 9.59565C9.88952 9.30276 9.88952 8.82788 9.59663 8.53499L6.06109 4.99946L9.59663 1.46392C9.88952 1.17103 9.88952 0.696157 9.59663 0.403264C9.30373 0.110371 8.82886 0.110371 8.53597 0.403264L5.00043 3.9388L1.4649 0.403264Z" fill="currentColor"/>
</svg>
