<svg width="10" height="10" viewBox="0 0 10 10" fill="none" xmlns="http://www.w3.org/2000/svg">
<path d="M1.46441 0.403264C1.17152 0.11037 0.696646 0.11037 0.403752 0.403264C0.110859 0.696157 0.110859 1.17103 0.403752 1.46392L3.93929 4.99946L0.403752 8.53499C0.110859 8.82789 0.110859 9.30276 0.403752 9.59565C0.696645 9.88855 1.17152 9.88855 1.46441 9.59565L4.99995 6.06012L8.53548 9.59565C8.82837 9.88854 9.30325 9.88855 9.59614 9.59565C9.88903 9.30276 9.88903 8.82788 9.59614 8.53499L6.06061 4.99946L9.59614 1.46392C9.88903 1.17103 9.88903 0.696157 9.59614 0.403264C9.30325 0.110371 8.82837 0.110371 8.53548 0.403264L4.99995 3.9388L1.46441 0.403264Z" fill="currentColor"/>
</svg>
