<svg width="12" height="12" viewBox="0 0 12 12" fill="none" xmlns="http://www.w3.org/2000/svg">
<path d="M1.625 0.09375C0.779314 0.09375 0.09375 0.779314 0.09375 1.625V8.625C0.09375 8.98744 0.387563 9.28125 0.75 9.28125C1.11244 9.28125 1.40625 8.98744 1.40625 8.625V1.625C1.40625 1.50419 1.50419 1.40625 1.625 1.40625H8.625C8.98744 1.40625 9.28125 1.11244 9.28125 0.75C9.28125 0.387563 8.98744 0.09375 8.625 0.09375H1.625Z" fill="#E53935"/>
<path d="M11.9062 3.375C11.9062 3.01256 11.6124 2.71875 11.25 2.71875C10.8876 2.71875 10.5938 3.01256 10.5938 3.375V10.375C10.5938 10.4958 10.4958 10.5938 10.375 10.5938H3.375C3.01256 10.5938 2.71875 10.8876 2.71875 11.25C2.71875 11.6124 3.01256 11.9062 3.375 11.9062H10.375C11.2207 11.9062 11.9062 11.2207 11.9062 10.375V3.375Z" fill="#E53935"/>
<path d="M11.6367 1.1367C11.8503 0.923131 11.8503 0.576869 11.6367 0.363301C11.4231 0.149733 11.0769 0.149733 10.8633 0.363301L6.98438 4.24223V2.9375C6.98438 2.63547 6.73953 2.39062 6.4375 2.39062C6.13547 2.39062 5.89062 2.63547 5.89062 2.9375V4.6875C5.89062 5.47278 6.52722 6.10938 7.3125 6.10938H9.0625C9.36453 6.10938 9.60938 5.86453 9.60938 5.5625C9.60938 5.26047 9.36453 5.01562 9.0625 5.01562H7.75777L11.6367 1.1367Z" fill="currentColor"/>
<path d="M5.5625 9.60938C5.26047 9.60938 5.01562 9.36453 5.01562 9.0625V7.75777L1.1367 11.6367C0.923131 11.8503 0.576869 11.8503 0.363301 11.6367C0.149733 11.4231 0.149733 11.0769 0.363301 10.8633L4.24223 6.98438L2.9375 6.98437C2.63547 6.98437 2.39063 6.73953 2.39063 6.4375C2.39063 6.13547 2.63547 5.89062 2.9375 5.89062L4.6875 5.89062C5.47278 5.89062 6.10938 6.52722 6.10938 7.3125V9.0625C6.10938 9.36453 5.86453 9.60938 5.5625 9.60938Z" fill="currentColor"/>
</svg>
