<svg width="14" height="10" viewBox="0 0 14 10" fill="none" xmlns="http://www.w3.org/2000/svg">
<path fill-rule="evenodd" clip-rule="evenodd" d="M13.9034 5.0007C13.3483 2.16264 10.4688 0 7 0C3.53179 0 0.652685 2.16193 0.0969238 4.9993C0.652011 7.83736 3.53149 10 7.00028 10C10.4685 10 13.3476 7.83807 13.9034 5.0007ZM1.63788 4.99951C2.16795 6.87554 4.23737 8.5 7.00028 8.5C9.76267 8.5 11.8319 6.8761 12.3624 5.00049C11.8323 3.12446 9.7629 1.5 7 1.5C4.23761 1.5 2.16838 3.1239 1.63788 4.99951Z" fill="currentColor"/>
<path d="M9.50006 5C9.50006 6.38071 8.38077 7.5 7.00006 7.5C5.61935 7.5 4.50006 6.38071 4.50006 5C4.50006 3.61929 5.61935 2.5 7.00006 2.5C8.38077 2.5 9.50006 3.61929 9.50006 5Z" fill="currentColor"/>
</svg>
