<svg width="24" height="24" viewBox="0 0 24 24" fill="none" xmlns="http://www.w3.org/2000/svg">
<path fill-rule="evenodd" clip-rule="evenodd" d="M6.125 6.375C6.81536 6.375 7.375 5.81536 7.375 5.125C7.375 4.43464 6.81536 3.875 6.125 3.875C5.43464 3.875 4.875 4.43464 4.875 5.125C4.875 5.81536 5.43464 6.375 6.125 6.375ZM6.125 8.25C7.85089 8.25 9.25 6.85089 9.25 5.125C9.25 3.39911 7.85089 2 6.125 2C4.39911 2 3 3.39911 3 5.125C3 6.85089 4.39911 8.25 6.125 8.25Z" fill="currentColor"/>
<path fill-rule="evenodd" clip-rule="evenodd" d="M17.375 6.375C18.0654 6.375 18.625 5.81536 18.625 5.125C18.625 4.43464 18.0654 3.875 17.375 3.875C16.6846 3.875 16.125 4.43464 16.125 5.125C16.125 5.81536 16.6846 6.375 17.375 6.375ZM17.375 8.25C19.1009 8.25 20.5 6.85089 20.5 5.125C20.5 3.39911 19.1009 2 17.375 2C15.6491 2 14.25 3.39911 14.25 5.125C14.25 6.85089 15.6491 8.25 17.375 8.25Z" fill="currentColor"/>
<path fill-rule="evenodd" clip-rule="evenodd" d="M6.125 20.125C6.81536 20.125 7.375 19.5654 7.375 18.875C7.375 18.1846 6.81536 17.625 6.125 17.625C5.43464 17.625 4.875 18.1846 4.875 18.875C4.875 19.5654 5.43464 20.125 6.125 20.125ZM6.125 22C7.85089 22 9.25 20.6009 9.25 18.875C9.25 17.1491 7.85089 15.75 6.125 15.75C4.39911 15.75 3 17.1491 3 18.875C3 20.6009 4.39911 22 6.125 22Z" fill="currentColor"/>
<path fill-rule="evenodd" clip-rule="evenodd" d="M7.0625 7L7.0625 17H5.1875L5.1875 7H7.0625Z" fill="currentColor"/>
<path fill-rule="evenodd" clip-rule="evenodd" d="M8.62508 13.0017C7.76213 13.0016 7.06256 13.7012 7.06256 14.5642L7.06256 16.2308L5.18756 16.2308L5.18756 14.5641C5.18757 12.6657 6.72661 11.1266 8.62511 11.1267L14.8749 11.1267C15.7378 11.1267 16.4374 10.4272 16.4374 9.56423L16.4374 7.89759H18.3124V9.56423C18.3124 11.4627 16.7734 13.0018 14.8749 13.0017L8.62508 13.0017Z" fill="currentColor"/>
</svg>
