<svg width="24" height="24" viewBox="0 0 24 24" fill="none" xmlns="http://www.w3.org/2000/svg">
<path fill-rule="evenodd" clip-rule="evenodd" d="M12 1.1001C12.3426 1.1001 12.6554 1.29456 12.807 1.60174L15.6878 7.43792L22.1302 8.37956C22.4691 8.4291 22.7505 8.6667 22.8561 8.99251C22.9618 9.31831 22.8733 9.67584 22.628 9.91482L17.9671 14.4545L19.0671 20.868C19.125 21.2056 18.9861 21.5469 18.709 21.7482C18.4318 21.9496 18.0643 21.9761 17.7611 21.8167L12 18.787L6.23891 21.8167C5.93568 21.9761 5.56822 21.9496 5.29104 21.7482C5.01386 21.5469 4.87504 21.2056 4.93295 20.868L6.03293 14.4545L1.37204 9.91482C1.12669 9.67584 1.03824 9.31831 1.14388 8.99251C1.24952 8.6667 1.53093 8.4291 1.86984 8.37956L8.31217 7.43792L11.193 1.60174C11.3446 1.29456 11.6574 1.1001 12 1.1001ZM12 4.03343L9.71704 8.65846C9.58605 8.92382 9.33299 9.10784 9.04017 9.15063L3.93357 9.89704L7.62796 13.4954C7.84025 13.7021 7.93714 14.0002 7.88705 14.2922L7.01537 19.3746L11.5811 16.9735C11.8433 16.8356 12.1567 16.8356 12.4189 16.9735L16.9846 19.3746L16.113 14.2922C16.0629 14.0002 16.1598 13.7021 16.372 13.4954L20.0664 9.89704L14.9598 9.15063C14.667 9.10784 14.414 8.92382 14.283 8.65846L12 4.03343Z" fill="currentColor"/>
</svg>
