<svg width="24" height="24" viewBox="0 0 24 24" fill="none" xmlns="http://www.w3.org/2000/svg">
<path fill-rule="evenodd" clip-rule="evenodd" d="M7.92263 4.54405C9.46856 3.90369 11.1697 3.73614 12.8108 4.0626C14.452 4.38905 15.9595 5.19484 17.1427 6.37806C18.3259 7.56129 19.1316 9.0688 19.4581 10.71C19.7845 12.3512 19.617 14.0523 18.9766 15.5982C18.3363 17.1442 17.2519 18.4655 15.8606 19.3952C14.4693 20.3249 12.8336 20.821 11.1603 20.821C8.91647 20.821 6.76453 19.9297 5.1779 18.343C3.59128 16.7564 2.69995 14.6044 2.69995 12.3605C2.69995 10.6872 3.19612 9.05147 4.12576 7.66014C5.05539 6.26882 6.3767 5.18441 7.92263 4.54405ZM12.4597 5.82801C11.1677 5.57101 9.82849 5.70291 8.61147 6.20702C7.39446 6.71114 6.35426 7.56483 5.62241 8.66015C4.89056 9.75546 4.49995 11.0432 4.49995 12.3605C4.49995 14.127 5.20165 15.8212 6.45071 17.0702C7.69976 18.3193 9.39385 19.021 11.1603 19.021C12.4776 19.021 13.7653 18.6304 14.8606 17.8986C15.9559 17.1667 16.8095 16.1265 17.3136 14.9094C17.8177 13.6924 17.9496 12.3531 17.6927 11.0611C17.4357 9.76911 16.8013 8.58233 15.8699 7.65084C14.9384 6.71936 13.7516 6.085 12.4597 5.82801Z" fill="currentColor"/>
<path fill-rule="evenodd" clip-rule="evenodd" d="M17.2307 17.1578L21.0363 20.9635L19.7635 22.2363L15.9579 18.4306L17.2307 17.1578Z" fill="currentColor"/>
</svg>
