<svg width="16" height="16" viewBox="0 0 16 16" fill="none" xmlns="http://www.w3.org/2000/svg">
<path d="M6.83333 2C9.50271 2 11.6667 4.16396 11.6667 6.83333C11.6667 7.98792 11.2618 9.04794 10.5864 9.87921L13.8536 13.1464C14.0488 13.3417 14.0488 13.6583 13.8536 13.8536C13.676 14.0311 13.3983 14.0472 13.2025 13.902L13.1464 13.8536L9.87921 10.5864C9.04794 11.2618 7.98792 11.6667 6.83333 11.6667C4.16396 11.6667 2 9.50271 2 6.83333C2 4.16396 4.16396 2 6.83333 2ZM6.83333 3C4.71624 3 3 4.71624 3 6.83333C3 8.95043 4.71624 10.6667 6.83333 10.6667C8.95043 10.6667 10.6667 8.95043 10.6667 6.83333C10.6667 4.71624 8.95043 3 6.83333 3Z" fill="currentColor"/>
</svg>
