<svg width="19" height="19" viewBox="0 0 19 19" fill="none" xmlns="http://www.w3.org/2000/svg">
<path d="M11 2.0575C11 1.47333 10.5267 1 9.9425 1H8.725C8.14 1 7.66667 1.47333 7.66667 2.0575C7.66667 2.53917 7.33667 2.9525 6.8875 3.12917C6.81667 3.1575 6.74583 3.1875 6.67667 3.2175C6.23417 3.40917 5.70833 3.35083 5.36667 3.01C5.16837 2.81184 4.8995 2.70053 4.61917 2.70053C4.33883 2.70053 4.06996 2.81184 3.87167 3.01L3.01 3.87167C2.81184 4.06996 2.70053 4.33883 2.70053 4.61917C2.70053 4.8995 2.81184 5.16837 3.01 5.36667V5.36667C3.35167 5.70833 3.41 6.23333 3.21667 6.67667C3.18629 6.74644 3.15712 6.81672 3.12917 6.8875C2.9525 7.33667 2.53917 7.66667 2.0575 7.66667C1.47333 7.66667 1 8.14 1 8.72417V9.9425C1 10.5267 1.47333 11 2.0575 11C2.53917 11 2.9525 11.33 3.12917 11.7792C3.1575 11.85 3.1875 11.9208 3.21667 11.99C3.40917 12.4325 3.35083 12.9583 3.01 13.3C2.81184 13.4983 2.70053 13.7672 2.70053 14.0475C2.70053 14.3278 2.81184 14.5967 3.01 14.795L3.87167 15.6567C4.06996 15.8548 4.33883 15.9661 4.61917 15.9661C4.8995 15.9661 5.16837 15.8548 5.36667 15.6567C5.70833 15.315 6.23333 15.2567 6.67667 15.4492C6.74583 15.48 6.81667 15.5092 6.8875 15.5375C7.33667 15.7142 7.66667 16.1275 7.66667 16.6092C7.66667 17.1933 8.14 17.6667 8.72417 17.6667H9.9425C10.5267 17.6667 11 17.1933 11 16.6092C11 16.1275 11.33 15.7142 11.7792 15.5367C11.85 15.5092 11.9208 15.48 11.99 15.45C12.4325 15.2567 12.9583 15.3158 13.2992 15.6567C13.3974 15.7549 13.514 15.8328 13.6423 15.886C13.7706 15.9392 13.9082 15.9666 14.0471 15.9666C14.186 15.9666 14.3235 15.9392 14.4519 15.886C14.5802 15.8328 14.6968 15.7549 14.795 15.6567L15.6567 14.795C15.8548 14.5967 15.9661 14.3278 15.9661 14.0475C15.9661 13.7672 15.8548 13.4983 15.6567 13.3V13.3C15.315 12.9583 15.2567 12.4333 15.4492 11.99C15.48 11.9208 15.5092 11.85 15.5375 11.7792C15.7142 11.33 16.1275 11 16.6092 11C17.1933 11 17.6667 10.5267 17.6667 9.9425V8.725C17.6667 8.14083 17.1933 7.6675 16.6092 7.6675C16.1275 7.6675 15.7142 7.3375 15.5367 6.88833C15.5087 6.81755 15.4796 6.74726 15.4492 6.6775C15.2575 6.235 15.3158 5.70917 15.6567 5.3675C15.8548 5.1692 15.9661 4.90034 15.9661 4.62C15.9661 4.33966 15.8548 4.0708 15.6567 3.8725L14.795 3.01083C14.5967 2.81268 14.3278 2.70136 14.0475 2.70136C13.7672 2.70136 13.4983 2.81268 13.3 3.01083V3.01083C12.9583 3.3525 12.4333 3.41083 11.99 3.21833C11.9202 3.18767 11.85 3.15822 11.7792 3.13C11.33 2.9525 11 2.53917 11 2.05833V2.0575Z" stroke="#C0C0C0" stroke-width="2" stroke-linecap="round" stroke-linejoin="round"/>
<path d="M12.6667 9.33333C12.6667 10.2174 12.3155 11.0652 11.6904 11.6904C11.0652 12.3155 10.2174 12.6667 9.33333 12.6667C8.44928 12.6667 7.60143 12.3155 6.97631 11.6904C6.35119 11.0652 6 10.2174 6 9.33333C6 8.44928 6.35119 7.60143 6.97631 6.97631C7.60143 6.35119 8.44928 6 9.33333 6C10.2174 6 11.0652 6.35119 11.6904 6.97631C12.3155 7.60143 12.6667 8.44928 12.6667 9.33333Z" stroke="#C0C0C0" stroke-width="2" stroke-linecap="round" stroke-linejoin="round"/>
</svg>
