<svg xmlns="http://www.w3.org/2000/svg" width="24" height="24" viewBox="0 0 24 24">
  <g transform="translate(-405 -243)"> 
    <path d="M8.909.782a2.25,2.25,0,0,1,2.976.74l.083.138,7.759,14.008A2.25,2.25,0,0,1,17.912,19l-.154.005H2.243A2.25,2.25,0,0,1,.2,15.812l.073-.143L8.031,1.66A2.25,2.25,0,0,1,8.909.782ZM18.414,16.4,10.656,2.387A.75.75,0,0,0,9.4,2.3l-.057.088L1.586,16.4A.75.75,0,0,0,2.148,17.5l.095.006H17.758a.75.75,0,0,0,.7-1.028l-.041-.086L10.656,2.387ZM10,14a1,1,0,1,1-1,1A1,1,0,0,1,10,14Zm0-7.5a.75.75,0,0,1,.744.648l.007.1,0,4.5a.75.75,0,0,1-1.493.1l-.007-.1,0-4.5A.75.75,0,0,1,10,6.5Z" transform="translate(407.008 245.5)" fill="currentColor"/>
  </g>
</svg>
