<svg width="24" height="24" viewBox="0 0 24 24" fill="none" xmlns="http://www.w3.org/2000/svg">
<path d="M13 5.5C13 5.3542 12.9364 5.21567 12.8257 5.12068C12.7151 5.02569 12.5686 4.98371 12.4244 5.00574L5.42445 6.07574C5.18032 6.11306 5 6.32303 5 6.57L5 17.43C5 17.6769 5.18028 17.8869 5.42438 17.9243L12.4244 18.9953C12.5685 19.0173 12.7151 18.9754 12.8257 18.8804C12.9363 18.7854 13 18.6468 13 18.501L13 12L18.1722 12L17.1753 12.8737C16.9679 13.0556 16.9468 13.3714 17.1284 13.5793C17.3099 13.7871 17.6253 13.8081 17.8328 13.6263L19.8295 11.8763C19.9379 11.7814 20 11.6442 20 11.5C20 11.3558 19.9379 11.2187 19.8295 11.1237L17.8328 9.37372C17.6253 9.19188 17.3099 9.21294 17.1284 9.42075C16.9468 9.62857 16.9679 9.94445 17.1753 10.1263L18.1723 11L13 11L13 5.5ZM10.5 13.25C10.0858 13.25 9.75 12.9142 9.75 12.5C9.75 12.0858 10.0858 11.75 10.5 11.75C10.9142 11.75 11.25 12.0858 11.25 12.5C11.25 12.9142 10.9142 13.25 10.5 13.25ZM14.5 18H14L14 13L15 13L15 17.5C15 17.7761 14.7761 18 14.5 18ZM14 10L14 6L14.5 6C14.7761 6 15 6.22386 15 6.5L15 10L14 10Z" fill="currentColor"/>
</svg>
