<svg width="28" height="28" viewBox="0 0 28 28" fill="none" xmlns="http://www.w3.org/2000/svg">
 
<path d="M10.25 20.75L14.75 14.75L20.75 20.75" stroke="currentColor" stroke-width="2" stroke-linecap="round" stroke-linejoin="round"/>
<path d="M8.92102 10.4773L19.07 6.68226C19.2138 6.62861 19.3705 6.62034 19.5191 6.65856C19.6677 6.69678 19.801 6.77966 19.901 6.89601L20.0435 7.06101C20.9831 8.15041 21.5 9.54114 21.5 10.9798V11.4418C21.5001 11.5946 21.4534 11.7438 21.3663 11.8694C21.2791 11.995 21.1557 12.091 21.0125 12.1445L10.8605 15.9395L8.92102 10.4773V10.4773Z" stroke="currentColor" stroke-width="2" stroke-linecap="round" stroke-linejoin="round"/>
<path d="M6.99503 13.5282C6.86314 13.1563 6.88309 12.7475 7.05057 12.3902C7.21805 12.0329 7.51956 11.756 7.88978 11.6195L9.16028 11.1515L10.6183 15.2562L9.38828 15.7152C9.20177 15.7849 9.00326 15.8168 8.80431 15.809C8.60536 15.8011 8.40997 15.7538 8.22951 15.6697C8.04905 15.5855 7.88715 15.4663 7.75323 15.319C7.61932 15.1717 7.51608 14.9991 7.44953 14.8115L6.99503 13.5282V13.5282Z" stroke="currentColor" stroke-width="2" stroke-linecap="round" stroke-linejoin="round"/>
<path d="M14.75 14.75V21.5" stroke="currentColor" stroke-width="2" stroke-linecap="round" stroke-linejoin="round"/>
</svg>
