<svg xmlns="http://www.w3.org/2000/svg" width="48" height="48" viewBox="0 0 48 48">
  <g transform="translate(7.5 8.5)"> 
    <path   d="M9.695,14.208a1.458,1.458,0,0,1,1.031-1.786l6.523-1.748a1.458,1.458,0,0,1,1.786,1.031l.757,2.826a1.458,1.458,0,0,1-1.031,1.786l-6.523,1.748a1.458,1.458,0,0,1-1.786-1.031Zm1.355-.579a.208.208,0,0,0-.147.255l.757,2.826a.208.208,0,0,0,.255.147l6.523-1.748a.208.208,0,0,0,.147-.255l-.757-2.826a.208.208,0,0,0-.255-.147Z" fill="currentColor" fill-rule="evenodd"/>
    <path   d="M10.723,13.216l-2.017.54a1.458,1.458,0,0,0-1.031,1.786l.361,1.347a1.458,1.458,0,0,0,1.786,1.031l2.017-.54Zm-.884,1.531.469,1.75-.809.217a.208.208,0,0,1-.255-.147l-.361-1.347a.208.208,0,0,1,.147-.255Z" fill="currentColor" fill-rule="evenodd"/>
    <path   d="M22.533,9.976a1.458,1.458,0,0,0-1.786-1.031l-.477.128a3.125,3.125,0,0,0-2.21,3.827l.291,1.085a3.125,3.125,0,0,0,3.827,2.21l.477-.128a1.458,1.458,0,0,0,1.031-1.786Zm-1.462.176a.208.208,0,0,1,.255.147l1.153,4.3a.208.208,0,0,1-.147.255l-.477.128a1.875,1.875,0,0,1-2.3-1.326l-.291-1.085a1.875,1.875,0,0,1,1.326-2.3Z" fill="currentColor" fill-rule="evenodd"/>
    <path   d="M16,17.166a1.042,1.042,0,1,0,1.042,1.042A1.042,1.042,0,0,0,16,17.166Zm-2.292,1.042A2.292,2.292,0,1,1,16,20.5,2.292,2.292,0,0,1,13.708,18.208Z" fill="currentColor" fill-rule="evenodd"/>
    <path  d="M14.853,18.846a.625.625,0,0,1,.173.867l-2.64,3.96a.625.625,0,0,1-1.04-.693l2.64-3.96A.625.625,0,0,1,14.853,18.846Z" fill="currentColor" fill-rule="evenodd"/>
    <path   d="M17.147,18.846a.625.625,0,0,0-.173.867l2.64,3.96a.625.625,0,0,0,1.04-.693l-2.64-3.96A.625.625,0,0,0,17.147,18.846Z" fill="currentColor" fill-rule="evenodd"/>
    <!-- <rect width="31" height="31" rx="15.5" transform="translate(0.5 0.5)" fill="none" stroke="currentColor" stroke-width="1"/> -->
  </g>
</svg>
