<svg xmlns="http://www.w3.org/2000/svg" width="24" height="24" viewBox="0 0 24 24">
  <g transform="translate(-484 -394)"> 
    <path id="StatusUncheck" d="M10,1.666A8.333,8.333,0,1,0,18.334,10,8.336,8.336,0,0,0,10,1.666Zm0,15A6.667,6.667,0,1,1,16.667,10,6.676,6.676,0,0,1,10,16.666Zm3.233-9.758-4.9,4.9L6.767,10.241a.831.831,0,0,0-1.175,1.175L7.75,13.574a.83.83,0,0,0,1.175,0l5.492-5.492a.83.83,0,0,0,0-1.175A.84.84,0,0,0,13.234,6.908Z" transform="translate(486.333 396.334)" fill="currentColor"/>
  </g>
</svg>
