<svg width="16" height="14" viewBox="0 0 16 14" fill="none" xmlns="http://www.w3.org/2000/svg">
<path d="M3.75 11C1.95507 11 0.5 9.54493 0.5 7.75L0.5 3.25C0.5 1.45507 1.95507 0 3.75 0L12.25 0C14.0449 0 15.5 1.45507 15.5 3.25L15.5 7.75C15.5 9.54493 14.0449 11 12.25 11H9.51249L6.49868 13.7507C5.94585 14.1642 5.1625 14.0512 4.74901 13.4984C4.58736 13.2822 4.5 13.0196 4.5 12.7499L4.49921 11H3.75ZM9.01351 9.5H12.25C13.2165 9.5 14 8.7165 14 7.75L14 3.25C14 2.2835 13.2165 1.5 12.25 1.5L3.75 1.5C2.7835 1.5 2 2.2835 2 3.25L2 7.75C2 8.7165 2.7835 9.5 3.75 9.5H5.99879L5.999 10.2498L5.99986 12.2506L9.01351 9.5Z" fill="currentColor"/>
</svg>
