<svg width="24" height="24" viewBox="0 0 24 24" fill="none" xmlns="http://www.w3.org/2000/svg">
<mask id="path-1-inside-1_207:108505" fill="white">
<path fill-rule="evenodd" clip-rule="evenodd" d="M3.82922 1.2002C3.0399 1.2002 2.40002 1.84007 2.40002 2.62939V10.9836L9.54602 6.85789V2.62939C9.54602 1.84007 8.90614 1.2002 8.11682 1.2002H3.82922ZM9.54602 8.50819L2.40002 12.6339V13.842L9.54602 9.71626V8.50819ZM2.40002 16.7004V15.4923L9.54602 11.3666V12.5747L2.40002 16.7004ZM2.45154 18.321C2.48809 18.4534 2.54373 18.5805 2.61725 18.6982L4.76096 22.1282C5.32071 23.0239 6.62509 23.0239 7.18487 22.1283L9.32876 18.6982C9.47074 18.471 9.54602 18.2085 9.54602 17.9407V14.225L2.45154 18.321Z"/>
</mask>
<path d="M2.40002 10.9836H0.900024V13.5817L3.15002 12.2827L2.40002 10.9836ZM9.54602 6.85789L10.296 8.15693L11.046 7.72392V6.85789H9.54602ZM2.40002 12.6339L1.65002 11.3349L0.900024 11.7679V12.6339H2.40002ZM9.54602 8.50819H11.046V5.91011L8.79602 7.20915L9.54602 8.50819ZM2.40002 13.842H0.900024V16.4401L3.15002 15.141L2.40002 13.842ZM9.54602 9.71626L10.296 11.0153L11.046 10.5823V9.71626H9.54602ZM2.40002 15.4923L1.65002 14.1933L0.900024 14.6263V15.4923H2.40002ZM2.40002 16.7004H0.900024V19.2985L3.15002 17.9994L2.40002 16.7004ZM9.54602 11.3666H11.046V8.76847L8.79602 10.0675L9.54602 11.3666ZM9.54602 12.5747L10.296 13.8737L11.046 13.4407V12.5747H9.54602ZM2.45154 18.321L1.70154 17.0219L0.69698 17.6019L1.00561 18.7201L2.45154 18.321ZM2.61725 18.6982L1.34524 19.4931L1.34524 19.4931L2.61725 18.6982ZM4.76096 22.1282L6.03297 21.3332L6.03297 21.3332L4.76096 22.1282ZM7.18487 22.1283L8.45685 22.9233L8.45686 22.9233L7.18487 22.1283ZM9.32876 18.6982L8.05678 17.9031L8.05678 17.9031L9.32876 18.6982ZM9.54602 14.225H11.046V11.6269L8.79602 12.9259L9.54602 14.225ZM3.90002 2.62939C3.90002 2.6685 3.86833 2.7002 3.82922 2.7002V-0.299805C2.21147 -0.299805 0.900024 1.01164 0.900024 2.62939H3.90002ZM3.90002 10.9836V2.62939H0.900024V10.9836H3.90002ZM8.79602 5.55885L1.65002 9.68459L3.15002 12.2827L10.296 8.15693L8.79602 5.55885ZM8.04602 2.62939V6.85789H11.046V2.62939H8.04602ZM8.11682 2.7002C8.07772 2.7002 8.04602 2.6685 8.04602 2.62939H11.046C11.046 1.01164 9.73457 -0.299805 8.11682 -0.299805V2.7002ZM3.82922 2.7002H8.11682V-0.299805H3.82922V2.7002ZM3.15002 13.933L10.296 9.80722L8.79602 7.20915L1.65002 11.3349L3.15002 13.933ZM3.90002 13.842V12.6339H0.900024V13.842H3.90002ZM8.79602 8.41722L1.65002 12.543L3.15002 15.141L10.296 11.0153L8.79602 8.41722ZM8.04602 8.50819V9.71626H11.046V8.50819H8.04602ZM0.900024 15.4923V16.7004H3.90002V15.4923H0.900024ZM8.79602 10.0675L1.65002 14.1933L3.15002 16.7913L10.296 12.6656L8.79602 10.0675ZM11.046 12.5747V11.3666H8.04602V12.5747H11.046ZM3.15002 17.9994L10.296 13.8737L8.79602 11.2756L1.65002 15.4014L3.15002 17.9994ZM1.00561 18.7201C1.08052 18.9915 1.19455 19.252 1.34524 19.4931L3.88926 17.9032C3.8929 17.909 3.89567 17.9153 3.89747 17.9219L1.00561 18.7201ZM1.34524 19.4931L3.48894 22.9232L6.03297 21.3332L3.88926 17.9032L1.34524 19.4931ZM3.48894 22.9232C4.63619 24.7588 7.30955 24.7589 8.45685 22.9233L5.91289 21.3332C5.91271 21.3335 5.91539 21.3293 5.92174 21.3234C5.9279 21.3177 5.93505 21.3127 5.9424 21.3087C5.95646 21.3012 5.96699 21.3 5.97293 21.3C5.97886 21.3 5.98939 21.3012 6.00346 21.3087C6.01081 21.3127 6.01796 21.3177 6.02412 21.3234C6.03047 21.3294 6.03314 21.3335 6.03297 21.3332L3.48894 22.9232ZM8.45686 22.9233L10.6007 19.4932L8.05678 17.9031L5.91289 21.3332L8.45686 22.9233ZM10.6007 19.4932C10.8917 19.0276 11.046 18.4897 11.046 17.9407H8.04602C8.04602 17.9274 8.04974 17.9144 8.05678 17.9031L10.6007 19.4932ZM11.046 17.9407V14.225H8.04602V17.9407H11.046ZM8.79602 12.9259L1.70154 17.0219L3.20154 19.62L10.296 15.524L8.79602 12.9259Z" fill="currentColor" mask="url(#path-1-inside-1_207:108505)"/>
<mask id="path-3-inside-2_207:108505" fill="white">
<path fill-rule="evenodd" clip-rule="evenodd" d="M20.9796 22.7998C21.7689 22.7998 22.4088 22.1599 22.4088 21.3706V13.0165L15.2628 17.1422V21.3706C15.2628 22.1599 15.9027 22.7998 16.692 22.7998H20.9796ZM15.2628 15.4919L22.4088 11.3662V10.1581L15.2628 14.2839V15.4919ZM22.4088 7.29971V8.50783L15.2628 12.6336V11.4255L22.4088 7.29971ZM22.3573 5.67914C22.3208 5.54667 22.2651 5.41952 22.1916 5.30185L20.0479 1.87179C19.4881 0.976144 18.1838 0.976123 17.624 1.87175L15.4801 5.30183C15.3381 5.52898 15.2628 5.79146 15.2628 6.05933V9.77516L22.3573 5.67914Z"/>
</mask>
<path d="M22.4088 13.0165H23.9088V10.4184L21.6588 11.7175L22.4088 13.0165ZM15.2628 17.1422L14.5128 15.8432L13.7628 16.2762V17.1422H15.2628ZM22.4088 11.3662L23.1588 12.6652L23.9088 12.2322V11.3662H22.4088ZM15.2628 15.4919H13.7628V18.09L16.0128 16.791L15.2628 15.4919ZM22.4088 10.1581H23.9088V7.56005L21.6588 8.85909L22.4088 10.1581ZM15.2628 14.2839L14.5128 12.9848L13.7628 13.4178V14.2839H15.2628ZM22.4088 8.50783L23.1588 9.80687L23.9088 9.37385V8.50783H22.4088ZM22.4088 7.29971H23.9088V4.70164L21.6588 6.00068L22.4088 7.29971ZM15.2628 12.6336H13.7628V15.2316L16.0128 13.9326L15.2628 12.6336ZM15.2628 11.4255L14.5128 10.1264L13.7628 10.5594V11.4255H15.2628ZM22.3573 5.67914L23.1073 6.97818L24.1118 6.39824L23.8033 5.28015L22.3573 5.67914ZM22.1916 5.30185L20.9196 6.09683L22.1916 5.30185ZM20.0479 1.87179L21.3199 1.07681L21.3199 1.07681L20.0479 1.87179ZM17.624 1.87175L16.352 1.07672L16.352 1.07672L17.624 1.87175ZM15.4801 5.30183L14.2081 4.50681L14.2081 4.50682L15.4801 5.30183ZM15.2628 9.77516H13.7628V12.3732L16.0128 11.0742L15.2628 9.77516ZM20.9088 21.3706C20.9088 21.3315 20.9405 21.2998 20.9796 21.2998V24.2998C22.5974 24.2998 23.9088 22.9884 23.9088 21.3706H20.9088ZM20.9088 13.0165V21.3706H23.9088V13.0165H20.9088ZM16.0128 18.4413L23.1588 14.3155L21.6588 11.7175L14.5128 15.8432L16.0128 18.4413ZM16.7628 21.3706V17.1422H13.7628V21.3706H16.7628ZM16.692 21.2998C16.7311 21.2998 16.7628 21.3315 16.7628 21.3706H13.7628C13.7628 22.9884 15.0743 24.2998 16.692 24.2998V21.2998ZM20.9796 21.2998H16.692V24.2998H20.9796V21.2998ZM21.6588 10.0672L14.5128 14.1929L16.0128 16.791L23.1588 12.6652L21.6588 10.0672ZM20.9088 10.1581V11.3662H23.9088V10.1581H20.9088ZM16.0128 15.5829L23.1588 11.4572L21.6588 8.85909L14.5128 12.9848L16.0128 15.5829ZM16.7628 15.4919V14.2839H13.7628V15.4919H16.7628ZM23.9088 8.50783V7.29971H20.9088V8.50783H23.9088ZM16.0128 13.9326L23.1588 9.80687L21.6588 7.20879L14.5128 11.3345L16.0128 13.9326ZM13.7628 11.4255V12.6336H16.7628V11.4255H13.7628ZM21.6588 6.00068L14.5128 10.1264L16.0128 12.7245L23.1588 8.59875L21.6588 6.00068ZM23.8033 5.28015C23.7284 5.00866 23.6143 4.74805 23.4636 4.50687L20.9196 6.09683C20.9159 6.091 20.9132 6.08469 20.9114 6.07814L23.8033 5.28015ZM23.4636 4.50687L21.3199 1.07681L18.7759 2.66676L20.9196 6.09683L23.4636 4.50687ZM21.3199 1.07681C20.1727 -0.758847 17.4993 -0.758885 16.352 1.07672L18.8959 2.66677C18.8961 2.66648 18.8935 2.67065 18.8871 2.67656C18.8809 2.68228 18.8738 2.68735 18.8664 2.69127C18.8524 2.69878 18.8418 2.70004 18.8359 2.70004C18.83 2.70004 18.8194 2.69878 18.8054 2.69127C18.798 2.68735 18.7909 2.68228 18.7847 2.67655C18.7784 2.67065 18.7757 2.66648 18.7759 2.66676L21.3199 1.07681ZM16.352 1.07672L14.2081 4.50681L16.7521 6.09686L18.8959 2.66677L16.352 1.07672ZM14.2081 4.50682C13.9171 4.97237 13.7628 5.51032 13.7628 6.05933H16.7628C16.7628 6.0726 16.7591 6.0856 16.7521 6.09685L14.2081 4.50682ZM13.7628 6.05933L13.7628 9.77516H16.7628V6.05933H13.7628ZM16.0128 11.0742L23.1073 6.97818L21.6073 4.3801L14.5128 8.47612L16.0128 11.0742Z" fill="currentColor" mask="url(#path-3-inside-2_207:108505)"/>
</svg>
