<svg xmlns="http://www.w3.org/2000/svg" width="24" height="24" viewBox="0 0 24 24">
  <g transform="translate(-1074 -144)"> 
    <g transform="translate(1078 146.291)">
      <path fill="currentColor" d="M8,3V1.211a.5.5,0,0,0-.85-.35l-2.8,2.79a.5.5,0,0,0,0,.71l2.79,2.79A.506.506,0,0,0,8,6.791V5A6,6,0,0,1,9.69,16.75.978.978,0,0,0,9,17.7a.992.992,0,0,0,1.25.97A8,8,0,0,0,8,3Z"/>
      <path fill="currentColor" d="M2,11a6,6,0,0,1,1.19-3.59A1,1,0,0,0,1.6,6.2,7.993,7.993,0,0,0,5.75,18.67.992.992,0,0,0,7,17.7a.978.978,0,0,0-.69-.95A6.012,6.012,0,0,1,2,11Z"/>
    </g>
  </g>
</svg>
