<svg width="12" height="9" viewBox="0 0 12 9" fill="none" xmlns="http://www.w3.org/2000/svg">
<path d="M10.7681 4.0122H8.70117C8.66462 4.00722 8.62756 4.00722 8.59101 4.0122H8.50182C8.47441 4.02791 8.44812 4.04551 8.42314 4.06487C8.39393 4.08423 8.3659 4.10534 8.3392 4.12807C8.32169 4.1496 8.3059 4.1725 8.29199 4.19653C8.26795 4.22971 8.24688 4.26496 8.22904 4.30187L7.38969 6.62446L5.20213 0.673152C5.16537 0.571479 5.09832 0.483633 5.0101 0.421554C4.92187 0.359475 4.81675 0.326172 4.70901 0.326172C4.60127 0.326172 4.49615 0.359475 4.40792 0.421554C4.31969 0.483633 4.25265 0.571479 4.21589 0.673152L3.00408 4.0122H1.32538C1.18624 4.0122 1.05281 4.06769 0.954431 4.16646C0.856051 4.26523 0.800781 4.39919 0.800781 4.53887C0.800781 4.67855 0.856051 4.81251 0.954431 4.91127C1.05281 5.01004 1.18624 5.06553 1.32538 5.06553H3.38178H3.50244H3.58113C3.61095 5.05112 3.6391 5.03346 3.66507 5.01286C3.69428 4.9935 3.72231 4.9724 3.749 4.94966L3.79621 4.8812C3.82122 4.84867 3.84235 4.81332 3.85917 4.77587L4.70901 2.39008L6.89132 8.40458C6.92798 8.50637 6.99498 8.59435 7.08321 8.65654C7.17145 8.71874 7.27663 8.75213 7.38444 8.75218C7.49225 8.75213 7.59743 8.71874 7.68566 8.65654C7.7739 8.59435 7.8409 8.50637 7.87756 8.40458L9.08412 5.06553H10.7681C10.9072 5.06553 11.0406 5.01004 11.139 4.91127C11.2374 4.81251 11.2927 4.67855 11.2927 4.53887C11.2927 4.39919 11.2374 4.26523 11.139 4.16646C11.0406 4.06769 10.9072 4.0122 10.7681 4.0122Z" fill="#009688"/>
</svg>
