<svg width="16" height="16" viewBox="0 0 16 16" fill="none" xmlns="http://www.w3.org/2000/svg">
<path fill-rule="evenodd" clip-rule="evenodd" d="M7.48039 2.25407L5.68239 4.49368C5.18797 5.11086 5.11446 5.91989 5.47839 6.59756C5.84705 7.28405 6.62055 7.74781 7.50037 7.75C8.38005 7.74755 9.15329 7.2837 9.52177 6.59728C9.88552 5.91967 9.81213 5.11099 9.31779 4.4939L7.52055 2.25407C7.51674 2.25229 7.50941 2.25 7.50047 2.25C7.49154 2.25 7.4842 2.2523 7.48039 2.25407ZM6.315 1.30966C6.60661 0.947511 7.04877 0.75 7.50047 0.75C7.95218 0.75 8.39433 0.947511 8.68594 1.30966L8.68675 1.31066L10.4879 3.55531C11.3526 4.6345 11.4959 6.09122 10.8434 7.30674C10.1958 8.51313 8.89431 9.24697 7.50211 9.25H7.49906C6.10665 9.24737 4.80479 8.5137 4.15689 7.30724C3.50408 6.09164 3.64695 4.63505 4.51184 3.5557L6.315 1.30966Z" fill="currentColor"/>
<path fill-rule="evenodd" clip-rule="evenodd" d="M12.5003 9.20735L11.3986 10.6777C11.0872 11.0941 11.0377 11.65 11.2705 12.1145C11.5032 12.5788 11.9787 12.8734 12.5002 12.875C13.0217 12.8733 13.497 12.5786 13.7296 12.1143C13.9623 11.6498 13.9129 11.0941 13.6014 10.6777L12.5003 9.20735ZM11.5998 8.32453C11.8127 8.04128 12.1464 7.875 12.5003 7.875C12.8542 7.875 13.1879 8.04128 13.4008 8.32453L13.4015 8.32538L14.6022 9.9287C15.1969 10.7239 15.292 11.7865 14.8472 12.6743C14.4025 13.5619 13.4948 14.1227 12.5018 14.125H12.4991C11.5059 14.123 10.5979 13.5623 10.153 12.6746C9.70801 11.7868 9.80274 10.7244 10.3976 9.92903L11.5998 8.32453ZM3.50029 10.2074L2.39859 11.6777C2.08727 12.0941 2.03771 12.6501 2.2705 13.1145C2.50323 13.5788 2.9787 13.8734 3.50023 13.875C4.02167 13.8733 4.49698 13.5786 4.7296 13.1143C4.96232 12.6498 4.91286 12.0941 4.60146 11.6777L3.50029 10.2074ZM2.59981 9.32453C2.81269 9.04128 3.1464 8.875 3.50032 8.875C3.85424 8.875 4.18794 9.04128 4.40082 9.32453L4.40145 9.32537L5.60219 10.9287C6.19693 11.7239 6.29198 12.7865 5.84717 13.6743C5.40246 14.5619 4.49481 15.1227 3.50178 15.125H3.49905C2.50587 15.123 1.59794 14.5623 1.15302 13.6746C0.708011 12.7868 0.802745 11.7244 1.39757 10.929L2.59981 9.32453Z" fill="currentColor"/>
</svg>
