<svg width="24" height="24" viewBox="0 0 24 24" fill="none" xmlns="http://www.w3.org/2000/svg">
<path d="M11.5 9.5C11.5 9.22386 11.7239 9 12 9H14.5C14.7761 9 15 9.22386 15 9.5V12C15 12.2761 14.7761 12.5 14.5 12.5C14.2239 12.5 14 12.2761 14 12V10.7071L11.3536 13.3536C11.1583 13.5488 10.8417 13.5488 10.6464 13.3536C10.4512 13.1583 10.4512 12.8417 10.6464 12.6464L13.2929 10H12C11.7239 10 11.5 9.77614 11.5 9.5ZM8.13332 7.69238C8.46915 6.70798 9.4019 6 10.5 6H15.5C16.8807 6 18 7.11929 18 8.5V13.5C18 14.5981 17.2921 15.5308 16.3077 15.8667V16.2308C16.3077 16.5665 16.1906 16.9937 15.9162 17.3469C15.6272 17.7191 15.1682 18.0001 14.5385 18.0001H8.76923C7.22385 18.0001 6 16.7761 6 15.2308L6 9.46161C6 8.91317 6.19723 8.45581 6.54568 8.13948C6.88637 7.8302 7.33074 7.69238 7.76923 7.69238H8.13332ZM8 8.69238H7.76923C7.53343 8.69238 7.34318 8.7661 7.21783 8.8799C7.10025 8.98664 7 9.1639 7 9.46161L7 15.2308C7 16.2239 7.77615 17.0001 8.76923 17.0001H14.5385C14.8375 17.0001 15.0131 16.8795 15.1265 16.7335C15.2546 16.5686 15.3077 16.3612 15.3077 16.2308V16H10.5C9.11929 16 8 14.8807 8 13.5L8 8.69238ZM10.5 7C9.67157 7 9 7.67157 9 8.5V13.5C9 14.3284 9.67157 15 10.5 15L15.5 15C16.3284 15 17 14.3284 17 13.5V8.5C17 7.67157 16.3284 7 15.5 7L10.5 7Z" fill="currentColor"/>
</svg>
